G04*
G04 #@! TF.GenerationSoftware,Altium Limited,Altium Designer,21.0.8 (223)*
G04*
G04 Layer_Physical_Order=2*
G04 Layer_Color=16711680*
%FSTAX24Y24*%
%MOIN*%
G70*
G04*
G04 #@! TF.SameCoordinates,83E23403-EE52-46E3-B8F6-72DD454AC7A2*
G04*
G04*
G04 #@! TF.FilePolarity,Positive*
G04*
G01*
G75*
%ADD18C,0.0830*%
%ADD25C,0.0600*%
%ADD26R,0.0394X0.0591*%
%ADD27O,0.0394X0.0591*%
%ADD28C,0.0750*%
%ADD29R,0.0750X0.0750*%
%ADD30C,0.0630*%
%ADD31R,0.0830X0.0830*%
%ADD32R,0.1000X0.0800*%
%ADD33O,0.1000X0.0800*%
%ADD34C,0.0276*%
G36*
X031501Y010153D02*
X02605D01*
Y019518D01*
X0261Y019533D01*
X026129Y01949D01*
X026584Y019035D01*
X026663Y018982D01*
X026755Y018964D01*
X026943D01*
X026959Y018901D01*
X027027Y018784D01*
X027123Y018688D01*
X027241Y01862D01*
X027372Y018585D01*
X027507D01*
X027638Y01862D01*
X027756Y018688D01*
X027851Y018784D01*
X027919Y018901D01*
X027954Y019032D01*
Y019168D01*
X027919Y019299D01*
X027851Y019416D01*
X027756Y019512D01*
X027638Y01958D01*
X027507Y019615D01*
X027372D01*
X027241Y01958D01*
X027123Y019512D01*
X02706Y019449D01*
X026856D01*
X026542Y019762D01*
Y0211D01*
X026592Y021115D01*
X026615Y021081D01*
X026946Y02075D01*
X026924Y020668D01*
Y020532D01*
X026959Y020401D01*
X027027Y020284D01*
X027123Y020188D01*
X027241Y02012D01*
X027372Y020085D01*
X027507D01*
X027638Y02012D01*
X027756Y020188D01*
X027851Y020284D01*
X027919Y020401D01*
X027954Y020532D01*
Y020668D01*
X027919Y020799D01*
X027851Y020916D01*
X027756Y021012D01*
X027638Y02108D01*
X027507Y021115D01*
X027372D01*
X027289Y021093D01*
X027029Y021353D01*
Y021717D01*
X027075Y021736D01*
X027123Y021688D01*
X027241Y02162D01*
X027372Y021585D01*
X027389D01*
Y0221D01*
Y022615D01*
X027372D01*
X027241Y02258D01*
X027129Y022516D01*
X027098Y022556D01*
X027768Y023225D01*
X028375D01*
Y024175D01*
X027425D01*
Y023589D01*
X027411Y02358D01*
X027368Y023611D01*
X027375Y023637D01*
Y023763D01*
X027343Y023883D01*
X02728Y023992D01*
X027192Y02408D01*
X027083Y024143D01*
X026963Y024175D01*
X026837D01*
X026717Y024143D01*
X026608Y02408D01*
X02652Y023992D01*
X026457Y023883D01*
X026425Y023763D01*
Y023637D01*
X02644Y023583D01*
X026129Y023271D01*
X0261Y023229D01*
X02605Y023244D01*
Y02555D01*
X031501D01*
Y010153D01*
D02*
G37*
%LPC*%
G36*
X027507Y022615D02*
X027489D01*
Y02215D01*
X027954D01*
Y022168D01*
X027919Y022299D01*
X027851Y022416D01*
X027756Y022512D01*
X027638Y02258D01*
X027507Y022615D01*
D02*
G37*
G36*
X027954Y02205D02*
X027489D01*
Y021585D01*
X027507D01*
X027638Y02162D01*
X027756Y021688D01*
X027851Y021784D01*
X027919Y021901D01*
X027954Y022032D01*
Y02205D01*
D02*
G37*
G36*
X030698Y0194D02*
X0301D01*
X029502D01*
X029513Y019319D01*
X029563Y019198D01*
X029643Y019093D01*
X029748Y019013D01*
X02978Y019D01*
X02977Y01895D01*
X0295D01*
Y018692D01*
X028289D01*
X028289Y018692D01*
X028197Y018674D01*
X028118Y018621D01*
X027611Y018115D01*
X026924D01*
Y017428D01*
X026366Y016869D01*
X026313Y016791D01*
X026295Y016698D01*
Y016195D01*
X02624D01*
Y015405D01*
X026295D01*
Y014459D01*
X026313Y014366D01*
X026366Y014287D01*
X026409Y014244D01*
X026385Y014155D01*
Y014045D01*
X026413Y01394D01*
X026468Y013845D01*
X026545Y013768D01*
X02664Y013713D01*
X026745Y013685D01*
X026855D01*
X02696Y013713D01*
X027055Y013768D01*
X027132Y013845D01*
X027187Y01394D01*
X027215Y014045D01*
Y014155D01*
X027187Y01426D01*
X027132Y014355D01*
X027055Y014432D01*
X02696Y014487D01*
X026855Y014515D01*
X026824D01*
X02678Y014559D01*
Y015405D01*
X026834D01*
Y016195D01*
X02678D01*
Y016598D01*
X027267Y017085D01*
X027954D01*
Y017772D01*
X02839Y018208D01*
X0295D01*
Y01795D01*
X0307D01*
Y01895D01*
X03043D01*
X03042Y019D01*
X030452Y019013D01*
X030557Y019093D01*
X030637Y019198D01*
X030687Y019319D01*
X030698Y0194D01*
D02*
G37*
G36*
X0302Y020954D02*
X03D01*
X029869Y020937D01*
X029748Y020887D01*
X029643Y020807D01*
X029563Y020702D01*
X029513Y020581D01*
X029496Y02045D01*
X029513Y020319D01*
X029563Y020198D01*
X029643Y020093D01*
X029748Y020013D01*
X029835Y019977D01*
Y019923D01*
X029748Y019887D01*
X029643Y019807D01*
X029563Y019702D01*
X029513Y019581D01*
X029502Y0195D01*
X0301D01*
X030698D01*
X030687Y019581D01*
X030637Y019702D01*
X030557Y019807D01*
X030452Y019887D01*
X030365Y019923D01*
Y019977D01*
X030452Y020013D01*
X030557Y020093D01*
X030567Y020107D01*
X030788D01*
X030808Y020088D01*
Y016042D01*
X030788Y016023D01*
X029797D01*
Y016175D01*
X029203D01*
Y015385D01*
X029258D01*
Y0143D01*
X028068Y013111D01*
X028055Y013115D01*
X027945D01*
X02784Y013087D01*
X027745Y013032D01*
X027668Y012955D01*
X027613Y01286D01*
X027585Y012755D01*
Y012645D01*
X027613Y01254D01*
X027668Y012445D01*
X027708Y012406D01*
Y011475D01*
X027425D01*
Y010525D01*
X028375D01*
Y011475D01*
X028192D01*
Y012332D01*
X028255Y012368D01*
X028332Y012445D01*
X028387Y01254D01*
X028415Y012645D01*
Y012755D01*
X028411Y012768D01*
X029671Y014029D01*
X029724Y014107D01*
X029742Y0142D01*
Y015385D01*
X029797D01*
Y015538D01*
X030889D01*
X030981Y015556D01*
X03106Y015609D01*
X031221Y01577D01*
X031274Y015849D01*
X031292Y015942D01*
Y020188D01*
X031274Y020281D01*
X031221Y02036D01*
X03106Y020521D01*
X030981Y020574D01*
X030889Y020592D01*
X030682D01*
X030637Y020702D01*
X030557Y020807D01*
X030452Y020887D01*
X030331Y020937D01*
X0302Y020954D01*
D02*
G37*
G36*
X027587Y016191D02*
Y01585D01*
X027837D01*
Y015898D01*
X027827Y015976D01*
X027797Y016048D01*
X027749Y01611D01*
X027687Y016158D01*
X027615Y016188D01*
X027587Y016191D01*
D02*
G37*
G36*
X027487D02*
X02746Y016188D01*
X027388Y016158D01*
X027326Y01611D01*
X027278Y016048D01*
X027248Y015976D01*
X027238Y015898D01*
Y01585D01*
X027487D01*
Y016191D01*
D02*
G37*
G36*
X02855Y016171D02*
Y01583D01*
X028799D01*
Y015879D01*
X028789Y015956D01*
X028759Y016028D01*
X028712Y01609D01*
X02865Y016138D01*
X028577Y016168D01*
X02855Y016171D01*
D02*
G37*
G36*
X02845D02*
X028423Y016168D01*
X02835Y016138D01*
X028288Y01609D01*
X028241Y016028D01*
X028211Y015956D01*
X028201Y015879D01*
Y01583D01*
X02845D01*
Y016171D01*
D02*
G37*
G36*
X027837Y01575D02*
X027587D01*
Y015409D01*
X027615Y015412D01*
X027687Y015442D01*
X027749Y01549D01*
X027797Y015552D01*
X027827Y015624D01*
X027837Y015702D01*
Y01575D01*
D02*
G37*
G36*
X027487D02*
X027238D01*
Y015702D01*
X027248Y015624D01*
X027278Y015552D01*
X027326Y01549D01*
X027388Y015442D01*
X02746Y015412D01*
X027487Y015409D01*
Y01575D01*
D02*
G37*
G36*
X028799Y01573D02*
X02855D01*
Y015389D01*
X028577Y015392D01*
X02865Y015422D01*
X028712Y01547D01*
X028759Y015532D01*
X028789Y015604D01*
X028799Y015682D01*
Y01573D01*
D02*
G37*
G36*
X02845D02*
X028201D01*
Y015682D01*
X028211Y015604D01*
X028241Y015532D01*
X028288Y01547D01*
X02835Y015422D01*
X028423Y015392D01*
X02845Y015389D01*
Y01573D01*
D02*
G37*
G36*
X028055Y014515D02*
X02805D01*
Y01415D01*
X028415D01*
Y014155D01*
X028387Y01426D01*
X028332Y014355D01*
X028255Y014432D01*
X02816Y014487D01*
X028055Y014515D01*
D02*
G37*
G36*
X02795D02*
X027945D01*
X02784Y014487D01*
X027745Y014432D01*
X027668Y014355D01*
X027613Y01426D01*
X027585Y014155D01*
Y01415D01*
X02795D01*
Y014515D01*
D02*
G37*
G36*
X028415Y01405D02*
X02805D01*
Y013685D01*
X028055D01*
X02816Y013713D01*
X028255Y013768D01*
X028332Y013845D01*
X028387Y01394D01*
X028415Y014045D01*
Y01405D01*
D02*
G37*
G36*
X02795D02*
X027585D01*
Y014045D01*
X027613Y01394D01*
X027668Y013845D01*
X027745Y013768D01*
X02784Y013713D01*
X027945Y013685D01*
X02795D01*
Y01405D01*
D02*
G37*
G36*
X026855Y013115D02*
X02685D01*
Y01275D01*
X027215D01*
Y012755D01*
X027187Y01286D01*
X027132Y012955D01*
X027055Y013032D01*
X02696Y013087D01*
X026855Y013115D01*
D02*
G37*
G36*
X02675D02*
X026745D01*
X02664Y013087D01*
X026545Y013032D01*
X026468Y012955D01*
X026413Y01286D01*
X026385Y012755D01*
Y01275D01*
X02675D01*
Y013115D01*
D02*
G37*
G36*
X027215Y01265D02*
X02685D01*
Y012285D01*
X026855D01*
X02696Y012313D01*
X027055Y012368D01*
X027132Y012445D01*
X027187Y01254D01*
X027215Y012645D01*
Y01265D01*
D02*
G37*
G36*
X02675D02*
X026385D01*
Y012645D01*
X026413Y01254D01*
X026468Y012445D01*
X026545Y012368D01*
X02664Y012313D01*
X026745Y012285D01*
X02675D01*
Y01265D01*
D02*
G37*
G36*
X026963Y011475D02*
X02695D01*
Y01105D01*
X027375D01*
Y011063D01*
X027343Y011183D01*
X02728Y011292D01*
X027192Y01138D01*
X027083Y011443D01*
X026963Y011475D01*
D02*
G37*
G36*
X02685D02*
X026837D01*
X026717Y011443D01*
X026608Y01138D01*
X02652Y011292D01*
X026457Y011183D01*
X026425Y011063D01*
Y01105D01*
X02685D01*
Y011475D01*
D02*
G37*
G36*
X027375Y01095D02*
X02695D01*
Y010525D01*
X026963D01*
X027083Y010557D01*
X027192Y01062D01*
X02728Y010708D01*
X027343Y010817D01*
X027375Y010937D01*
Y01095D01*
D02*
G37*
G36*
X02685D02*
X026425D01*
Y010937D01*
X026457Y010817D01*
X02652Y010708D01*
X026608Y01062D01*
X026717Y010557D01*
X026837Y010525D01*
X02685D01*
Y01095D01*
D02*
G37*
%LPD*%
D18*
X027439Y0221D02*
D03*
Y0206D02*
D03*
Y0191D02*
D03*
D25*
X018024Y0413D02*
D03*
Y0111D02*
D03*
D26*
X0295Y01578D02*
D03*
X026537Y0158D02*
D03*
D27*
X0285Y01578D02*
D03*
X027537Y0158D02*
D03*
D28*
X0269Y011D02*
D03*
Y0237D02*
D03*
D29*
X0279Y011D02*
D03*
Y0237D02*
D03*
D30*
X0268Y0127D02*
D03*
X028D02*
D03*
Y0141D02*
D03*
X0268D02*
D03*
D31*
X027439Y0176D02*
D03*
D32*
X0301Y01845D02*
D03*
D33*
Y01945D02*
D03*
Y02045D02*
D03*
D34*
X026537Y014459D02*
X0268Y014196D01*
X026537Y014459D02*
Y0158D01*
Y016698D01*
X0268Y0141D02*
Y014196D01*
X0295Y01578D02*
X030889D01*
X03105Y015942D02*
Y020188D01*
X0302Y02035D02*
X030889D01*
X03105Y020188D01*
X030889Y01578D02*
X03105Y015942D01*
X02795Y01105D02*
Y01265D01*
X0279Y011D02*
X02795Y01105D01*
Y01265D02*
X028Y0127D01*
X0295Y0142D01*
Y01578D01*
X026537Y016698D02*
X027439Y0176D01*
X0301Y02045D02*
X0302Y02035D01*
X026787Y021253D02*
X027439Y0206D01*
X026787Y021253D02*
Y022587D01*
X0279Y0237D01*
X0263Y019661D02*
X026755Y019206D01*
X0263Y019661D02*
Y0231D01*
X0269Y0237D01*
X027333Y019206D02*
X027439Y0191D01*
X026755Y019206D02*
X027333D01*
X027439Y0176D02*
X028289Y01845D01*
X0301D01*
M02*
