G04*
G04 #@! TF.GenerationSoftware,Altium Limited,Altium Designer,21.0.8 (223)*
G04*
G04 Layer_Color=128*
%FSTAX24Y24*%
%MOIN*%
G70*
G04*
G04 #@! TF.SameCoordinates,83E23403-EE52-46E3-B8F6-72DD454AC7A2*
G04*
G04*
G04 #@! TF.FilePolarity,Positive*
G04*
G01*
G75*
%ADD35C,0.0020*%
D35*
X017886Y0413D02*
X018162D01*
X018024Y041162D02*
Y041438D01*
X017874Y0111D02*
X018174D01*
X018024Y01095D02*
Y01125D01*
X029382Y01578D02*
X029618D01*
X0295Y015662D02*
Y015898D01*
X028382Y01578D02*
X028618D01*
X0285Y015662D02*
Y015898D01*
X0267Y011D02*
X0271D01*
X0269Y0108D02*
Y0112D01*
X0277Y011D02*
X0281D01*
X0279Y0108D02*
Y0112D01*
X026682Y0127D02*
X026918D01*
X0268Y012582D02*
Y012818D01*
X027882Y0127D02*
X028118D01*
X028Y012582D02*
Y012818D01*
X027882Y0141D02*
X028118D01*
X028Y013982D02*
Y014218D01*
X026682Y0141D02*
X026918D01*
X0268Y013982D02*
Y014218D01*
X026419Y0158D02*
X026655D01*
X026537Y015682D02*
Y015918D01*
X027419Y0158D02*
X027655D01*
X027537Y015682D02*
Y015918D01*
X027199Y0221D02*
X027679D01*
X027439Y02186D02*
Y02234D01*
X027199Y0206D02*
X027679D01*
X027439Y02036D02*
Y02084D01*
X027199Y0191D02*
X027679D01*
X027439Y01886D02*
Y01934D01*
X027199Y0176D02*
X027679D01*
X027439Y01736D02*
Y01784D01*
X029905Y01845D02*
X030295D01*
X0301Y018255D02*
Y018645D01*
X029905Y01945D02*
X030295D01*
X0301Y019255D02*
Y019645D01*
X029905Y02045D02*
X030295D01*
X0301Y020255D02*
Y020645D01*
X0277Y0237D02*
X0281D01*
X0279Y0235D02*
Y0239D01*
X0267Y0237D02*
X0271D01*
X0269Y0235D02*
Y0239D01*
M02*
