G04*
G04 #@! TF.GenerationSoftware,Altium Limited,Altium Designer,21.0.8 (223)*
G04*
G04 Layer_Color=65535*
%FSTAX24Y24*%
%MOIN*%
G70*
G04*
G04 #@! TF.SameCoordinates,83E23403-EE52-46E3-B8F6-72DD454AC7A2*
G04*
G04*
G04 #@! TF.FilePolarity,Positive*
G04*
G01*
G75*
%ADD10C,0.0080*%
%ADD11C,0.0100*%
%ADD12C,0.0079*%
%ADD13C,0.0070*%
%ADD14R,0.0360X0.3990*%
D10*
X029591Y016174D02*
G03*
X028409Y016174I-000591J-000394D01*
G01*
X028425Y015362D02*
G03*
X029575Y015362I000575J000418D01*
G01*
X026446Y015406D02*
G03*
X027629Y015406I000591J000394D01*
G01*
X027612Y016218D02*
G03*
X026463Y016218I-000575J-000418D01*
G01*
D11*
X03071Y01773D02*
G03*
X03071Y01773I-00013J0D01*
G01*
X0263Y0104D02*
X0285D01*
Y0116D01*
X0263D02*
X0285D01*
X0263Y0104D02*
Y0116D01*
X0285Y012276D02*
Y013142D01*
X0263Y012276D02*
X0285D01*
X0263D02*
Y013142D01*
X0285D01*
X0263Y013658D02*
Y014524D01*
X0285D01*
Y013658D02*
Y014524D01*
X0263Y013658D02*
X0285D01*
X0263Y0231D02*
Y0243D01*
X0285D01*
Y0231D02*
Y0243D01*
X0263Y0231D02*
X0285D01*
X03025Y01578D02*
X02985D01*
X03005Y01558D02*
Y01598D01*
X025787Y0158D02*
X026187D01*
X025987Y016D02*
Y0156D01*
X0288Y01055D02*
Y01115D01*
X0291D01*
X0292Y01105D01*
Y01085D01*
X0291Y01075D01*
X0288D01*
X0297Y01055D02*
Y01115D01*
X0294Y01085D01*
X0298D01*
X02635Y02465D02*
Y02525D01*
X02665D01*
X02675Y02515D01*
Y02495D01*
X02665Y02485D01*
X02635D01*
X02695Y02515D02*
X02705Y02525D01*
X02725D01*
X02735Y02515D01*
Y02505D01*
X02725Y02495D01*
X02715D01*
X02725D01*
X02735Y02485D01*
Y02475D01*
X02725Y02465D01*
X02705D01*
X02695Y02475D01*
X02886Y02257D02*
X02906D01*
X02896D01*
Y02197D01*
X02886D01*
X02906D01*
X02976Y02247D02*
X02966Y02257D01*
X02946D01*
X02936Y02247D01*
Y02207D01*
X02946Y02197D01*
X02966D01*
X02976Y02207D01*
X02996Y02197D02*
X03016D01*
X03006D01*
Y02257D01*
X02996Y02247D01*
X026349Y02374D02*
Y02314D01*
X026649D01*
X026749Y02324D01*
Y02364D01*
X026649Y02374D01*
X026349D01*
X026949Y02314D02*
X027149D01*
X027049D01*
Y02374D01*
X026949Y02364D01*
X02525Y01565D02*
X02515Y01555D01*
Y01535D01*
X02525Y01525D01*
X02565D01*
X02575Y01535D01*
Y01555D01*
X02565Y01565D01*
X02575Y01615D02*
X02515D01*
X02545Y01585D01*
Y01625D01*
X0293Y0129D02*
X0292Y013D01*
X029D01*
X0289Y0129D01*
Y0125D01*
X029Y0124D01*
X0292D01*
X0293Y0125D01*
X0295Y0129D02*
X0296Y013D01*
X0298D01*
X0299Y0129D01*
Y0128D01*
X0298Y0127D01*
X0297D01*
X0298D01*
X0299Y0126D01*
Y0125D01*
X0298Y0124D01*
X0296D01*
X0295Y0125D01*
X0292Y0143D02*
X0291Y0144D01*
X0289D01*
X0288Y0143D01*
Y0139D01*
X0289Y0138D01*
X0291D01*
X0292Y0139D01*
X0298Y0138D02*
X0294D01*
X0298Y0142D01*
Y0143D01*
X0297Y0144D01*
X0295D01*
X0294Y0143D01*
X0305Y01535D02*
X0304Y01545D01*
X0302D01*
X0301Y01535D01*
Y01495D01*
X0302Y01485D01*
X0304D01*
X0305Y01495D01*
X0307Y01485D02*
X0309D01*
X0308D01*
Y01545D01*
X0307Y01535D01*
D12*
X026289Y0176D02*
X026989Y0169D01*
X026289Y0176D02*
Y0228D01*
X028419D01*
Y0169D02*
Y0228D01*
X026989Y0169D02*
X028419D01*
D13*
X03086Y01769D02*
Y02145D01*
X03085Y02144D02*
X03086Y02145D01*
X0288Y02144D02*
X03085D01*
X0288Y01745D02*
Y02144D01*
Y01745D02*
X03085D01*
X03086Y01746D01*
Y01769D01*
X02903Y02143D02*
X02917Y02144D01*
D14*
X02898Y019456D02*
D03*
M02*
