G04*
G04 #@! TF.GenerationSoftware,Altium Limited,Altium Designer,21.0.8 (223)*
G04*
G04 Layer_Color=2752767*
%FSTAX24Y24*%
%MOIN*%
G70*
G04*
G04 #@! TF.SameCoordinates,83E23403-EE52-46E3-B8F6-72DD454AC7A2*
G04*
G04*
G04 #@! TF.FilePolarity,Positive*
G04*
G01*
G75*
%ADD35C,0.0020*%
%ADD36C,0.0027*%
D35*
X017944Y04122D02*
Y04138D01*
X018104D01*
Y04122D01*
X017944D01*
X0295Y0157D02*
X02942Y01586D01*
X02958D01*
X0295Y0157D01*
X0285D02*
X02842Y01586D01*
X02858D01*
X0285Y0157D01*
X0269Y01092D02*
X02694Y01096D01*
X02698D01*
X02694Y011D01*
X02698Y01104D01*
X02694D01*
X0269Y01108D01*
X02686Y01104D01*
X02682D01*
X02686Y011D01*
X02682Y01096D01*
X02686D01*
X0269Y01092D01*
X0279D02*
X02794Y01096D01*
X02798D01*
X02794Y011D01*
X02798Y01104D01*
X02794D01*
X0279Y01108D01*
X02786Y01104D01*
X02782D01*
X02786Y011D01*
X02782Y01096D01*
X02786D01*
X0279Y01092D01*
X0268Y01262D02*
X02672Y01278D01*
X02688D01*
X0268Y01262D01*
X028D02*
X02792Y01278D01*
X02808D01*
X028Y01262D01*
Y01402D02*
X02792Y01418D01*
X02808D01*
X028Y01402D01*
X0268D02*
X02672Y01418D01*
X02688D01*
X0268Y01402D01*
X026537Y01572D02*
X026457Y01588D01*
X026617D01*
X026537Y01572D01*
X027537D02*
X027457Y01588D01*
X027617D01*
X027537Y01572D01*
X027359Y02202D02*
X027399Y0221D01*
X027359Y02218D01*
X027439Y02214D01*
X027519Y02218D01*
X027479Y0221D01*
X027519Y02202D01*
X027439Y02206D01*
X027359Y02202D01*
Y02052D02*
X027399Y0206D01*
X027359Y02068D01*
X027439Y02064D01*
X027519Y02068D01*
X027479Y0206D01*
X027519Y02052D01*
X027439Y02056D01*
X027359Y02052D01*
Y01902D02*
X027399Y0191D01*
X027359Y01918D01*
X027439Y01914D01*
X027519Y01918D01*
X027479Y0191D01*
X027519Y01902D01*
X027439Y01906D01*
X027359Y01902D01*
Y01752D02*
X027399Y0176D01*
X027359Y01768D01*
X027439Y01764D01*
X027519Y01768D01*
X027479Y0176D01*
X027519Y01752D01*
X027439Y01756D01*
X027359Y01752D01*
X03006Y01841D02*
Y01837D01*
X03014D01*
Y01841D01*
X03018D01*
Y01849D01*
X03014D01*
Y01853D01*
X03006D01*
Y01849D01*
X03002D01*
Y01841D01*
X03006D01*
Y01941D02*
Y01937D01*
X03014D01*
Y01941D01*
X03018D01*
Y01949D01*
X03014D01*
Y01953D01*
X03006D01*
Y01949D01*
X03002D01*
Y01941D01*
X03006D01*
Y02041D02*
Y02037D01*
X03014D01*
Y02041D01*
X03018D01*
Y02049D01*
X03014D01*
Y02053D01*
X03006D01*
Y02049D01*
X03002D01*
Y02041D01*
X03006D01*
X0279Y02362D02*
X02794Y02366D01*
X02798D01*
X02794Y0237D01*
X02798Y02374D01*
X02794D01*
X0279Y02378D01*
X02786Y02374D01*
X02782D01*
X02786Y0237D01*
X02782Y02366D01*
X02786D01*
X0279Y02362D01*
X0269D02*
X02694Y02366D01*
X02698D01*
X02694Y0237D01*
X02698Y02374D01*
X02694D01*
X0269Y02378D01*
X02686Y02374D01*
X02682D01*
X02686Y0237D01*
X02682Y02366D01*
X02686D01*
X0269Y02362D01*
D36*
X018104Y0111D02*
G03*
X018104Y0111I-00008J0D01*
G01*
M02*
