M48
;Layer_Color=9474304
;FILE_FORMAT=2:4
INCH,LZ
;TYPE=PLATED
T1F00S00C0.0236
T2F00S00C0.0276
T3F00S00C0.0300
T4F00S00C0.0390
T5F00S00C0.0400
T6F00S00C0.0480
%
T01
X0268Y0127
X028
Y0141
X0268
X026537Y0158
X027537
X0285Y01578
X0295
T02
X018024Y0413
T03
X018024Y0111
T04
X0301Y01845
Y01945
Y02045
T05
X0269Y011
X0279
Y0237
X0269
T06
X027439Y0176
Y0191
Y0206
Y0221
M30
