G04*
G04 #@! TF.GenerationSoftware,Altium Limited,Altium Designer,21.0.8 (223)*
G04*
G04 Layer_Physical_Order=1*
G04 Layer_Color=255*
%FSTAX24Y24*%
%MOIN*%
G70*
G04*
G04 #@! TF.SameCoordinates,7D2A80BF-F15A-477C-97BA-D51E596D6298*
G04*
G04*
G04 #@! TF.FilePolarity,Positive*
G04*
G01*
G75*
%ADD14C,0.0100*%
%ADD22C,0.0750*%
%ADD30C,0.0315*%
%ADD31C,0.0591*%
%ADD32R,0.0591X0.0591*%
%ADD33R,0.0900X0.0600*%
%ADD34O,0.0900X0.0600*%
%ADD35O,0.0600X0.1000*%
%ADD36C,0.0670*%
%ADD37R,0.0750X0.0750*%
%ADD38R,0.0600X0.0900*%
%ADD39O,0.0600X0.0900*%
%ADD40R,0.1070X0.1070*%
%ADD41C,0.1070*%
%ADD42C,0.0500*%
G36*
X064866Y045822D02*
X064816Y045812D01*
X06481Y045829D01*
X064753Y045903D01*
X063653Y047003D01*
X063579Y04706D01*
X063492Y047095D01*
X0634Y047107D01*
X061523D01*
X061484Y047201D01*
X061404Y047304D01*
X061301Y047384D01*
X06118Y047434D01*
X06105Y047451D01*
X06092Y047434D01*
X060799Y047384D01*
X060696Y047304D01*
X060616Y047201D01*
X060577Y047107D01*
X060523D01*
X060484Y047201D01*
X060404Y047304D01*
X060301Y047384D01*
X06018Y047434D01*
X06005Y047451D01*
X05992Y047434D01*
X059799Y047384D01*
X059696Y047304D01*
X059616Y047201D01*
X059577Y047107D01*
X059523D01*
X059484Y047201D01*
X059407Y0473D01*
Y0481D01*
X059395Y048193D01*
X05936Y048279D01*
X059303Y048353D01*
X059303Y048353D01*
X058753Y048903D01*
X058679Y04896D01*
X058593Y048995D01*
X0585Y049007D01*
X0122D01*
X012107Y048995D01*
X012021Y04896D01*
X011947Y048903D01*
X010847Y047803D01*
X01079Y047729D01*
X010755Y047642D01*
X010743Y04755D01*
Y047195D01*
X010674Y047127D01*
X010604Y047005D01*
X010568Y04687D01*
Y04673D01*
X010604Y046595D01*
X010674Y046473D01*
X010773Y046374D01*
X010895Y046304D01*
X01103Y046268D01*
X01117D01*
X011305Y046304D01*
X011427Y046374D01*
X011526Y046473D01*
X011596Y046595D01*
X011632Y04673D01*
Y04687D01*
X011596Y047005D01*
X011526Y047127D01*
X011457Y047195D01*
Y047402D01*
X012348Y048293D01*
X014793D01*
Y0473D01*
X014716Y047201D01*
X014677Y047107D01*
X014623D01*
X014584Y047201D01*
X014504Y047304D01*
X014401Y047384D01*
X01428Y047434D01*
X01415Y047451D01*
X01402Y047434D01*
X013899Y047384D01*
X013796Y047304D01*
X013716Y047201D01*
X013677Y047107D01*
X013623D01*
X013584Y047201D01*
X013504Y047304D01*
X013401Y047384D01*
X01328Y047434D01*
X01315Y047451D01*
X01302Y047434D01*
X012899Y047384D01*
X012796Y047304D01*
X012716Y047201D01*
X012666Y04708D01*
X012649Y04695D01*
Y04655D01*
X012666Y04642D01*
X012716Y046299D01*
X012793Y0462D01*
Y043658D01*
X011542Y042407D01*
X011486Y042422D01*
X011484Y042432D01*
X011526Y042473D01*
X011596Y042595D01*
X011632Y04273D01*
Y04287D01*
X011596Y043005D01*
X011526Y043127D01*
X011427Y043226D01*
X011305Y043296D01*
X01117Y043332D01*
X01103D01*
X010895Y043296D01*
X010773Y043226D01*
X010674Y043127D01*
X010604Y043005D01*
X010568Y04287D01*
Y04273D01*
X010604Y042595D01*
X010674Y042473D01*
X010743Y042405D01*
Y038D01*
X010755Y037908D01*
X01079Y037821D01*
X010847Y037747D01*
X012095Y0365D01*
X010847Y035253D01*
X01079Y035179D01*
X010755Y035092D01*
X010743Y035D01*
Y02189D01*
X010755Y021797D01*
X01079Y021711D01*
X010847Y021637D01*
X012994Y019491D01*
X012968Y019362D01*
Y019218D01*
X012996Y019077D01*
X013051Y018943D01*
X013132Y018823D01*
X013233Y018722D01*
X013353Y018641D01*
X013487Y018586D01*
X013628Y018558D01*
X013772D01*
X013913Y018586D01*
X014047Y018641D01*
X014167Y018722D01*
X014268Y018823D01*
X014349Y018943D01*
X014404Y019077D01*
X014432Y019218D01*
Y019362D01*
X014404Y019503D01*
X014349Y019637D01*
X014268Y019757D01*
X014167Y019858D01*
X014047Y019939D01*
X013913Y019994D01*
X013772Y020022D01*
X013628D01*
X013499Y019996D01*
X011457Y022038D01*
Y034852D01*
X011857Y035252D01*
X011903Y035232D01*
Y034214D01*
X012043D01*
Y032D01*
X012055Y031907D01*
X01209Y031821D01*
X012147Y031747D01*
X013447Y030447D01*
X013521Y03039D01*
X013607Y030355D01*
X0137Y030343D01*
X0137Y030343D01*
X01405D01*
X014149Y030266D01*
X01427Y030216D01*
X0144Y030199D01*
X0147D01*
X01483Y030216D01*
X014951Y030266D01*
X01505Y030343D01*
X015352D01*
X015693Y030002D01*
Y02549D01*
X015705Y025398D01*
X01574Y025311D01*
X015797Y025237D01*
X016247Y024787D01*
X016321Y02473D01*
X016408Y024695D01*
X0165Y024683D01*
X025212D01*
X026794Y023101D01*
X026797Y023096D01*
X027466Y022428D01*
X02754Y022371D01*
X027551Y022366D01*
X027661Y022256D01*
X027666Y02222D01*
X027716Y022099D01*
X027796Y021996D01*
X027899Y021916D01*
X027993Y021877D01*
Y021823D01*
X027899Y021784D01*
X027796Y021704D01*
X027716Y021601D01*
X027666Y02148D01*
X027649Y02135D01*
X027666Y02122D01*
X027716Y021099D01*
X027796Y020996D01*
X027899Y020916D01*
X027993Y020877D01*
Y020823D01*
X027899Y020784D01*
X027796Y020704D01*
X027716Y020601D01*
X027666Y02048D01*
X027649Y02035D01*
X027666Y02022D01*
X027716Y020099D01*
X027796Y019996D01*
X027899Y019916D01*
X027993Y019877D01*
Y019823D01*
X027899Y019784D01*
X0278Y019707D01*
X019168D01*
X014967Y023909D01*
Y023909D01*
X014936Y024022D01*
X014878Y024124D01*
X014794Y024208D01*
X014692Y024266D01*
X014579Y024297D01*
X014461D01*
X014348Y024266D01*
X014246Y024208D01*
X014162Y024124D01*
X014104Y024022D01*
X014073Y023909D01*
Y023791D01*
X014104Y023678D01*
X014162Y023576D01*
X014246Y023492D01*
X014348Y023434D01*
X014461Y023403D01*
X014461D01*
X018767Y019097D01*
X018841Y01904D01*
X018928Y019005D01*
X01902Y018993D01*
X0278D01*
X027899Y018916D01*
X027993Y018877D01*
Y018823D01*
X027899Y018784D01*
X027796Y018704D01*
X027716Y018601D01*
X027666Y01848D01*
X027649Y01835D01*
X027666Y01822D01*
X027716Y018099D01*
X027796Y017996D01*
X027899Y017916D01*
X02802Y017866D01*
X02815Y017849D01*
X028446D01*
X028497Y017798D01*
X028474Y01775D01*
X02845Y017753D01*
X02835D01*
Y01735D01*
Y016947D01*
X02845D01*
X028554Y01696D01*
X028652Y017001D01*
X028735Y017065D01*
X028799Y017148D01*
X02884Y017246D01*
X028853Y017345D01*
X028868Y017356D01*
X028901Y017371D01*
X028923Y017355D01*
Y016748D01*
X028935Y016656D01*
X02897Y016569D01*
X029027Y016495D01*
X032375Y013147D01*
X032449Y01309D01*
X032536Y013055D01*
X032628Y013043D01*
X03797D01*
X038063Y013055D01*
X038149Y01309D01*
X038223Y013147D01*
X041431Y016355D01*
X041475Y016329D01*
X041453Y016246D01*
Y016129D01*
X041484Y016015D01*
X041542Y015913D01*
X041543Y015913D01*
Y013198D01*
X041202Y012857D01*
X040188D01*
X040169Y012904D01*
X040198Y012933D01*
X040255Y013032D01*
X040285Y013143D01*
Y01315D01*
X03985D01*
X039415D01*
Y013143D01*
X039445Y013032D01*
X039502Y012933D01*
X039531Y012904D01*
X039512Y012857D01*
X032046D01*
X03184Y013063D01*
Y013542D01*
X030856D01*
Y012558D01*
X031334D01*
X031645Y012247D01*
X031645Y012247D01*
X031719Y01219D01*
X031805Y012155D01*
X031898Y012143D01*
X04135D01*
X041442Y012155D01*
X041529Y01219D01*
X041603Y012247D01*
X042153Y012797D01*
X042153Y012797D01*
X04221Y012871D01*
X042245Y012958D01*
X042257Y01305D01*
Y015913D01*
X042258Y015913D01*
X042316Y016015D01*
X042347Y016129D01*
Y016246D01*
X042316Y01636D01*
X042258Y016462D01*
X042174Y016545D01*
X042072Y016604D01*
X041959Y016634D01*
X041841D01*
X041758Y016612D01*
X041732Y016657D01*
X042648Y017573D01*
X044983D01*
Y0132D01*
X044995Y013108D01*
X04503Y013021D01*
X045087Y012947D01*
X045797Y012237D01*
X045871Y01218D01*
X045957Y012145D01*
X04605Y012133D01*
X04605Y012133D01*
X048488D01*
X04858Y012145D01*
X048666Y01218D01*
X04874Y012237D01*
X049511Y013008D01*
X049562D01*
X049688Y013041D01*
X0498Y013106D01*
X049891Y013198D01*
X049956Y01331D01*
X04999Y013435D01*
Y013565D01*
X049956Y01369D01*
X049891Y013802D01*
X0498Y013894D01*
X049688Y013959D01*
X049562Y013992D01*
X049433D01*
X049308Y013959D01*
X049195Y013894D01*
X049104Y013802D01*
X049039Y01369D01*
X049006Y013565D01*
Y013513D01*
X04834Y012847D01*
X046198D01*
X045697Y013348D01*
Y017015D01*
X045747Y01704D01*
X045798Y017001D01*
X045896Y01696D01*
X046Y016947D01*
X0461D01*
Y01735D01*
Y017753D01*
X046D01*
X045896Y01774D01*
X045798Y017699D01*
X045747Y01766D01*
X045697Y017685D01*
Y017893D01*
X045747Y017918D01*
X045749Y017916D01*
X04587Y017866D01*
X046Y017849D01*
X0463D01*
X04643Y017866D01*
X046551Y017916D01*
X046654Y017996D01*
X046734Y018099D01*
X046749Y018135D01*
X046799Y018125D01*
Y016462D01*
X046799Y016462D01*
X04674Y01636D01*
X046709Y016246D01*
Y016129D01*
X04674Y016015D01*
X046799Y015913D01*
X046811Y0159D01*
Y015371D01*
X046823Y015279D01*
X046859Y015193D01*
X046916Y015119D01*
X047127Y014907D01*
X047127Y014907D01*
X047201Y01485D01*
X047288Y014815D01*
X04738Y014803D01*
X053249D01*
X053349Y014702D01*
X053479Y014627D01*
X053625Y014588D01*
X053775D01*
X053921Y014627D01*
X054051Y014702D01*
X054158Y014809D01*
X054233Y014939D01*
X054272Y015085D01*
Y015235D01*
X054233Y015381D01*
X054158Y015511D01*
X054051Y015618D01*
X053921Y015693D01*
X053775Y015732D01*
X053625D01*
X053479Y015693D01*
X053349Y015618D01*
X053249Y015517D01*
X047528D01*
X047526Y015519D01*
Y015934D01*
X047573Y016015D01*
X047603Y016129D01*
Y016246D01*
X047573Y01636D01*
X047514Y016462D01*
X047514Y016462D01*
Y024824D01*
X047501Y024916D01*
X047466Y025002D01*
X047447Y025027D01*
Y025089D01*
X047416Y025202D01*
X047358Y025304D01*
X047274Y025388D01*
X047172Y025446D01*
X047059Y025477D01*
X046993D01*
X046972Y025527D01*
X047088Y025643D01*
X048412D01*
X049407Y024647D01*
X049481Y02459D01*
X049567Y024555D01*
X04966Y024543D01*
X059966D01*
X060058Y024555D01*
X060144Y02459D01*
X060218Y024647D01*
X060403Y024832D01*
X060403Y024832D01*
X06046Y024906D01*
X060495Y024992D01*
X060507Y025085D01*
Y025453D01*
X060807Y025753D01*
X060853Y025733D01*
Y025203D01*
X062147D01*
Y026197D01*
X061864D01*
X061854Y026247D01*
X061901Y026266D01*
X062004Y026346D01*
X062084Y026449D01*
X062134Y02657D01*
X062151Y0267D01*
X062134Y02683D01*
X062084Y026951D01*
X062004Y027054D01*
X061901Y027134D01*
X061857Y027152D01*
Y027248D01*
X061901Y027266D01*
X062004Y027346D01*
X062084Y027449D01*
X062134Y02757D01*
X062151Y0277D01*
X062134Y02783D01*
X062084Y027951D01*
X062004Y028054D01*
X061901Y028134D01*
X061807Y028173D01*
Y028227D01*
X061901Y028266D01*
X062004Y028346D01*
X062084Y028449D01*
X062134Y02857D01*
X062151Y0287D01*
X062134Y02883D01*
X062084Y028951D01*
X062004Y029054D01*
X061901Y029134D01*
X061807Y029173D01*
Y029227D01*
X061901Y029266D01*
X062Y029343D01*
X064193D01*
Y019598D01*
X063652Y019057D01*
X062522D01*
Y019272D01*
X062255D01*
X062244Y01931D01*
X062244Y019322D01*
X06233Y019408D01*
X062393Y019517D01*
X062425Y019637D01*
Y01965D01*
X06195D01*
X061475D01*
Y019637D01*
X061507Y019517D01*
X06157Y019408D01*
X061656Y019322D01*
X061656Y01931D01*
X061645Y019272D01*
X061378D01*
Y018128D01*
X062522D01*
Y018343D01*
X0638D01*
X063892Y018355D01*
X063979Y01839D01*
X064053Y018447D01*
X064803Y019197D01*
X064816Y019215D01*
X064866Y019198D01*
Y010302D01*
X010252D01*
Y049168D01*
X064866D01*
Y045822D01*
D02*
G37*
G36*
X028726Y035157D02*
X028676Y035147D01*
X028649Y035212D01*
X028585Y035296D01*
X028502Y03536D01*
X028404Y0354D01*
X02835Y035407D01*
Y034861D01*
Y034314D01*
X028404Y034321D01*
X028502Y034361D01*
X028585Y034425D01*
X028649Y034509D01*
X028676Y034574D01*
X028726Y034564D01*
Y032432D01*
X026948Y030653D01*
X0269Y030676D01*
X026903Y0307D01*
X02689Y030804D01*
X026849Y030902D01*
X026785Y030985D01*
X026702Y031049D01*
X026604Y03109D01*
X0265Y031103D01*
X0264D01*
Y0307D01*
X0263D01*
Y031103D01*
X0262D01*
X026096Y03109D01*
X025998Y031049D01*
X025947Y03101D01*
X025897Y031035D01*
Y031365D01*
X025947Y03139D01*
X025998Y031351D01*
X026096Y03131D01*
X0262Y031297D01*
X0263D01*
Y0317D01*
Y032103D01*
X02622D01*
X026198Y032153D01*
X027553Y033507D01*
X02761Y033581D01*
X027645Y033668D01*
X027657Y03376D01*
Y03436D01*
X027734Y03446D01*
X027784Y034581D01*
X027801Y034711D01*
Y035011D01*
X027784Y03514D01*
X027734Y035261D01*
X027654Y035365D01*
X027551Y035445D01*
X02743Y035495D01*
X0273Y035512D01*
X02717Y035495D01*
X027049Y035445D01*
X026946Y035365D01*
X026866Y035261D01*
X026827Y035167D01*
X026773D01*
X026734Y035261D01*
X026654Y035365D01*
X026551Y035445D01*
X02643Y035495D01*
X0263Y035512D01*
X02617Y035495D01*
X026049Y035445D01*
X025946Y035365D01*
X025866Y035261D01*
X025827Y035167D01*
X025773D01*
X025734Y035261D01*
X025654Y035365D01*
X025551Y035445D01*
X02543Y035495D01*
X0253Y035512D01*
X02517Y035495D01*
X025049Y035445D01*
X024946Y035365D01*
X024866Y035261D01*
X024827Y035167D01*
X024773D01*
X024734Y035261D01*
X024654Y035365D01*
X024551Y035445D01*
X02443Y035495D01*
X0243Y035512D01*
X02417Y035495D01*
X024049Y035445D01*
X023946Y035365D01*
X023866Y035261D01*
X023827Y035167D01*
X023773D01*
X023734Y035261D01*
X023657Y035361D01*
Y036043D01*
X028726D01*
Y035157D01*
D02*
G37*
G36*
X064193Y034967D02*
Y030057D01*
X062D01*
X061901Y030134D01*
X06178Y030184D01*
X06165Y030201D01*
X06135D01*
X06122Y030184D01*
X061099Y030134D01*
X060996Y030054D01*
X060916Y029951D01*
X060866Y02983D01*
X060849Y0297D01*
X060866Y02957D01*
X060916Y029449D01*
X060996Y029346D01*
X061099Y029266D01*
X061193Y029227D01*
Y029173D01*
X061099Y029134D01*
X060996Y029054D01*
X060916Y028951D01*
X060866Y02883D01*
X060849Y0287D01*
X060866Y02857D01*
X060916Y028449D01*
X060996Y028346D01*
X061099Y028266D01*
X061193Y028227D01*
Y028173D01*
X061099Y028134D01*
X060996Y028054D01*
X060916Y027951D01*
X060866Y02783D01*
X060849Y0277D01*
X060866Y02757D01*
X060916Y027449D01*
X060996Y027346D01*
X061099Y027266D01*
X061143Y027248D01*
Y027152D01*
X061099Y027134D01*
X060996Y027054D01*
X060916Y026951D01*
X060866Y02683D01*
X060861Y026794D01*
X060751Y026684D01*
X06074Y026679D01*
X060666Y026622D01*
X060666Y026622D01*
X059897Y025854D01*
X05984Y02578D01*
X059805Y025694D01*
X059793Y025601D01*
Y025257D01*
X058971D01*
X058955Y025307D01*
X059004Y025346D01*
X059084Y025449D01*
X059134Y02557D01*
X059151Y0257D01*
X059134Y02583D01*
X059084Y025951D01*
X059004Y026054D01*
X058901Y026134D01*
X058807Y026173D01*
Y026227D01*
X058901Y026266D01*
X059004Y026346D01*
X059084Y026449D01*
X059134Y02657D01*
X059151Y0267D01*
X059134Y02683D01*
X059084Y026951D01*
X059004Y027054D01*
X058901Y027134D01*
X058807Y027173D01*
Y027227D01*
X058901Y027266D01*
X059004Y027346D01*
X059084Y027449D01*
X059134Y02757D01*
X059151Y0277D01*
X059134Y02783D01*
X059084Y027951D01*
X059004Y028054D01*
X058901Y028134D01*
X058807Y028173D01*
Y028227D01*
X058901Y028266D01*
X059004Y028346D01*
X059084Y028449D01*
X059134Y02857D01*
X059151Y0287D01*
X059134Y02883D01*
X059084Y028951D01*
X059004Y029054D01*
X058901Y029134D01*
X05878Y029184D01*
X05865Y029201D01*
X05835D01*
X05822Y029184D01*
X058099Y029134D01*
X057996Y029054D01*
X057916Y028951D01*
X057866Y02883D01*
X057849Y0287D01*
X057866Y02857D01*
X057916Y028449D01*
X057996Y028346D01*
X058099Y028266D01*
X058193Y028227D01*
Y028173D01*
X058099Y028134D01*
X057996Y028054D01*
X057916Y027951D01*
X057866Y02783D01*
X057849Y0277D01*
X057866Y02757D01*
X057916Y027449D01*
X057996Y027346D01*
X058099Y027266D01*
X058193Y027227D01*
Y027173D01*
X058099Y027134D01*
X057996Y027054D01*
X057916Y026951D01*
X057866Y02683D01*
X057849Y0267D01*
X057866Y02657D01*
X057916Y026449D01*
X057996Y026346D01*
X058099Y026266D01*
X058193Y026227D01*
Y026173D01*
X058099Y026134D01*
X057996Y026054D01*
X057916Y025951D01*
X057866Y02583D01*
X057849Y0257D01*
X057866Y02557D01*
X057916Y025449D01*
X057996Y025346D01*
X058046Y025307D01*
X058029Y025257D01*
X054267D01*
Y0267D01*
X054255Y026793D01*
X05422Y026879D01*
X054163Y026953D01*
X054089Y02701D01*
X054002Y027045D01*
X05391Y027057D01*
X0536D01*
X053501Y027134D01*
X053457Y027152D01*
Y027248D01*
X053501Y027266D01*
X053604Y027346D01*
X053684Y027449D01*
X053734Y02757D01*
X053751Y0277D01*
X053734Y02783D01*
X053684Y027951D01*
X053604Y028054D01*
X053501Y028134D01*
X053407Y028173D01*
Y028227D01*
X053501Y028266D01*
X053604Y028346D01*
X053684Y028449D01*
X053734Y02857D01*
X053751Y0287D01*
X053734Y02883D01*
X053684Y028951D01*
X053604Y029054D01*
X053501Y029134D01*
X053407Y029173D01*
Y029227D01*
X053501Y029266D01*
X053604Y029346D01*
X053684Y029449D01*
X053734Y02957D01*
X05375Y029695D01*
X05583Y031774D01*
X055886Y031848D01*
X055922Y031934D01*
X055934Y032027D01*
X055934Y032027D01*
Y034214D01*
X056043D01*
Y032D01*
X056055Y031907D01*
X05609Y031821D01*
X056147Y031747D01*
X057447Y030447D01*
X057521Y03039D01*
X057607Y030355D01*
X0577Y030343D01*
X0577Y030343D01*
X058D01*
X058099Y030266D01*
X05822Y030216D01*
X05835Y030199D01*
X05865D01*
X05878Y030216D01*
X058901Y030266D01*
X059004Y030346D01*
X059084Y030449D01*
X059134Y03057D01*
X059151Y0307D01*
X059134Y03083D01*
X059084Y030951D01*
X059004Y031054D01*
X058901Y031134D01*
X058807Y031173D01*
Y031227D01*
X058901Y031266D01*
X059004Y031346D01*
X059084Y031449D01*
X059134Y03157D01*
X059151Y0317D01*
X059134Y03183D01*
X059084Y031951D01*
X059004Y032054D01*
X058901Y032134D01*
X05878Y032184D01*
X05865Y032201D01*
X05835D01*
X05822Y032184D01*
X058099Y032134D01*
X058084Y032122D01*
X057757Y032448D01*
Y03436D01*
X057834Y03446D01*
X057873Y034554D01*
X057927D01*
X057966Y03446D01*
X058046Y034356D01*
X058149Y034277D01*
X05827Y034226D01*
X0584Y034209D01*
X05853Y034226D01*
X058651Y034277D01*
X058754Y034356D01*
X058834Y03446D01*
X058873Y034554D01*
X058927D01*
X058966Y03446D01*
X059046Y034356D01*
X059149Y034277D01*
X05927Y034226D01*
X0594Y034209D01*
X05953Y034226D01*
X059651Y034277D01*
X059754Y034356D01*
X059834Y03446D01*
X059873Y034554D01*
X059927D01*
X059966Y03446D01*
X060046Y034356D01*
X060149Y034277D01*
X06027Y034226D01*
X0604Y034209D01*
X06053Y034226D01*
X060651Y034277D01*
X060754Y034356D01*
X060834Y03446D01*
X060873Y034554D01*
X060927D01*
X060966Y03446D01*
X061046Y034356D01*
X061149Y034277D01*
X06127Y034226D01*
X0614Y034209D01*
X06153Y034226D01*
X061651Y034277D01*
X061754Y034356D01*
X061834Y03446D01*
X061873Y034554D01*
X061927D01*
X061966Y03446D01*
X062046Y034356D01*
X062149Y034277D01*
X06227Y034226D01*
X0624Y034209D01*
X06253Y034226D01*
X062651Y034277D01*
X062754Y034356D01*
X062834Y03446D01*
X062884Y034581D01*
X062901Y034711D01*
Y035011D01*
X062884Y03514D01*
X062834Y035261D01*
X062754Y035365D01*
X062651Y035445D01*
X06253Y035495D01*
X0624Y035512D01*
X06227Y035495D01*
X062149Y035445D01*
X062046Y035365D01*
X061966Y035261D01*
X061927Y035167D01*
X061873D01*
X061834Y035261D01*
X061754Y035365D01*
X061651Y035445D01*
X06153Y035495D01*
X0614Y035512D01*
X06127Y035495D01*
X061149Y035445D01*
X061046Y035365D01*
X060966Y035261D01*
X060927Y035167D01*
X060873D01*
X060834Y035261D01*
X060754Y035365D01*
X060651Y035445D01*
X06053Y035495D01*
X0604Y035512D01*
X06027Y035495D01*
X060149Y035445D01*
X060046Y035365D01*
X059966Y035261D01*
X059927Y035167D01*
X059873D01*
X059834Y035261D01*
X059754Y035365D01*
X059651Y035445D01*
X05953Y035495D01*
X0594Y035512D01*
X05927Y035495D01*
X059149Y035445D01*
X059046Y035365D01*
X058966Y035261D01*
X058927Y035167D01*
X058873D01*
X058834Y035261D01*
X058757Y035361D01*
Y036043D01*
X063117D01*
X064193Y034967D01*
D02*
G37*
G36*
X042566Y03446D02*
X042646Y034356D01*
X042749Y034277D01*
X04287Y034226D01*
X043Y034209D01*
X04313Y034226D01*
X043251Y034277D01*
X043354Y034356D01*
X043434Y03446D01*
X043473Y034554D01*
X043527D01*
X043566Y03446D01*
X043643Y03436D01*
Y033618D01*
X042397Y032373D01*
X04234Y032299D01*
X042305Y032213D01*
X042293Y03212D01*
Y029498D01*
X041852Y029057D01*
X04165D01*
X041551Y029134D01*
X04143Y029184D01*
X0413Y029201D01*
X041D01*
X04087Y029184D01*
X040749Y029134D01*
X040646Y029054D01*
X040566Y028951D01*
X040516Y02883D01*
X040499Y0287D01*
X040516Y02857D01*
X040566Y028449D01*
X040646Y028346D01*
X040749Y028266D01*
X040843Y028227D01*
Y028173D01*
X040749Y028134D01*
X040646Y028054D01*
X040566Y027951D01*
X040516Y02783D01*
X040499Y0277D01*
X040516Y02757D01*
X040566Y027449D01*
X040646Y027346D01*
X040749Y027266D01*
X040843Y027227D01*
Y027173D01*
X040749Y027134D01*
X040646Y027054D01*
X040566Y026951D01*
X040516Y02683D01*
X040499Y0267D01*
X040516Y02657D01*
X040566Y026449D01*
X040646Y026346D01*
X040749Y026266D01*
X040843Y026227D01*
Y026173D01*
X040749Y026134D01*
X040646Y026054D01*
X040566Y025951D01*
X040516Y02583D01*
X040499Y0257D01*
X040516Y02557D01*
X040566Y025449D01*
X040646Y025346D01*
X040749Y025266D01*
X04087Y025216D01*
X041Y025199D01*
X0413D01*
X04143Y025216D01*
X041551Y025266D01*
X041654Y025346D01*
X041734Y025449D01*
X041784Y02557D01*
X041801Y0257D01*
X041784Y02583D01*
X041734Y025951D01*
X041654Y026054D01*
X041551Y026134D01*
X041457Y026173D01*
Y026227D01*
X041551Y026266D01*
X041654Y026346D01*
X041734Y026449D01*
X041784Y02657D01*
X041801Y0267D01*
X041784Y02683D01*
X041734Y026951D01*
X041654Y027054D01*
X041551Y027134D01*
X041457Y027173D01*
Y027227D01*
X041551Y027266D01*
X041654Y027346D01*
X041734Y027449D01*
X041784Y02757D01*
X041801Y0277D01*
X041784Y02783D01*
X041734Y027951D01*
X041654Y028054D01*
X041551Y028134D01*
X041457Y028173D01*
Y028227D01*
X041551Y028266D01*
X04165Y028343D01*
X042D01*
X042092Y028355D01*
X042179Y02839D01*
X042253Y028447D01*
X042903Y029097D01*
X042933Y029136D01*
X042983Y029119D01*
Y026D01*
X042995Y025907D01*
X04303Y025821D01*
X043087Y025747D01*
X043387Y025447D01*
X043461Y02539D01*
X043503Y025373D01*
Y025203D01*
X044703D01*
Y023435D01*
X044702Y023434D01*
X044644Y023332D01*
X044613Y023219D01*
Y023101D01*
X044644Y022988D01*
X044702Y022886D01*
X044786Y022802D01*
X044864Y022757D01*
X04485Y022707D01*
X04D01*
X039908Y022695D01*
X039821Y02266D01*
X039747Y022603D01*
X038477Y021333D01*
X03842Y021259D01*
X038385Y021172D01*
X038373Y02108D01*
Y017495D01*
X038324Y017482D01*
X038308Y017511D01*
X038201Y017618D01*
X038071Y017693D01*
X037925Y017732D01*
X037784D01*
X037447Y018068D01*
Y029505D01*
X038488Y030683D01*
X038508Y030713D01*
X03853Y030741D01*
X038534Y030752D01*
X03854Y030761D01*
X038552Y030795D01*
X038565Y030828D01*
X038567Y030839D01*
X03857Y030849D01*
X038573Y030885D01*
X038577Y03092D01*
Y034214D01*
X038643D01*
Y0317D01*
X038655Y031607D01*
X03869Y031521D01*
X038747Y031447D01*
X039747Y030447D01*
X039747Y030447D01*
X039821Y03039D01*
X039908Y030355D01*
X04Y030343D01*
X04Y030343D01*
X04065D01*
X040749Y030266D01*
X04087Y030216D01*
X041Y030199D01*
X0413D01*
X04143Y030216D01*
X041551Y030266D01*
X041654Y030346D01*
X041734Y030449D01*
X041784Y03057D01*
X041801Y0307D01*
X041784Y03083D01*
X041734Y030951D01*
X041654Y031054D01*
X041551Y031134D01*
X041457Y031173D01*
Y031227D01*
X041551Y031266D01*
X041654Y031346D01*
X041734Y031449D01*
X041784Y03157D01*
X041801Y0317D01*
X041784Y03183D01*
X041734Y031951D01*
X041654Y032054D01*
X041551Y032134D01*
X04143Y032184D01*
X0413Y032201D01*
X041D01*
X04087Y032184D01*
X040749Y032134D01*
X04065Y032057D01*
X040648D01*
X040357Y032348D01*
Y03436D01*
X040434Y03446D01*
X040473Y034554D01*
X040527D01*
X040566Y03446D01*
X040646Y034356D01*
X040749Y034277D01*
X04087Y034226D01*
X041Y034209D01*
X04113Y034226D01*
X041251Y034277D01*
X041354Y034356D01*
X041434Y03446D01*
X041473Y034554D01*
X041527D01*
X041566Y03446D01*
X041646Y034356D01*
X041749Y034277D01*
X04187Y034226D01*
X042Y034209D01*
X04213Y034226D01*
X042251Y034277D01*
X042354Y034356D01*
X042434Y03446D01*
X042473Y034554D01*
X042527D01*
X042566Y03446D01*
D02*
G37*
G36*
X037863Y031055D02*
X036982Y030057D01*
X0358D01*
X035701Y030134D01*
X03558Y030184D01*
X03545Y030201D01*
X03515D01*
X03502Y030184D01*
X034899Y030134D01*
X034807Y030063D01*
X034757Y03008D01*
Y030476D01*
X034772Y030483D01*
X034807Y030489D01*
X034865Y030415D01*
X034948Y030351D01*
X035046Y03031D01*
X03515Y030297D01*
X03525D01*
Y0307D01*
Y031103D01*
X03515D01*
X035046Y03109D01*
X034948Y031049D01*
X034865Y030985D01*
X034807Y030911D01*
X034772Y030917D01*
X034757Y030924D01*
Y031476D01*
X034772Y031483D01*
X034807Y031489D01*
X034865Y031415D01*
X034948Y031351D01*
X035046Y03131D01*
X03515Y031297D01*
X03525D01*
Y0317D01*
Y032103D01*
X03515D01*
X035046Y03209D01*
X034948Y032049D01*
X034865Y031985D01*
X034807Y031911D01*
X034772Y031917D01*
X034757Y031924D01*
Y032972D01*
X035503Y033717D01*
X035503Y033717D01*
X03556Y033791D01*
X035595Y033877D01*
X035607Y03397D01*
X035607Y03397D01*
Y03436D01*
X035684Y03446D01*
X035723Y034554D01*
X035777D01*
X035816Y03446D01*
X035896Y034356D01*
X035999Y034277D01*
X03612Y034226D01*
X03625Y034209D01*
X03638Y034226D01*
X036501Y034277D01*
X036604Y034356D01*
X036684Y03446D01*
X036734Y034581D01*
X036751Y034711D01*
Y035011D01*
X036734Y03514D01*
X036684Y035261D01*
X036604Y035365D01*
X036501Y035445D01*
X03638Y035495D01*
X03625Y035512D01*
X03612Y035495D01*
X035999Y035445D01*
X035896Y035365D01*
X035816Y035261D01*
X035777Y035167D01*
X035723D01*
X035684Y035261D01*
X035604Y035365D01*
X035501Y035445D01*
X03538Y035495D01*
X03525Y035512D01*
X03512Y035495D01*
X034999Y035445D01*
X034896Y035365D01*
X034816Y035261D01*
X034777Y035167D01*
X034723D01*
X034684Y035261D01*
X034604Y035365D01*
X034501Y035445D01*
X03438Y035495D01*
X03425Y035512D01*
X03412Y035495D01*
X033999Y035445D01*
X033896Y035365D01*
X033816Y035261D01*
X033777Y035167D01*
X033723D01*
X033684Y035261D01*
X033604Y035365D01*
X033501Y035445D01*
X03338Y035495D01*
X03325Y035512D01*
X03312Y035495D01*
X032999Y035445D01*
X032896Y035365D01*
X032816Y035261D01*
X032777Y035167D01*
X032723D01*
X032684Y035261D01*
X032607Y035361D01*
Y036043D01*
X037863D01*
Y031055D01*
D02*
G37*
G36*
X024866Y03446D02*
X024946Y034356D01*
X025049Y034277D01*
X02517Y034226D01*
X025203Y034222D01*
X025219Y034175D01*
X024497Y033453D01*
X02444Y033379D01*
X024405Y033293D01*
X024393Y0332D01*
Y029548D01*
X023902Y029057D01*
X02385D01*
X023751Y029134D01*
X02363Y029184D01*
X0235Y029201D01*
X0232D01*
X02307Y029184D01*
X022949Y029134D01*
X022846Y029054D01*
X022766Y028951D01*
X022716Y02883D01*
X022699Y0287D01*
X022716Y02857D01*
X022766Y028449D01*
X022846Y028346D01*
X022949Y028266D01*
X023043Y028227D01*
Y028173D01*
X022949Y028134D01*
X022846Y028054D01*
X022766Y027951D01*
X022716Y02783D01*
X022699Y0277D01*
X022716Y02757D01*
X022766Y027449D01*
X022846Y027346D01*
X022949Y027266D01*
X023043Y027227D01*
Y027173D01*
X022949Y027134D01*
X022846Y027054D01*
X022766Y026951D01*
X022716Y02683D01*
X022699Y0267D01*
X022716Y02657D01*
X022766Y026449D01*
X022846Y026346D01*
X022949Y026266D01*
X023043Y026227D01*
Y026173D01*
X022949Y026134D01*
X022846Y026054D01*
X022766Y025951D01*
X022716Y02583D01*
X022699Y0257D01*
X022716Y02557D01*
X022766Y025449D01*
X022772Y025442D01*
X022749Y025397D01*
X018197D01*
Y026197D01*
X017914D01*
X017904Y026247D01*
X017951Y026266D01*
X018054Y026346D01*
X018134Y026449D01*
X018184Y02657D01*
X018201Y0267D01*
X018184Y02683D01*
X018134Y026951D01*
X018054Y027054D01*
X017951Y027134D01*
X017907Y027152D01*
Y027248D01*
X017951Y027266D01*
X018054Y027346D01*
X018134Y027449D01*
X018184Y02757D01*
X018201Y0277D01*
X018184Y02783D01*
X018134Y027951D01*
X018054Y028054D01*
X017951Y028134D01*
X017857Y028173D01*
Y028227D01*
X017951Y028266D01*
X018054Y028346D01*
X018134Y028449D01*
X018184Y02857D01*
X018201Y0287D01*
X018184Y02883D01*
X018134Y028951D01*
X018054Y029054D01*
X017951Y029134D01*
X017857Y029173D01*
Y029227D01*
X017951Y029266D01*
X01805Y029343D01*
X01915D01*
X019243Y029355D01*
X019329Y02939D01*
X019403Y029447D01*
X020703Y030747D01*
X02076Y030821D01*
X020795Y030907D01*
X020807Y031D01*
X020807Y031D01*
Y034214D01*
X021797D01*
Y034496D01*
X021847Y034506D01*
X021866Y03446D01*
X021943Y03436D01*
Y032D01*
X021955Y031907D01*
X02199Y031821D01*
X022047Y031747D01*
X022347Y031447D01*
X022421Y03139D01*
X022508Y031355D01*
X0226Y031343D01*
X02285D01*
X022949Y031266D01*
X023043Y031227D01*
Y031173D01*
X022949Y031134D01*
X022846Y031054D01*
X022766Y030951D01*
X022716Y03083D01*
X022699Y0307D01*
X022716Y03057D01*
X022766Y030449D01*
X022846Y030346D01*
X022949Y030266D01*
X02307Y030216D01*
X0232Y030199D01*
X0235D01*
X02363Y030216D01*
X023751Y030266D01*
X023854Y030346D01*
X023934Y030449D01*
X023984Y03057D01*
X024001Y0307D01*
X023984Y03083D01*
X023934Y030951D01*
X023854Y031054D01*
X023751Y031134D01*
X023657Y031173D01*
Y031227D01*
X023751Y031266D01*
X023854Y031346D01*
X023934Y031449D01*
X023984Y03157D01*
X024001Y0317D01*
X023984Y03183D01*
X023934Y031951D01*
X023854Y032054D01*
X023751Y032134D01*
X02363Y032184D01*
X0235Y032201D01*
X0232D01*
X02307Y032184D01*
X022949Y032134D01*
X02285Y032057D01*
X022748D01*
X022657Y032148D01*
Y03436D01*
X022734Y03446D01*
X022773Y034554D01*
X022827D01*
X022866Y03446D01*
X022946Y034356D01*
X023049Y034277D01*
X02317Y034226D01*
X0233Y034209D01*
X02343Y034226D01*
X023551Y034277D01*
X023654Y034356D01*
X023734Y03446D01*
X023773Y034554D01*
X023827D01*
X023866Y03446D01*
X023946Y034356D01*
X024049Y034277D01*
X02417Y034226D01*
X0243Y034209D01*
X02443Y034226D01*
X024551Y034277D01*
X024654Y034356D01*
X024734Y03446D01*
X024773Y034554D01*
X024827D01*
X024866Y03446D01*
D02*
G37*
G36*
X055219Y032175D02*
X053698Y030653D01*
X05365Y030676D01*
X053653Y0307D01*
X05364Y030804D01*
X053599Y030902D01*
X053535Y030985D01*
X053452Y031049D01*
X053354Y03109D01*
X05325Y031103D01*
X05315D01*
Y0307D01*
X05305D01*
Y031103D01*
X05295D01*
X052846Y03109D01*
X052748Y031049D01*
X052697Y03101D01*
X052647Y031035D01*
Y031365D01*
X052697Y03139D01*
X052748Y031351D01*
X052846Y03131D01*
X05295Y031297D01*
X05305D01*
Y0317D01*
Y032103D01*
X05295D01*
X052846Y03209D01*
X052748Y032049D01*
X052697Y03201D01*
X052647Y032035D01*
Y032348D01*
X054003Y033703D01*
X05406Y033777D01*
X054095Y033863D01*
X054107Y033956D01*
Y03436D01*
X054184Y03446D01*
X054234Y034581D01*
X054251Y034711D01*
Y035011D01*
X054234Y03514D01*
X054184Y035261D01*
X054104Y035365D01*
X054001Y035445D01*
X05388Y035495D01*
X05375Y035512D01*
X05362Y035495D01*
X053499Y035445D01*
X053396Y035365D01*
X053316Y035261D01*
X053277Y035167D01*
X053223D01*
X053184Y035261D01*
X053104Y035365D01*
X053001Y035445D01*
X05288Y035495D01*
X05275Y035512D01*
X05262Y035495D01*
X052499Y035445D01*
X052396Y035365D01*
X052316Y035261D01*
X052277Y035167D01*
X052223D01*
X052184Y035261D01*
X052104Y035365D01*
X052001Y035445D01*
X05188Y035495D01*
X05175Y035512D01*
X05162Y035495D01*
X051499Y035445D01*
X051396Y035365D01*
X051316Y035261D01*
X051277Y035167D01*
X051223D01*
X051184Y035261D01*
X051104Y035365D01*
X051001Y035445D01*
X05088Y035495D01*
X05075Y035512D01*
X05062Y035495D01*
X050499Y035445D01*
X050396Y035365D01*
X050316Y035261D01*
X050277Y035167D01*
X050223D01*
X050184Y035261D01*
X050107Y035361D01*
Y036043D01*
X055219D01*
Y032175D01*
D02*
G37*
G36*
X046493Y032398D02*
X044748Y030653D01*
X0447Y030676D01*
X044703Y0307D01*
X04469Y030804D01*
X044649Y030902D01*
X044585Y030985D01*
X044502Y031049D01*
X044404Y03109D01*
X0443Y031103D01*
X0442D01*
Y0307D01*
X0441D01*
Y031103D01*
X044D01*
X043896Y03109D01*
X043798Y031049D01*
X043747Y03101D01*
X043697Y031035D01*
Y031365D01*
X043747Y03139D01*
X043798Y031351D01*
X043896Y03131D01*
X044Y031297D01*
X0441D01*
Y0317D01*
Y032103D01*
X04402D01*
X043998Y032153D01*
X045253Y033407D01*
X045253Y033407D01*
X04531Y033481D01*
X045345Y033568D01*
X045357Y03366D01*
X045357Y03366D01*
Y03436D01*
X045434Y03446D01*
X045484Y034581D01*
X045501Y034711D01*
Y035011D01*
X045484Y03514D01*
X045434Y035261D01*
X045354Y035365D01*
X045251Y035445D01*
X04513Y035495D01*
X045Y035512D01*
X04487Y035495D01*
X044749Y035445D01*
X044646Y035365D01*
X044566Y035261D01*
X044527Y035167D01*
X044473D01*
X044434Y035261D01*
X044354Y035365D01*
X044251Y035445D01*
X04413Y035495D01*
X044Y035512D01*
X04387Y035495D01*
X043749Y035445D01*
X043646Y035365D01*
X043566Y035261D01*
X043527Y035167D01*
X043473D01*
X043434Y035261D01*
X043354Y035365D01*
X043251Y035445D01*
X04313Y035495D01*
X043Y035512D01*
X04287Y035495D01*
X042749Y035445D01*
X042646Y035365D01*
X042566Y035261D01*
X042527Y035167D01*
X042473D01*
X042434Y035261D01*
X042354Y035365D01*
X042251Y035445D01*
X04213Y035495D01*
X042Y035512D01*
X04187Y035495D01*
X041749Y035445D01*
X041646Y035365D01*
X041566Y035261D01*
X041527Y035167D01*
X041473D01*
X041434Y035261D01*
X041357Y035361D01*
Y036043D01*
X046493D01*
Y032398D01*
D02*
G37*
G36*
X020093Y031148D02*
X019002Y030057D01*
X01805D01*
X017951Y030134D01*
X01783Y030184D01*
X0177Y030201D01*
X0174D01*
X01727Y030184D01*
X017149Y030134D01*
X017142Y030128D01*
X017097Y030151D01*
Y030365D01*
X017147Y03039D01*
X017198Y030351D01*
X017296Y03031D01*
X0174Y030297D01*
X0175D01*
Y0307D01*
Y031103D01*
X0174D01*
X017296Y03109D01*
X017198Y031049D01*
X017147Y03101D01*
X017097Y031035D01*
Y031365D01*
X017147Y03139D01*
X017198Y031351D01*
X017296Y03131D01*
X0174Y031297D01*
X0175D01*
Y0317D01*
Y032103D01*
X0174D01*
X017296Y03209D01*
X017198Y032049D01*
X017147Y03201D01*
X017097Y032035D01*
Y032607D01*
X018598Y034108D01*
X018655Y034182D01*
X018691Y034268D01*
X018696Y034312D01*
X018754Y034356D01*
X018834Y03446D01*
X018884Y034581D01*
X018901Y034711D01*
Y035011D01*
X018884Y03514D01*
X018834Y035261D01*
X018754Y035365D01*
X018651Y035445D01*
X01853Y035495D01*
X0184Y035512D01*
X01827Y035495D01*
X018149Y035445D01*
X018046Y035365D01*
X017966Y035261D01*
X017927Y035167D01*
X017873D01*
X017834Y035261D01*
X017754Y035365D01*
X017651Y035445D01*
X01753Y035495D01*
X0174Y035512D01*
X01727Y035495D01*
X017149Y035445D01*
X017046Y035365D01*
X016966Y035261D01*
X016927Y035167D01*
X016873D01*
X016834Y035261D01*
X016754Y035365D01*
X016651Y035445D01*
X01653Y035495D01*
X0164Y035512D01*
X01627Y035495D01*
X016149Y035445D01*
X016046Y035365D01*
X015966Y035261D01*
X015927Y035167D01*
X015873D01*
X015834Y035261D01*
X015754Y035365D01*
X015651Y035445D01*
X01553Y035495D01*
X0154Y035512D01*
X01527Y035495D01*
X015149Y035445D01*
X015046Y035365D01*
X014966Y035261D01*
X014927Y035167D01*
X014873D01*
X014834Y035261D01*
X014757Y035361D01*
Y036043D01*
X020093D01*
Y031148D01*
D02*
G37*
G36*
X030816Y03446D02*
X030893Y03436D01*
Y03195D01*
X030905Y031858D01*
X03094Y031771D01*
X030997Y031697D01*
X031247Y031447D01*
X031247Y031447D01*
X031321Y03139D01*
X031407Y031355D01*
X0315Y031343D01*
X0318D01*
X031899Y031266D01*
X031993Y031227D01*
Y031173D01*
X031899Y031134D01*
X031796Y031054D01*
X031716Y030951D01*
X031666Y03083D01*
X031649Y0307D01*
X031666Y03057D01*
X031716Y030449D01*
X031796Y030346D01*
X031899Y030266D01*
X03202Y030216D01*
X03215Y030199D01*
X03245D01*
X03258Y030216D01*
X032701Y030266D01*
X032708Y030272D01*
X032753Y030249D01*
Y030035D01*
X032703Y03001D01*
X032652Y030049D01*
X032554Y03009D01*
X03245Y030103D01*
X03235D01*
Y0297D01*
Y029297D01*
X03245D01*
X032554Y02931D01*
X032652Y029351D01*
X032703Y02939D01*
X032753Y029365D01*
Y029151D01*
X032708Y029128D01*
X032701Y029134D01*
X03258Y029184D01*
X03245Y029201D01*
X03215D01*
X03202Y029184D01*
X031899Y029134D01*
X031796Y029054D01*
X031716Y028951D01*
X031666Y02883D01*
X031649Y0287D01*
X031666Y02857D01*
X031716Y028449D01*
X031796Y028346D01*
X031899Y028266D01*
X031993Y028227D01*
Y028173D01*
X031899Y028134D01*
X031796Y028054D01*
X031716Y027951D01*
X031666Y02783D01*
X031649Y0277D01*
X031666Y02757D01*
X031716Y027449D01*
X031796Y027346D01*
X031899Y027266D01*
X031993Y027227D01*
Y027173D01*
X031899Y027134D01*
X031796Y027054D01*
X031716Y026951D01*
X031666Y02683D01*
X031649Y0267D01*
X031666Y02657D01*
X031716Y026449D01*
X031796Y026346D01*
X031899Y026266D01*
X031993Y026227D01*
Y026173D01*
X031899Y026134D01*
X031796Y026054D01*
X031716Y025951D01*
X031666Y02583D01*
X031649Y0257D01*
X031666Y02557D01*
X031716Y025449D01*
X031796Y025346D01*
X031899Y025266D01*
X03202Y025216D01*
X03215Y025199D01*
X03245D01*
X03258Y025216D01*
X032701Y025266D01*
X032708Y025272D01*
X032753Y025249D01*
Y017128D01*
X032611Y016987D01*
X032611D01*
X032498Y016956D01*
X032396Y016898D01*
X032312Y016814D01*
X032254Y016712D01*
X032223Y016599D01*
Y016481D01*
X032254Y016368D01*
X032312Y016266D01*
X032396Y016182D01*
X032498Y016124D01*
X032611Y016093D01*
X032729D01*
X032842Y016124D01*
X032944Y016182D01*
X033028Y016266D01*
X033086Y016368D01*
X033117Y016481D01*
Y016481D01*
X033363Y016727D01*
X03342Y016801D01*
X033455Y016888D01*
X033467Y01698D01*
Y026165D01*
X033505Y026177D01*
X033517Y026177D01*
X034247Y025447D01*
X034321Y02539D01*
X034407Y025355D01*
X0345Y025343D01*
X034653D01*
Y025203D01*
X035947D01*
Y025733D01*
X035993Y025753D01*
X036053Y025692D01*
Y018573D01*
X036053Y018573D01*
X035994Y018471D01*
X035964Y018357D01*
Y018239D01*
X035994Y018126D01*
X036053Y018024D01*
X036137Y017941D01*
X036238Y017882D01*
X036352Y017851D01*
X03647D01*
X036583Y017882D01*
X036683Y017939D01*
X036709Y017932D01*
X036718Y017929D01*
X036733Y017918D01*
X036745Y017828D01*
X03678Y017741D01*
X036837Y017667D01*
X037278Y017226D01*
Y017085D01*
X037317Y016939D01*
X037392Y016809D01*
X037499Y016702D01*
X037629Y016627D01*
X037775Y016588D01*
X037925D01*
X038071Y016627D01*
X038201Y016702D01*
X038308Y016809D01*
X038324Y016838D01*
X038373Y016825D01*
Y015495D01*
X038324Y015482D01*
X038308Y015511D01*
X038201Y015618D01*
X038071Y015693D01*
X037925Y015732D01*
X037775D01*
X037629Y015693D01*
X037499Y015618D01*
X037392Y015511D01*
X037317Y015381D01*
X037278Y015235D01*
Y015085D01*
X037317Y014939D01*
X037392Y014809D01*
X037499Y014702D01*
X037629Y014627D01*
X037622Y014577D01*
X03602D01*
X03602Y014577D01*
X033503D01*
X031277Y016803D01*
X031297Y016849D01*
X03145D01*
X03158Y016866D01*
X031701Y016916D01*
X031804Y016996D01*
X031884Y017099D01*
X031934Y01722D01*
X031951Y01735D01*
X031934Y01748D01*
X031884Y017601D01*
X031804Y017704D01*
X031701Y017784D01*
X031607Y017823D01*
Y017877D01*
X031701Y017916D01*
X031804Y017996D01*
X031884Y018099D01*
X031934Y01822D01*
X031951Y01835D01*
X031934Y01848D01*
X031884Y018601D01*
X031804Y018704D01*
X031701Y018784D01*
X031607Y018823D01*
Y018877D01*
X031701Y018916D01*
X031804Y018996D01*
X031884Y019099D01*
X031934Y01922D01*
X031951Y01935D01*
X031934Y01948D01*
X031884Y019601D01*
X031804Y019704D01*
X031701Y019784D01*
X031607Y019823D01*
Y019877D01*
X031701Y019916D01*
X031804Y019996D01*
X031884Y020099D01*
X031934Y02022D01*
X031951Y02035D01*
X031934Y02048D01*
X031884Y020601D01*
X031804Y020704D01*
X031701Y020784D01*
X031607Y020823D01*
Y020877D01*
X031701Y020916D01*
X031804Y020996D01*
X031884Y021099D01*
X031934Y02122D01*
X031951Y02135D01*
X031934Y02148D01*
X031884Y021601D01*
X031804Y021704D01*
X031701Y021784D01*
X031607Y021823D01*
Y021877D01*
X031701Y021916D01*
X031804Y021996D01*
X031884Y022099D01*
X031934Y02222D01*
X031951Y02235D01*
X031934Y02248D01*
X031884Y022601D01*
X031804Y022704D01*
X031701Y022784D01*
X031607Y022823D01*
Y022877D01*
X031701Y022916D01*
X031804Y022996D01*
X031884Y023099D01*
X031934Y02322D01*
X031951Y02335D01*
X031934Y02348D01*
X031884Y023601D01*
X031804Y023704D01*
X031701Y023784D01*
X03158Y023834D01*
X03145Y023851D01*
X03115D01*
X03102Y023834D01*
X030899Y023784D01*
X030796Y023704D01*
X030727Y023615D01*
X030677Y023632D01*
Y03318D01*
X030665Y033273D01*
X03063Y033359D01*
X030573Y033433D01*
X030573Y033433D01*
X029953Y034052D01*
Y034214D01*
X030747D01*
Y034496D01*
X030797Y034506D01*
X030816Y03446D01*
D02*
G37*
G36*
X0484Y032394D02*
X048405Y032357D01*
X04844Y032271D01*
X048497Y032197D01*
X049247Y031447D01*
X049321Y03139D01*
X049408Y031355D01*
X0495Y031343D01*
X0496D01*
X049699Y031266D01*
X049793Y031227D01*
Y031173D01*
X049699Y031134D01*
X049596Y031054D01*
X049516Y030951D01*
X049466Y03083D01*
X049449Y0307D01*
X049466Y03057D01*
X049516Y030449D01*
X049596Y030346D01*
X049699Y030266D01*
X04982Y030216D01*
X04995Y030199D01*
X05025D01*
X05038Y030216D01*
X050501Y030266D01*
X050558Y03031D01*
X050603Y030288D01*
Y02998D01*
X050553Y029963D01*
X050535Y029985D01*
X050452Y030049D01*
X050354Y03009D01*
X05025Y030103D01*
X05015D01*
Y0297D01*
Y029297D01*
X05025D01*
X050354Y02931D01*
X050452Y029351D01*
X050535Y029415D01*
X050553Y029437D01*
X050603Y02942D01*
Y029148D01*
X05055Y029096D01*
X050501Y029134D01*
X05038Y029184D01*
X05025Y029201D01*
X04995D01*
X04982Y029184D01*
X049699Y029134D01*
X049596Y029054D01*
X049516Y028951D01*
X049466Y02883D01*
X049449Y0287D01*
X049466Y02857D01*
X049516Y028449D01*
X049596Y028346D01*
X049699Y028266D01*
X049793Y028227D01*
Y028173D01*
X049699Y028134D01*
X049596Y028054D01*
X049516Y027951D01*
X049466Y02783D01*
X049449Y0277D01*
X049466Y02757D01*
X049516Y027449D01*
X049596Y027346D01*
X049699Y027266D01*
X049793Y027227D01*
Y027173D01*
X049699Y027134D01*
X049596Y027054D01*
X049516Y026951D01*
X049466Y02683D01*
X049449Y0267D01*
X049466Y02657D01*
X049516Y026449D01*
X049596Y026346D01*
X049699Y026266D01*
X049793Y026227D01*
Y026173D01*
X049699Y026134D01*
X049596Y026054D01*
X049516Y025951D01*
X049466Y02583D01*
X049449Y0257D01*
X049451Y025681D01*
X049407Y025659D01*
X048813Y026253D01*
X048739Y02631D01*
X048653Y026345D01*
X04856Y026357D01*
X04694D01*
X04694Y026357D01*
X046848Y026345D01*
X046761Y02631D01*
X046687Y026253D01*
X045897Y025463D01*
X04584Y025389D01*
X045805Y025303D01*
X045793Y02521D01*
Y023847D01*
X045503D01*
Y023386D01*
X045453Y023373D01*
X045418Y023434D01*
X045417Y023435D01*
Y029482D01*
X048347Y032412D01*
X0484Y032394D01*
D02*
G37*
%LPC*%
G36*
X0147Y030103D02*
X0146D01*
Y02975D01*
X015097D01*
X01509Y029804D01*
X015049Y029902D01*
X014985Y029985D01*
X014902Y030049D01*
X014804Y03009D01*
X0147Y030103D01*
D02*
G37*
G36*
X0145D02*
X0144D01*
X014296Y03009D01*
X014198Y030049D01*
X014115Y029985D01*
X014051Y029902D01*
X01401Y029804D01*
X014003Y02975D01*
X0145D01*
Y030103D01*
D02*
G37*
G36*
X015097Y02965D02*
X0146D01*
Y029297D01*
X0147D01*
X014804Y02931D01*
X014902Y029351D01*
X014985Y029415D01*
X015049Y029498D01*
X01509Y029596D01*
X015097Y02965D01*
D02*
G37*
G36*
X0145D02*
X014003D01*
X01401Y029596D01*
X014051Y029498D01*
X014115Y029415D01*
X014198Y029351D01*
X014296Y02931D01*
X0144Y029297D01*
X0145D01*
Y02965D01*
D02*
G37*
G36*
X0147Y029201D02*
X0144D01*
X01427Y029184D01*
X014149Y029134D01*
X014046Y029054D01*
X013966Y028951D01*
X013916Y02883D01*
X013899Y0287D01*
X013916Y02857D01*
X013966Y028449D01*
X014046Y028346D01*
X014149Y028266D01*
X014243Y028227D01*
Y028173D01*
X014149Y028134D01*
X014046Y028054D01*
X013966Y027951D01*
X013916Y02783D01*
X013899Y0277D01*
X013916Y02757D01*
X013966Y027449D01*
X014046Y027346D01*
X014149Y027266D01*
X014243Y027227D01*
Y027173D01*
X014149Y027134D01*
X014046Y027054D01*
X013966Y026951D01*
X013916Y02683D01*
X013899Y0267D01*
X013916Y02657D01*
X013966Y026449D01*
X014046Y026346D01*
X014149Y026266D01*
X014243Y026227D01*
Y026173D01*
X014149Y026134D01*
X014046Y026054D01*
X013966Y025951D01*
X013916Y02583D01*
X013899Y0257D01*
X013916Y02557D01*
X013966Y025449D01*
X014046Y025346D01*
X014149Y025266D01*
X01427Y025216D01*
X0144Y025199D01*
X0147D01*
X01483Y025216D01*
X014951Y025266D01*
X015054Y025346D01*
X015134Y025449D01*
X015184Y02557D01*
X015201Y0257D01*
X015184Y02583D01*
X015134Y025951D01*
X015054Y026054D01*
X014951Y026134D01*
X014857Y026173D01*
Y026227D01*
X014951Y026266D01*
X015054Y026346D01*
X015134Y026449D01*
X015184Y02657D01*
X015201Y0267D01*
X015184Y02683D01*
X015134Y026951D01*
X015054Y027054D01*
X014951Y027134D01*
X014857Y027173D01*
Y027227D01*
X014951Y027266D01*
X015054Y027346D01*
X015134Y027449D01*
X015184Y02757D01*
X015201Y0277D01*
X015184Y02783D01*
X015134Y027951D01*
X015054Y028054D01*
X014951Y028134D01*
X014857Y028173D01*
Y028227D01*
X014951Y028266D01*
X015054Y028346D01*
X015134Y028449D01*
X015184Y02857D01*
X015201Y0287D01*
X015184Y02883D01*
X015134Y028951D01*
X015054Y029054D01*
X014951Y029134D01*
X01483Y029184D01*
X0147Y029201D01*
D02*
G37*
G36*
X048819Y024577D02*
X048701D01*
X048588Y024546D01*
X048486Y024488D01*
X048402Y024404D01*
X048344Y024302D01*
X048313Y024189D01*
Y024071D01*
X048344Y023958D01*
X048402Y023856D01*
X048486Y023772D01*
X048588Y023714D01*
X048598Y023711D01*
X048614Y023663D01*
X048566Y023601D01*
X048516Y02348D01*
X048499Y02335D01*
X048516Y02322D01*
X048566Y023099D01*
X048646Y022996D01*
X048749Y022916D01*
X048843Y022877D01*
Y022823D01*
X048749Y022784D01*
X048646Y022704D01*
X048566Y022601D01*
X048516Y02248D01*
X048499Y02235D01*
X048516Y02222D01*
X048566Y022099D01*
X048646Y021996D01*
X048749Y021916D01*
X04887Y021866D01*
X049Y021849D01*
X0493D01*
X04943Y021866D01*
X049551Y021916D01*
X049558Y021922D01*
X049603Y021899D01*
Y021685D01*
X049553Y02166D01*
X049502Y021699D01*
X049404Y02174D01*
X0493Y021753D01*
X0492D01*
Y02135D01*
Y020947D01*
X0493D01*
X049404Y02096D01*
X049502Y021001D01*
X049553Y02104D01*
X049603Y021015D01*
Y020801D01*
X049558Y020778D01*
X049551Y020784D01*
X04943Y020834D01*
X0493Y020851D01*
X049D01*
X04887Y020834D01*
X048749Y020784D01*
X04865Y020707D01*
X048446D01*
X048353Y020695D01*
X048267Y02066D01*
X048193Y020603D01*
X048193Y020603D01*
X048009Y020418D01*
X047952Y020344D01*
X047916Y020258D01*
X047904Y020166D01*
Y018534D01*
X047916Y018442D01*
X047952Y018356D01*
X048009Y018282D01*
X048193Y018097D01*
X048193Y018097D01*
X048267Y01804D01*
X048353Y018005D01*
X048446Y017993D01*
X04865D01*
X048749Y017916D01*
X048843Y017877D01*
Y017823D01*
X048749Y017784D01*
X048646Y017704D01*
X048566Y017601D01*
X048516Y01748D01*
X048499Y01735D01*
X048516Y01722D01*
X048566Y017099D01*
X048646Y016996D01*
X048749Y016916D01*
X04887Y016866D01*
X049Y016849D01*
X0493D01*
X04943Y016866D01*
X049551Y016916D01*
X04965Y016993D01*
X04996D01*
X050052Y017005D01*
X050139Y01704D01*
X050213Y017097D01*
X05027Y017171D01*
X050305Y017257D01*
X050317Y01735D01*
Y02375D01*
X050305Y023842D01*
X05027Y023929D01*
X050213Y024003D01*
X049833Y024383D01*
X049759Y02444D01*
X049672Y024475D01*
X04958Y024487D01*
X049035D01*
X049034Y024488D01*
X048932Y024546D01*
X048819Y024577D01*
D02*
G37*
G36*
X0491Y021753D02*
X049D01*
X048896Y02174D01*
X048798Y021699D01*
X048715Y021635D01*
X048651Y021552D01*
X04861Y021454D01*
X048603Y0214D01*
X0491D01*
Y021753D01*
D02*
G37*
G36*
X014335Y021885D02*
X01375D01*
Y0213D01*
X014335D01*
Y021885D01*
D02*
G37*
G36*
X01365D02*
X013065D01*
Y0213D01*
X01365D01*
Y021885D01*
D02*
G37*
G36*
X0491Y0213D02*
X048603D01*
X04861Y021246D01*
X048651Y021148D01*
X048715Y021065D01*
X048798Y021001D01*
X048896Y02096D01*
X049Y020947D01*
X0491D01*
Y0213D01*
D02*
G37*
G36*
X014335Y0212D02*
X01375D01*
Y020615D01*
X014335D01*
Y0212D01*
D02*
G37*
G36*
X01365D02*
X013065D01*
Y020615D01*
X01365D01*
Y0212D01*
D02*
G37*
G36*
X062025Y021272D02*
X061875D01*
X061729Y021233D01*
X061599Y021158D01*
X061492Y021051D01*
X061417Y020921D01*
X061378Y020775D01*
Y020625D01*
X061417Y020479D01*
X061492Y020349D01*
X061599Y020242D01*
X061719Y020173D01*
X061725Y020138D01*
X061723Y020117D01*
X061658Y02008D01*
X06157Y019992D01*
X061507Y019883D01*
X061475Y019763D01*
Y01975D01*
X06195D01*
X062425D01*
Y019763D01*
X062393Y019883D01*
X06233Y019992D01*
X062242Y02008D01*
X062177Y020117D01*
X062175Y020138D01*
X062181Y020173D01*
X062301Y020242D01*
X062408Y020349D01*
X062483Y020479D01*
X062522Y020625D01*
Y020775D01*
X062483Y020921D01*
X062408Y021051D01*
X062301Y021158D01*
X062171Y021233D01*
X062025Y021272D01*
D02*
G37*
G36*
X0463Y017753D02*
X0462D01*
Y0174D01*
X046697D01*
X04669Y017454D01*
X046649Y017552D01*
X046585Y017635D01*
X046502Y017699D01*
X046404Y01774D01*
X0463Y017753D01*
D02*
G37*
G36*
X02825D02*
X02815D01*
X028046Y01774D01*
X027948Y017699D01*
X027865Y017635D01*
X027801Y017552D01*
X02776Y017454D01*
X027753Y0174D01*
X02825D01*
Y017753D01*
D02*
G37*
G36*
X046697Y0173D02*
X0462D01*
Y016947D01*
X0463D01*
X046404Y01696D01*
X046502Y017001D01*
X046585Y017065D01*
X046649Y017148D01*
X04669Y017246D01*
X046697Y0173D01*
D02*
G37*
G36*
X02825D02*
X027753D01*
X02776Y017246D01*
X027801Y017148D01*
X027865Y017065D01*
X027948Y017001D01*
X028046Y01696D01*
X02815Y016947D01*
X02825D01*
Y0173D01*
D02*
G37*
G36*
X02222Y017732D02*
X02208D01*
X021945Y017696D01*
X021823Y017626D01*
X021724Y017527D01*
X021654Y017405D01*
X021618Y01727D01*
Y01713D01*
X021654Y016995D01*
X021724Y016873D01*
X021823Y016774D01*
X021945Y016704D01*
X02208Y016668D01*
X02222D01*
X022355Y016704D01*
X022477Y016774D01*
X022576Y016873D01*
X022646Y016995D01*
X022682Y01713D01*
Y01727D01*
X022646Y017405D01*
X022576Y017527D01*
X022477Y017626D01*
X022355Y017696D01*
X02222Y017732D01*
D02*
G37*
G36*
X053775D02*
X053625D01*
X053479Y017693D01*
X053349Y017618D01*
X053242Y017511D01*
X053167Y017381D01*
X053128Y017235D01*
Y017085D01*
X053167Y016939D01*
X053242Y016809D01*
X053349Y016702D01*
X053479Y016627D01*
X053625Y016588D01*
X053775D01*
X053921Y016627D01*
X054051Y016702D01*
X054158Y016809D01*
X054233Y016939D01*
X054272Y017085D01*
Y017235D01*
X054233Y017381D01*
X054158Y017511D01*
X054051Y017618D01*
X053921Y017693D01*
X053775Y017732D01*
D02*
G37*
G36*
X020475Y015972D02*
X020325D01*
X020179Y015933D01*
X020049Y015858D01*
X019942Y015751D01*
X019867Y015621D01*
X019828Y015475D01*
Y015325D01*
X019867Y015179D01*
X019942Y015049D01*
X020049Y014942D01*
X020179Y014867D01*
X020325Y014828D01*
X020475D01*
X020621Y014867D01*
X020751Y014942D01*
X020858Y015049D01*
X020933Y015179D01*
X020972Y015325D01*
Y015475D01*
X020933Y015621D01*
X020858Y015751D01*
X020751Y015858D01*
X020621Y015933D01*
X020475Y015972D01*
D02*
G37*
G36*
X018475D02*
X018325D01*
X018179Y015933D01*
X018049Y015858D01*
X017942Y015751D01*
X017867Y015621D01*
X017828Y015475D01*
Y015325D01*
X017867Y015179D01*
X017942Y015049D01*
X018049Y014942D01*
X018179Y014867D01*
X018325Y014828D01*
X018475D01*
X018621Y014867D01*
X018751Y014942D01*
X018858Y015049D01*
X018933Y015179D01*
X018972Y015325D01*
Y015475D01*
X018933Y015621D01*
X018858Y015751D01*
X018751Y015858D01*
X018621Y015933D01*
X018475Y015972D01*
D02*
G37*
G36*
X039907Y013635D02*
X0399D01*
Y01325D01*
X040285D01*
Y013257D01*
X040255Y013368D01*
X040198Y013467D01*
X040117Y013548D01*
X040018Y013605D01*
X039907Y013635D01*
D02*
G37*
G36*
X022207D02*
X0222D01*
Y01325D01*
X022585D01*
Y013257D01*
X022555Y013368D01*
X022498Y013467D01*
X022417Y013548D01*
X022318Y013605D01*
X022207Y013635D01*
D02*
G37*
G36*
X0398D02*
X039793D01*
X039682Y013605D01*
X039583Y013548D01*
X039502Y013467D01*
X039445Y013368D01*
X039415Y013257D01*
Y01325D01*
X0398D01*
Y013635D01*
D02*
G37*
G36*
X0221D02*
X022093D01*
X021982Y013605D01*
X021883Y013548D01*
X021802Y013467D01*
X021745Y013368D01*
X021715Y013257D01*
Y01325D01*
X0221D01*
Y013635D01*
D02*
G37*
G36*
X047194Y013992D02*
X04621D01*
Y013008D01*
X047194D01*
Y013992D01*
D02*
G37*
G36*
X022585Y01315D02*
X0222D01*
Y012765D01*
X022207D01*
X022318Y012795D01*
X022417Y012852D01*
X022498Y012933D01*
X022555Y013032D01*
X022585Y013143D01*
Y01315D01*
D02*
G37*
G36*
X0221D02*
X021715D01*
Y013143D01*
X021745Y013032D01*
X021802Y012933D01*
X021883Y012852D01*
X021982Y012795D01*
X022093Y012765D01*
X0221D01*
Y01315D01*
D02*
G37*
G36*
X028617Y013542D02*
X028488D01*
X028362Y013509D01*
X02825Y013444D01*
X028159Y013352D01*
X028094Y01324D01*
X02806Y013115D01*
Y012985D01*
X028094Y01286D01*
X028159Y012748D01*
X02825Y012656D01*
X028362Y012591D01*
X028488Y012558D01*
X028617D01*
X028742Y012591D01*
X028855Y012656D01*
X028946Y012748D01*
X029011Y01286D01*
X029044Y012985D01*
Y013115D01*
X029011Y01324D01*
X028946Y013352D01*
X028855Y013444D01*
X028742Y013509D01*
X028617Y013542D01*
D02*
G37*
G36*
X057145Y012597D02*
X051053D01*
Y011403D01*
X057145D01*
Y012597D01*
D02*
G37*
G36*
X021296Y012497D02*
X018103D01*
Y011303D01*
X021296D01*
Y012497D01*
D02*
G37*
G36*
X040245Y011897D02*
X034653D01*
Y010703D01*
X040245D01*
Y011897D01*
D02*
G37*
G36*
X02825Y035407D02*
X028196Y0354D01*
X028098Y03536D01*
X028015Y035296D01*
X027951Y035212D01*
X02791Y035115D01*
X027897Y035011D01*
Y034911D01*
X02825D01*
Y035407D01*
D02*
G37*
G36*
Y034811D02*
X027897D01*
Y034711D01*
X02791Y034606D01*
X027951Y034509D01*
X028015Y034425D01*
X028098Y034361D01*
X028196Y034321D01*
X02825Y034314D01*
Y034811D01*
D02*
G37*
G36*
X0265Y032103D02*
X0264D01*
Y03175D01*
X026897D01*
X02689Y031804D01*
X026849Y031902D01*
X026785Y031985D01*
X026702Y032049D01*
X026604Y03209D01*
X0265Y032103D01*
D02*
G37*
G36*
X026897Y03165D02*
X0264D01*
Y031297D01*
X0265D01*
X026604Y03131D01*
X026702Y031351D01*
X026785Y031415D01*
X026849Y031498D01*
X02689Y031596D01*
X026897Y03165D01*
D02*
G37*
G36*
X06345Y035407D02*
Y034911D01*
X063803D01*
Y035011D01*
X06379Y035115D01*
X063749Y035212D01*
X063685Y035296D01*
X063602Y03536D01*
X063504Y0354D01*
X06345Y035407D01*
D02*
G37*
G36*
X06335D02*
X063296Y0354D01*
X063198Y03536D01*
X063115Y035296D01*
X063051Y035212D01*
X06301Y035115D01*
X062997Y035011D01*
Y034911D01*
X06335D01*
Y035407D01*
D02*
G37*
G36*
X063803Y034811D02*
X06345D01*
Y034314D01*
X063504Y034321D01*
X063602Y034361D01*
X063685Y034425D01*
X063749Y034509D01*
X06379Y034606D01*
X063803Y034711D01*
Y034811D01*
D02*
G37*
G36*
X06335D02*
X062997D01*
Y034711D01*
X06301Y034606D01*
X063051Y034509D01*
X063115Y034425D01*
X063198Y034361D01*
X063296Y034321D01*
X06335Y034314D01*
Y034811D01*
D02*
G37*
G36*
X06165Y032103D02*
X06155D01*
Y03175D01*
X062047D01*
X06204Y031804D01*
X061999Y031902D01*
X061935Y031985D01*
X061852Y032049D01*
X061754Y03209D01*
X06165Y032103D01*
D02*
G37*
G36*
X06145D02*
X06135D01*
X061246Y03209D01*
X061148Y032049D01*
X061065Y031985D01*
X061001Y031902D01*
X06096Y031804D01*
X060953Y03175D01*
X06145D01*
Y032103D01*
D02*
G37*
G36*
X062047Y03165D02*
X06155D01*
Y031297D01*
X06165D01*
X061754Y03131D01*
X061852Y031351D01*
X061935Y031415D01*
X061999Y031498D01*
X06204Y031596D01*
X062047Y03165D01*
D02*
G37*
G36*
X06145D02*
X060953D01*
X06096Y031596D01*
X061001Y031498D01*
X061065Y031415D01*
X061148Y031351D01*
X061246Y03131D01*
X06135Y031297D01*
X06145D01*
Y03165D01*
D02*
G37*
G36*
X06165Y031103D02*
X06155D01*
Y03075D01*
X062047D01*
X06204Y030804D01*
X061999Y030902D01*
X061935Y030985D01*
X061852Y031049D01*
X061754Y03109D01*
X06165Y031103D01*
D02*
G37*
G36*
X06145D02*
X06135D01*
X061246Y03109D01*
X061148Y031049D01*
X061065Y030985D01*
X061001Y030902D01*
X06096Y030804D01*
X060953Y03075D01*
X06145D01*
Y031103D01*
D02*
G37*
G36*
X062047Y03065D02*
X06155D01*
Y030297D01*
X06165D01*
X061754Y03031D01*
X061852Y030351D01*
X061935Y030415D01*
X061999Y030498D01*
X06204Y030596D01*
X062047Y03065D01*
D02*
G37*
G36*
X06145D02*
X060953D01*
X06096Y030596D01*
X061001Y030498D01*
X061065Y030415D01*
X061148Y030351D01*
X061246Y03031D01*
X06135Y030297D01*
X06145D01*
Y03065D01*
D02*
G37*
G36*
X05865Y030103D02*
X05855D01*
Y02975D01*
X059047D01*
X05904Y029804D01*
X058999Y029902D01*
X058935Y029985D01*
X058852Y030049D01*
X058754Y03009D01*
X05865Y030103D01*
D02*
G37*
G36*
X05845D02*
X05835D01*
X058246Y03009D01*
X058148Y030049D01*
X058065Y029985D01*
X058001Y029902D01*
X05796Y029804D01*
X057953Y02975D01*
X05845D01*
Y030103D01*
D02*
G37*
G36*
X059047Y02965D02*
X05855D01*
Y029297D01*
X05865D01*
X058754Y02931D01*
X058852Y029351D01*
X058935Y029415D01*
X058999Y029498D01*
X05904Y029596D01*
X059047Y02965D01*
D02*
G37*
G36*
X05845D02*
X057953D01*
X05796Y029596D01*
X058001Y029498D01*
X058065Y029415D01*
X058148Y029351D01*
X058246Y02931D01*
X05835Y029297D01*
X05845D01*
Y02965D01*
D02*
G37*
G36*
X0413Y030103D02*
X0412D01*
Y02975D01*
X041697D01*
X04169Y029804D01*
X041649Y029902D01*
X041585Y029985D01*
X041502Y030049D01*
X041404Y03009D01*
X0413Y030103D01*
D02*
G37*
G36*
X0411D02*
X041D01*
X040896Y03009D01*
X040798Y030049D01*
X040715Y029985D01*
X040651Y029902D01*
X04061Y029804D01*
X040603Y02975D01*
X0411D01*
Y030103D01*
D02*
G37*
G36*
X041697Y02965D02*
X0412D01*
Y029297D01*
X0413D01*
X041404Y02931D01*
X041502Y029351D01*
X041585Y029415D01*
X041649Y029498D01*
X04169Y029596D01*
X041697Y02965D01*
D02*
G37*
G36*
X0411D02*
X040603D01*
X04061Y029596D01*
X040651Y029498D01*
X040715Y029415D01*
X040798Y029351D01*
X040896Y02931D01*
X041Y029297D01*
X0411D01*
Y02965D01*
D02*
G37*
G36*
X0373Y035407D02*
Y034911D01*
X037653D01*
Y035011D01*
X03764Y035115D01*
X037599Y035212D01*
X037535Y035296D01*
X037452Y03536D01*
X037354Y0354D01*
X0373Y035407D01*
D02*
G37*
G36*
X0372D02*
X037146Y0354D01*
X037048Y03536D01*
X036965Y035296D01*
X036901Y035212D01*
X03686Y035115D01*
X036847Y035011D01*
Y034911D01*
X0372D01*
Y035407D01*
D02*
G37*
G36*
X037653Y034811D02*
X0373D01*
Y034314D01*
X037354Y034321D01*
X037452Y034361D01*
X037535Y034425D01*
X037599Y034509D01*
X03764Y034606D01*
X037653Y034711D01*
Y034811D01*
D02*
G37*
G36*
X0372D02*
X036847D01*
Y034711D01*
X03686Y034606D01*
X036901Y034509D01*
X036965Y034425D01*
X037048Y034361D01*
X037146Y034321D01*
X0372Y034314D01*
Y034811D01*
D02*
G37*
G36*
X03545Y032103D02*
X03535D01*
Y03175D01*
X035847D01*
X03584Y031804D01*
X035799Y031902D01*
X035735Y031985D01*
X035652Y032049D01*
X035554Y03209D01*
X03545Y032103D01*
D02*
G37*
G36*
X035847Y03165D02*
X03535D01*
Y031297D01*
X03545D01*
X035554Y03131D01*
X035652Y031351D01*
X035735Y031415D01*
X035799Y031498D01*
X03584Y031596D01*
X035847Y03165D01*
D02*
G37*
G36*
X03545Y031103D02*
X03535D01*
Y03075D01*
X035847D01*
X03584Y030804D01*
X035799Y030902D01*
X035735Y030985D01*
X035652Y031049D01*
X035554Y03109D01*
X03545Y031103D01*
D02*
G37*
G36*
X035847Y03065D02*
X03535D01*
Y030297D01*
X03545D01*
X035554Y03031D01*
X035652Y030351D01*
X035735Y030415D01*
X035799Y030498D01*
X03584Y030596D01*
X035847Y03065D01*
D02*
G37*
G36*
X0235Y030103D02*
X0234D01*
Y02975D01*
X023897D01*
X02389Y029804D01*
X023849Y029902D01*
X023785Y029985D01*
X023702Y030049D01*
X023604Y03009D01*
X0235Y030103D01*
D02*
G37*
G36*
X0233D02*
X0232D01*
X023096Y03009D01*
X022998Y030049D01*
X022915Y029985D01*
X022851Y029902D01*
X02281Y029804D01*
X022803Y02975D01*
X0233D01*
Y030103D01*
D02*
G37*
G36*
X023897Y02965D02*
X0234D01*
Y029297D01*
X0235D01*
X023604Y02931D01*
X023702Y029351D01*
X023785Y029415D01*
X023849Y029498D01*
X02389Y029596D01*
X023897Y02965D01*
D02*
G37*
G36*
X0233D02*
X022803D01*
X02281Y029596D01*
X022851Y029498D01*
X022915Y029415D01*
X022998Y029351D01*
X023096Y02931D01*
X0232Y029297D01*
X0233D01*
Y02965D01*
D02*
G37*
G36*
X0548Y035407D02*
Y034911D01*
X055153D01*
Y035011D01*
X05514Y035115D01*
X055099Y035212D01*
X055035Y035296D01*
X054952Y03536D01*
X054854Y0354D01*
X0548Y035407D01*
D02*
G37*
G36*
X0547D02*
X054646Y0354D01*
X054548Y03536D01*
X054465Y035296D01*
X054401Y035212D01*
X05436Y035115D01*
X054347Y035011D01*
Y034911D01*
X0547D01*
Y035407D01*
D02*
G37*
G36*
X055153Y034811D02*
X0548D01*
Y034314D01*
X054854Y034321D01*
X054952Y034361D01*
X055035Y034425D01*
X055099Y034509D01*
X05514Y034606D01*
X055153Y034711D01*
Y034811D01*
D02*
G37*
G36*
X0547D02*
X054347D01*
Y034711D01*
X05436Y034606D01*
X054401Y034509D01*
X054465Y034425D01*
X054548Y034361D01*
X054646Y034321D01*
X0547Y034314D01*
Y034811D01*
D02*
G37*
G36*
X05325Y032103D02*
X05315D01*
Y03175D01*
X053647D01*
X05364Y031804D01*
X053599Y031902D01*
X053535Y031985D01*
X053452Y032049D01*
X053354Y03209D01*
X05325Y032103D01*
D02*
G37*
G36*
X053647Y03165D02*
X05315D01*
Y031297D01*
X05325D01*
X053354Y03131D01*
X053452Y031351D01*
X053535Y031415D01*
X053599Y031498D01*
X05364Y031596D01*
X053647Y03165D01*
D02*
G37*
G36*
X04605Y035407D02*
Y034911D01*
X046403D01*
Y035011D01*
X04639Y035115D01*
X046349Y035212D01*
X046285Y035296D01*
X046202Y03536D01*
X046104Y0354D01*
X04605Y035407D01*
D02*
G37*
G36*
X04595D02*
X045896Y0354D01*
X045798Y03536D01*
X045715Y035296D01*
X045651Y035212D01*
X04561Y035115D01*
X045597Y035011D01*
Y034911D01*
X04595D01*
Y035407D01*
D02*
G37*
G36*
X046403Y034811D02*
X04605D01*
Y034314D01*
X046104Y034321D01*
X046202Y034361D01*
X046285Y034425D01*
X046349Y034509D01*
X04639Y034606D01*
X046403Y034711D01*
Y034811D01*
D02*
G37*
G36*
X04595D02*
X045597D01*
Y034711D01*
X04561Y034606D01*
X045651Y034509D01*
X045715Y034425D01*
X045798Y034361D01*
X045896Y034321D01*
X04595Y034314D01*
Y034811D01*
D02*
G37*
G36*
X0443Y032103D02*
X0442D01*
Y03175D01*
X044697D01*
X04469Y031804D01*
X044649Y031902D01*
X044585Y031985D01*
X044502Y032049D01*
X044404Y03209D01*
X0443Y032103D01*
D02*
G37*
G36*
X044697Y03165D02*
X0442D01*
Y031297D01*
X0443D01*
X044404Y03131D01*
X044502Y031351D01*
X044585Y031415D01*
X044649Y031498D01*
X04469Y031596D01*
X044697Y03165D01*
D02*
G37*
G36*
X01945Y035407D02*
Y034911D01*
X019803D01*
Y035011D01*
X01979Y035115D01*
X019749Y035212D01*
X019685Y035296D01*
X019602Y03536D01*
X019504Y0354D01*
X01945Y035407D01*
D02*
G37*
G36*
X01935D02*
X019296Y0354D01*
X019198Y03536D01*
X019115Y035296D01*
X019051Y035212D01*
X01901Y035115D01*
X018997Y035011D01*
Y034911D01*
X01935D01*
Y035407D01*
D02*
G37*
G36*
X019803Y034811D02*
X01945D01*
Y034314D01*
X019504Y034321D01*
X019602Y034361D01*
X019685Y034425D01*
X019749Y034509D01*
X01979Y034606D01*
X019803Y034711D01*
Y034811D01*
D02*
G37*
G36*
X01935D02*
X018997D01*
Y034711D01*
X01901Y034606D01*
X019051Y034509D01*
X019115Y034425D01*
X019198Y034361D01*
X019296Y034321D01*
X01935Y034314D01*
Y034811D01*
D02*
G37*
G36*
X0177Y032103D02*
X0176D01*
Y03175D01*
X018097D01*
X01809Y031804D01*
X018049Y031902D01*
X017985Y031985D01*
X017902Y032049D01*
X017804Y03209D01*
X0177Y032103D01*
D02*
G37*
G36*
X018097Y03165D02*
X0176D01*
Y031297D01*
X0177D01*
X017804Y03131D01*
X017902Y031351D01*
X017985Y031415D01*
X018049Y031498D01*
X01809Y031596D01*
X018097Y03165D01*
D02*
G37*
G36*
X0177Y031103D02*
X0176D01*
Y03075D01*
X018097D01*
X01809Y030804D01*
X018049Y030902D01*
X017985Y030985D01*
X017902Y031049D01*
X017804Y03109D01*
X0177Y031103D01*
D02*
G37*
G36*
X018097Y03065D02*
X0176D01*
Y030297D01*
X0177D01*
X017804Y03031D01*
X017902Y030351D01*
X017985Y030415D01*
X018049Y030498D01*
X01809Y030596D01*
X018097Y03065D01*
D02*
G37*
G36*
X03225Y030103D02*
X03215D01*
X032046Y03009D01*
X031948Y030049D01*
X031865Y029985D01*
X031801Y029902D01*
X03176Y029804D01*
X031753Y02975D01*
X03225D01*
Y030103D01*
D02*
G37*
G36*
Y02965D02*
X031753D01*
X03176Y029596D01*
X031801Y029498D01*
X031865Y029415D01*
X031948Y029351D01*
X032046Y02931D01*
X03215Y029297D01*
X03225D01*
Y02965D01*
D02*
G37*
G36*
X035259Y024147D02*
X035141D01*
X035028Y024116D01*
X034926Y024058D01*
X034842Y023974D01*
X034784Y023872D01*
X034753Y023759D01*
Y023641D01*
X034784Y023528D01*
X034842Y023426D01*
X034843Y023425D01*
Y018925D01*
X034842Y018924D01*
X034784Y018822D01*
X034753Y018709D01*
Y018591D01*
X034784Y018478D01*
X034842Y018376D01*
X034926Y018292D01*
X035028Y018234D01*
X035141Y018203D01*
X035259D01*
X035372Y018234D01*
X035474Y018292D01*
X035558Y018376D01*
X035616Y018478D01*
X035647Y018591D01*
Y018709D01*
X035616Y018822D01*
X035558Y018924D01*
X035557Y018925D01*
Y023425D01*
X035558Y023426D01*
X035616Y023528D01*
X035647Y023641D01*
Y023759D01*
X035616Y023872D01*
X035558Y023974D01*
X035474Y024058D01*
X035372Y024116D01*
X035259Y024147D01*
D02*
G37*
G36*
X05005Y030103D02*
X04995D01*
X049846Y03009D01*
X049748Y030049D01*
X049665Y029985D01*
X049601Y029902D01*
X04956Y029804D01*
X049553Y02975D01*
X05005D01*
Y030103D01*
D02*
G37*
G36*
Y02965D02*
X049553D01*
X04956Y029596D01*
X049601Y029498D01*
X049665Y029415D01*
X049748Y029351D01*
X049846Y02931D01*
X04995Y029297D01*
X05005D01*
Y02965D01*
D02*
G37*
%LPD*%
D14*
X05645Y0122D02*
X05655Y0123D01*
X05675D01*
X05685Y0122D01*
Y0118D01*
X05675Y0117D01*
X05655D01*
X05645Y0118D01*
X05625Y0123D02*
Y0117D01*
Y012D01*
X05615Y0121D01*
X05595D01*
X05585Y012D01*
Y0117D01*
X05565D02*
X05545D01*
X05555D01*
Y0121D01*
X05565D01*
X055151Y0117D02*
Y0121D01*
X054851D01*
X054751Y012D01*
Y0117D01*
X054551Y0123D02*
Y0117D01*
Y012D01*
X054451Y0121D01*
X054251D01*
X054151Y012D01*
Y0117D01*
X053351D02*
Y0123D01*
X053051D01*
X052951Y0122D01*
Y012D01*
X053051Y0119D01*
X053351D01*
X052751Y0123D02*
Y0117D01*
Y012D01*
X052651Y0121D01*
X052451D01*
X052351Y012D01*
Y0117D01*
X052152Y0121D02*
Y0118D01*
X052052Y0117D01*
X051752D01*
Y0121D01*
X051452Y0122D02*
Y0121D01*
X051552D01*
X051352D01*
X051452D01*
Y0118D01*
X051352Y0117D01*
X04635Y04025D02*
Y04085D01*
X04605D01*
X04595Y04075D01*
Y04055D01*
X04605Y04045D01*
X04635D01*
X04575Y04085D02*
Y04025D01*
Y04055D01*
X04565Y04065D01*
X04545D01*
X04535Y04055D01*
Y04025D01*
X04515Y04065D02*
Y04035D01*
X04505Y04025D01*
X044751D01*
Y04065D01*
X044451Y04075D02*
Y04065D01*
X044551D01*
X044351D01*
X044451D01*
Y04035D01*
X044351Y04025D01*
X0634Y04065D02*
X0635Y04075D01*
X0637D01*
X0638Y04065D01*
Y04025D01*
X0637Y04015D01*
X0635D01*
X0634Y04025D01*
Y04045D01*
X0636D01*
X0632Y04015D02*
X063D01*
X0631D01*
Y04055D01*
X0632D01*
X0626D02*
X0624D01*
X0623Y04045D01*
Y04015D01*
X0626D01*
X0627Y04025D01*
X0626Y04035D01*
X0623D01*
X062101Y04055D02*
Y04025D01*
X062001Y04015D01*
X061701D01*
Y04005D01*
X061801Y03995D01*
X061901D01*
X061701Y04015D02*
Y04055D01*
X02785Y0406D02*
X02795Y0407D01*
X02815D01*
X02825Y0406D01*
Y0402D01*
X02815Y0401D01*
X02795D01*
X02785Y0402D01*
Y0404D01*
X02805D01*
X02765Y0401D02*
X02745D01*
X02755D01*
Y0405D01*
X02765D01*
X02705Y0401D02*
X02685D01*
X02675Y0402D01*
Y0404D01*
X02685Y0405D01*
X02705D01*
X02715Y0404D01*
Y0402D01*
X02705Y0401D01*
X0211Y01165D02*
Y01225D01*
X0208D01*
X0207Y01215D01*
Y01195D01*
X0208Y01185D01*
X0211D01*
X0209D02*
X0207Y01165D01*
X0202D02*
X0204D01*
X0205Y01175D01*
Y01195D01*
X0204Y01205D01*
X0202D01*
X0201Y01195D01*
Y01185D01*
X0205D01*
X0199Y01165D02*
X0196D01*
X019501Y01175D01*
X0196Y01185D01*
X0198D01*
X0199Y01195D01*
X0198Y01205D01*
X019501D01*
X019001Y01165D02*
X019201D01*
X019301Y01175D01*
Y01195D01*
X019201Y01205D01*
X019001D01*
X018901Y01195D01*
Y01185D01*
X019301D01*
X018601Y01215D02*
Y01205D01*
X018701D01*
X018501D01*
X018601D01*
Y01175D01*
X018501Y01165D01*
X0397Y01165D02*
X0398Y01175D01*
X04D01*
X0401Y01165D01*
Y01125D01*
X04Y01115D01*
X0398D01*
X0397Y01125D01*
X0395Y01175D02*
Y01115D01*
Y01145D01*
X0394Y01155D01*
X0392D01*
X0391Y01145D01*
Y01115D01*
X0389D02*
X0387D01*
X0388D01*
Y01155D01*
X0389D01*
X038401Y01115D02*
Y01155D01*
X038101D01*
X038001Y01145D01*
Y01115D01*
X037801Y01175D02*
Y01115D01*
Y01145D01*
X037701Y01155D01*
X037501D01*
X037401Y01145D01*
Y01115D01*
X036201Y01165D02*
X036301Y01175D01*
X036501D01*
X036601Y01165D01*
Y01125D01*
X036501Y01115D01*
X036301D01*
X036201Y01125D01*
Y01145D01*
X036401D01*
X036001Y01115D02*
X035801D01*
X035901D01*
Y01155D01*
X036001D01*
X035402Y01115D02*
X035202D01*
X035102Y01125D01*
Y01145D01*
X035202Y01155D01*
X035402D01*
X035501Y01145D01*
Y01125D01*
X035402Y01115D01*
D22*
X06195Y0207D02*
D03*
Y0197D02*
D03*
X0184Y0154D02*
D03*
X0204D02*
D03*
X0537Y01516D02*
D03*
Y01716D02*
D03*
X03785Y01516D02*
D03*
Y01716D02*
D03*
D30*
X05635Y0364D02*
X05845D01*
X0556D02*
X05635D01*
X0564Y03645D01*
Y037861D01*
X04775Y0364D02*
X04975D01*
X04685D02*
X04775D01*
Y037861D01*
X036411Y018298D02*
Y02584D01*
X035887Y026364D02*
X036411Y02584D01*
X03267Y01654D02*
X03311Y01698D01*
X03085Y0364D02*
X03225D01*
Y034861D02*
Y0364D01*
X0233D02*
X0291D01*
X029084Y036384D02*
X0291Y0364D01*
X029084Y032284D02*
Y036384D01*
X0213Y0364D02*
X0233D01*
Y034861D02*
Y0364D01*
X013D02*
X0144D01*
Y034861D02*
Y0364D01*
X02045D02*
X0213D01*
X0144D02*
X02045D01*
Y031D02*
Y0364D01*
X04876Y02413D02*
X04958D01*
X04996Y02375D01*
X02845Y01835D02*
X02928Y01752D01*
X0283Y01835D02*
X02845D01*
X02928Y016748D02*
Y01752D01*
X0298Y017775D02*
Y02055D01*
Y017775D02*
X033355Y01422D01*
X029Y02135D02*
X0298Y02055D01*
X033355Y01422D02*
X03602D01*
X03602Y01422D01*
X038D01*
X032628Y0134D02*
X03797D01*
X02928Y016748D02*
X032628Y0134D01*
X03311Y01698D02*
Y0315D01*
X03032Y01875D02*
X03072Y01835D01*
X0313D01*
X03032Y01875D02*
Y03318D01*
X031348Y01305D02*
X031898Y0125D01*
X04135D02*
X0419Y01305D01*
X031898Y0125D02*
X04135D01*
X03797Y0134D02*
X0425Y01793D01*
X0419Y01305D02*
Y016187D01*
X048261Y018534D02*
Y020166D01*
X048446Y02035D01*
Y01835D02*
X04915D01*
X048446Y02035D02*
X04915D01*
X048261Y018534D02*
X048446Y01835D01*
X04534Y01795D02*
Y019D01*
X04532Y01793D02*
X04534Y01795D01*
X047156Y016187D02*
Y024824D01*
Y016094D02*
Y016187D01*
X035527Y0267D02*
X035863Y026364D01*
X0353Y0267D02*
X035527D01*
X035863Y026364D02*
X035887D01*
X047156Y016094D02*
X047169Y016081D01*
Y015371D02*
Y016081D01*
Y015371D02*
X04738Y01516D01*
X047Y02498D02*
Y02503D01*
Y02498D02*
X047156Y024824D01*
X04738Y01516D02*
X0537D01*
X0425Y01793D02*
X04532D01*
X04534Y019D02*
X04569Y01935D01*
X04534Y0132D02*
X04605Y01249D01*
X048488D01*
X049498Y0135D01*
X04534Y0132D02*
Y01795D01*
X04569Y01935D02*
X04615D01*
X0539Y0249D02*
X059966D01*
X04966D02*
X0539D01*
X05391Y02491D02*
Y0267D01*
X0539Y0249D02*
X05391Y02491D01*
X06015Y025085D02*
Y025601D01*
X059966Y0249D02*
X06015Y025085D01*
Y025601D02*
X060918Y026369D01*
X061273Y0267D02*
X0615D01*
X060942Y026369D02*
X061273Y0267D01*
X060918Y026369D02*
X060942D01*
X0615Y0267D02*
Y0277D01*
X0165Y02504D02*
X02536D01*
X02705Y023349D02*
Y02335D01*
X02536Y02504D02*
X02705Y02335D01*
X01605Y02549D02*
X0165Y02504D01*
X02705Y023349D02*
X027718Y022681D01*
X027742D01*
X028073Y02235D02*
X0283D01*
X027742Y022681D02*
X028073Y02235D01*
X06455Y0297D02*
Y035115D01*
Y01945D02*
Y0297D01*
X05845Y0364D02*
X063266D01*
X03225D02*
X03825D01*
X04975D02*
X0556D01*
X03825D02*
X041D01*
X04685D01*
X0127D02*
X013D01*
X0291D02*
X03085D01*
X0125D02*
X0127D01*
X02554Y0277D02*
Y032D01*
Y026D02*
Y0277D01*
X05229D02*
Y032496D01*
Y026D02*
Y0277D01*
X01515Y04865D02*
X02395D01*
X0122D02*
X01515D01*
X0416D02*
X05045D01*
X0585D01*
X033D02*
X0416D01*
X02395D02*
X033D01*
X039Y036448D02*
Y037861D01*
X0111Y02189D02*
X0137Y01929D01*
X0111Y02189D02*
Y035D01*
X0125Y0364D01*
X0111Y038D02*
Y0428D01*
Y038D02*
X0127Y0364D01*
X0124Y037D02*
Y037861D01*
Y037D02*
X013Y0364D01*
X01755Y0297D02*
X01915D01*
X02045Y031D01*
X02635Y0297D02*
X0265D01*
X029084Y032284D01*
X06195Y0187D02*
X0638D01*
X0213Y0364D02*
Y037861D01*
X0638Y0187D02*
X06455Y01945D01*
X03709Y01792D02*
X03785Y01716D01*
X03709Y01792D02*
Y02964D01*
X0353Y0297D02*
X03703D01*
X03709Y02964D01*
X03822Y03092D02*
Y03637D01*
X0353Y0297D02*
X03709Y02964D01*
X03822Y03092D01*
Y03637D02*
X03825Y0364D01*
X03025Y037D02*
Y037861D01*
Y037D02*
X03085Y0364D01*
X04415Y0297D02*
X0443D01*
X04685Y03225D01*
Y0364D01*
X041Y034861D02*
Y0364D01*
X0531Y0297D02*
X05325D01*
X055577Y032027D01*
Y036377D01*
X0556Y0364D01*
X063266D02*
X06455Y035115D01*
X04975Y034861D02*
Y0364D01*
X0584Y034861D02*
Y03635D01*
X05845Y0364D01*
X0615Y0297D02*
X06455D01*
X0226Y0317D02*
X02335D01*
X0223Y032D02*
X0226Y0317D01*
X0223Y032D02*
Y034861D01*
X01674Y02596D02*
X01755Y0257D01*
X01674Y02596D02*
Y032755D01*
X018345Y03436D01*
Y034806D01*
X0184Y034861D01*
X0273Y03376D02*
Y034861D01*
X02554Y032D02*
X0273Y03376D01*
X02584Y0257D02*
X02635D01*
X02335Y0277D02*
X02554D01*
Y026D02*
X02584Y0257D01*
X0345D02*
X0353D01*
X03377Y02643D02*
X0345Y0257D01*
X03377Y02643D02*
Y03182D01*
X04364Y0257D02*
X04415D01*
X04334Y026D02*
X04364Y0257D01*
X04334Y026D02*
Y032D01*
X045Y03366D01*
Y034861D01*
X05375Y033956D02*
Y034861D01*
X05229Y032496D02*
X05375Y033956D01*
X05259Y0257D02*
X0531D01*
X0501Y0277D02*
X05229D01*
Y026D02*
X05259Y0257D01*
X0137Y0307D02*
X01455D01*
X0124Y032D02*
X0137Y0307D01*
X0124Y032D02*
Y034861D01*
X01455Y0307D02*
X0155D01*
X01605Y03015D01*
Y02549D02*
Y03015D01*
X03291Y0317D02*
X03311Y0315D01*
X0323Y0317D02*
X03291D01*
X0315D02*
X0323D01*
X03125Y03195D02*
X0315Y0317D01*
X03125Y03195D02*
Y034861D01*
X04506Y02316D02*
Y02963D01*
X04875Y03332D01*
Y03245D02*
X0495Y0317D01*
X04875Y03332D02*
Y034861D01*
Y03245D02*
Y03332D01*
X0495Y0317D02*
X0501D01*
X01902Y01935D02*
X0283D01*
X01452Y02385D02*
X01902Y01935D01*
X029596Y033904D02*
X03032Y03318D01*
X029596Y033904D02*
Y03578D01*
X03164D01*
X02335Y0287D02*
X02405D01*
X02475Y0294D01*
Y0332D01*
X0263Y03475D01*
Y034861D01*
X04115Y0287D02*
X042D01*
X04265Y02935D01*
Y03212D01*
X044Y03347D01*
Y034861D01*
X01755Y0267D02*
Y0277D01*
X02635Y0267D02*
Y0277D01*
X0352Y01865D02*
Y0237D01*
X0353Y0267D02*
Y0277D01*
X04415Y0267D02*
Y0277D01*
X04996Y01735D02*
Y02375D01*
X04915Y01735D02*
X04996D01*
X01611Y04181D02*
X01759D01*
X0184Y041D01*
Y037861D02*
Y041D01*
X01515Y04075D02*
Y04675D01*
X033Y04075D02*
Y04675D01*
X024Y04075D02*
Y04675D01*
X0416Y04075D02*
Y04675D01*
X05045Y04075D02*
Y04675D01*
X0111Y0468D02*
Y04755D01*
X0122Y04865D01*
X024Y04675D02*
Y0486D01*
X02395Y04865D02*
X024Y0486D01*
X01515Y04675D02*
Y04865D01*
X05905Y04675D02*
Y0481D01*
X033Y04675D02*
Y04865D01*
X0585D02*
X05905Y0481D01*
X0416Y04675D02*
Y04865D01*
X05045Y04675D02*
Y04865D01*
X05905Y04075D02*
Y04675D01*
X01615Y040625D02*
Y04075D01*
Y040625D02*
X017364Y039411D01*
Y037897D02*
Y039411D01*
Y037897D02*
X0174Y037861D01*
X0134D02*
Y038088D01*
X01249Y038998D02*
X0134Y038088D01*
X01249Y038998D02*
Y04195D01*
X01415Y04361D01*
Y04675D01*
X01315Y04351D02*
Y04675D01*
X01175Y04211D02*
X01315Y04351D01*
X01175Y039D02*
Y04211D01*
X01174Y03899D02*
X01175Y039D01*
X025Y03925D02*
Y04075D01*
Y03925D02*
X0263Y03795D01*
Y037861D02*
Y03795D01*
X0253Y03721D02*
Y037861D01*
Y03721D02*
X02546Y03705D01*
X028885D01*
X02907Y037234D01*
Y04368D01*
X026255Y046495D02*
X02907Y04368D01*
X026132Y046495D02*
X026255D01*
X026Y046627D02*
X026132Y046495D01*
X026Y046627D02*
Y04675D01*
X0233Y037861D02*
Y03801D01*
X02134Y03997D02*
X0233Y03801D01*
X02134Y03997D02*
Y045944D01*
X022Y046604D01*
Y04675D01*
X03525Y0386D02*
X03623Y03958D01*
X03525Y037861D02*
Y0386D01*
X03425Y037861D02*
Y03849D01*
X03566Y0399D01*
Y04609D01*
X035255Y046495D02*
X03566Y04609D01*
X035132Y046495D02*
X035255D01*
X035Y046627D02*
X035132Y046495D01*
X035Y046627D02*
Y04675D01*
X03225Y037861D02*
Y03803D01*
X03034Y03994D02*
X03225Y03803D01*
X03034Y03994D02*
Y045934D01*
X031Y046594D01*
Y04675D01*
X0426Y04D02*
Y04075D01*
Y04D02*
X044Y0386D01*
Y037861D02*
Y0386D01*
X042Y03727D02*
Y037861D01*
Y03727D02*
X04225Y03702D01*
X046235D01*
X046854Y037639D01*
Y042896D01*
X046Y04375D02*
X046854Y042896D01*
X04385Y04375D02*
X046D01*
X0426Y045D02*
X04385Y04375D01*
X0426Y045D02*
Y04675D01*
X04Y037861D02*
Y037936D01*
X038836Y0391D02*
X04Y037936D01*
X038084Y0391D02*
X038836D01*
X0379Y039285D02*
X038084Y0391D01*
X0379Y039285D02*
Y04654D01*
X039Y04764D01*
X04025D01*
X0406Y04729D01*
Y04675D02*
Y04729D01*
X041Y037861D02*
Y03888D01*
X04017Y03971D02*
X041Y03888D01*
X039Y03971D02*
X04017D01*
X03842Y04029D02*
X039Y03971D01*
X03842Y04029D02*
Y04375D01*
X0396Y04493D01*
Y04675D01*
X05145Y039465D02*
Y04075D01*
Y039465D02*
X052607Y038307D01*
Y03823D02*
Y038307D01*
Y03823D02*
X05275Y038088D01*
Y037861D02*
Y038088D01*
X04875Y037861D02*
Y03894D01*
X04779Y0399D02*
X04875Y03894D01*
X04779Y0399D02*
Y04209D01*
X04945Y04375D01*
Y04675D01*
X06005Y039431D02*
Y04075D01*
Y039431D02*
X0614Y038081D01*
Y037861D02*
Y038081D01*
X0604Y037711D02*
Y037861D01*
Y037711D02*
X061054Y037056D01*
X063671D01*
X0645Y037885D01*
Y04565D01*
X0634Y04675D02*
X0645Y04565D01*
X06105Y04675D02*
X0634D01*
X0574Y037861D02*
Y03905D01*
X05639Y04006D02*
X0574Y03905D01*
X05639Y04006D02*
Y04209D01*
X05805Y04375D01*
Y04675D01*
X0134Y0323D02*
Y034861D01*
Y0323D02*
X014Y0317D01*
X01455D01*
X0344Y0287D02*
Y03312D01*
X03525Y03397D01*
Y034861D01*
X039Y0317D02*
Y034861D01*
Y0317D02*
X04Y0307D01*
X04115D01*
X04Y0322D02*
Y034861D01*
Y0322D02*
X0405Y0317D01*
X04115D01*
X0501Y0287D02*
X05066D01*
X05096Y029D01*
Y03292D01*
X05275Y03471D01*
Y034861D01*
X0564Y032D02*
Y034861D01*
Y032D02*
X0577Y0307D01*
X0585D01*
X0574Y0323D02*
Y034861D01*
Y0323D02*
X058Y0317D01*
X0585D01*
X0283Y02135D02*
X029D01*
X038Y01422D02*
X03873Y01495D01*
Y02108D01*
X04Y02235D01*
X04615D01*
Y02335D02*
Y02521D01*
X04694Y026D01*
X04856D01*
X04966Y0249D01*
X0531Y0267D02*
X05391D01*
X0531D02*
Y0277D01*
D31*
X028552Y01305D02*
D03*
X049498Y0135D02*
D03*
D32*
X031348Y01305D02*
D03*
X046702Y0135D02*
D03*
D33*
X04615Y02335D02*
D03*
X0615Y0257D02*
D03*
X0283Y02335D02*
D03*
X0531Y0257D02*
D03*
X04415D02*
D03*
X0353D02*
D03*
X01755D02*
D03*
X02635D02*
D03*
D34*
X04615Y02235D02*
D03*
Y02135D02*
D03*
Y02035D02*
D03*
Y01935D02*
D03*
Y01835D02*
D03*
Y01735D02*
D03*
X04915Y02335D02*
D03*
Y02235D02*
D03*
Y02135D02*
D03*
Y02035D02*
D03*
Y01935D02*
D03*
Y01835D02*
D03*
Y01735D02*
D03*
X0585Y0317D02*
D03*
Y0307D02*
D03*
Y0297D02*
D03*
Y0287D02*
D03*
Y0277D02*
D03*
Y0267D02*
D03*
Y0257D02*
D03*
X0615Y0317D02*
D03*
Y0307D02*
D03*
Y0297D02*
D03*
Y0287D02*
D03*
Y0277D02*
D03*
Y0267D02*
D03*
X0313Y01735D02*
D03*
Y01835D02*
D03*
Y01935D02*
D03*
Y02035D02*
D03*
Y02135D02*
D03*
Y02235D02*
D03*
Y02335D02*
D03*
X0283Y01735D02*
D03*
Y01835D02*
D03*
Y01935D02*
D03*
Y02035D02*
D03*
Y02135D02*
D03*
Y02235D02*
D03*
X0501Y0317D02*
D03*
Y0307D02*
D03*
Y0297D02*
D03*
Y0287D02*
D03*
Y0277D02*
D03*
Y0267D02*
D03*
Y0257D02*
D03*
X0531Y0317D02*
D03*
Y0307D02*
D03*
Y0297D02*
D03*
Y0287D02*
D03*
Y0277D02*
D03*
Y0267D02*
D03*
X04115Y0317D02*
D03*
Y0307D02*
D03*
Y0297D02*
D03*
Y0287D02*
D03*
Y0277D02*
D03*
Y0267D02*
D03*
Y0257D02*
D03*
X04415Y0317D02*
D03*
Y0307D02*
D03*
Y0297D02*
D03*
Y0287D02*
D03*
Y0277D02*
D03*
Y0267D02*
D03*
X0323Y0317D02*
D03*
Y0307D02*
D03*
Y0297D02*
D03*
Y0287D02*
D03*
Y0277D02*
D03*
Y0267D02*
D03*
Y0257D02*
D03*
X0353Y0317D02*
D03*
Y0307D02*
D03*
Y0297D02*
D03*
Y0287D02*
D03*
Y0277D02*
D03*
Y0267D02*
D03*
X01455Y0317D02*
D03*
Y0307D02*
D03*
Y0297D02*
D03*
Y0287D02*
D03*
Y0277D02*
D03*
Y0267D02*
D03*
Y0257D02*
D03*
X01755Y0317D02*
D03*
Y0307D02*
D03*
Y0297D02*
D03*
Y0287D02*
D03*
Y0277D02*
D03*
Y0267D02*
D03*
X02335Y0317D02*
D03*
Y0307D02*
D03*
Y0297D02*
D03*
Y0287D02*
D03*
Y0277D02*
D03*
Y0267D02*
D03*
Y0257D02*
D03*
X02635Y0317D02*
D03*
Y0307D02*
D03*
Y0297D02*
D03*
Y0287D02*
D03*
Y0277D02*
D03*
Y0267D02*
D03*
D35*
X05045Y04075D02*
D03*
X05145D02*
D03*
X04945D02*
D03*
X04845D02*
D03*
X05145Y04675D02*
D03*
X04845D02*
D03*
X04945D02*
D03*
X05045D02*
D03*
X05245D02*
D03*
Y04075D02*
D03*
X01515D02*
D03*
X01615D02*
D03*
X01415D02*
D03*
X01315D02*
D03*
X01615Y04675D02*
D03*
X01315D02*
D03*
X01415D02*
D03*
X01515D02*
D03*
X01715D02*
D03*
Y04075D02*
D03*
X024D02*
D03*
X025D02*
D03*
X023D02*
D03*
X022D02*
D03*
X025Y04675D02*
D03*
X022D02*
D03*
X023D02*
D03*
X024D02*
D03*
X026D02*
D03*
Y04075D02*
D03*
X033D02*
D03*
X034D02*
D03*
X032D02*
D03*
X031D02*
D03*
X034Y04675D02*
D03*
X031D02*
D03*
X032D02*
D03*
X033D02*
D03*
X035D02*
D03*
Y04075D02*
D03*
X05905D02*
D03*
X06005D02*
D03*
X05805D02*
D03*
X05705D02*
D03*
X06005Y04675D02*
D03*
X05705D02*
D03*
X05805D02*
D03*
X05905D02*
D03*
X06105D02*
D03*
Y04075D02*
D03*
X0436D02*
D03*
Y04675D02*
D03*
X0416D02*
D03*
X0406D02*
D03*
X0396D02*
D03*
X0426D02*
D03*
X0396Y04075D02*
D03*
X0406D02*
D03*
X0426D02*
D03*
X0416D02*
D03*
D36*
X0111Y0468D02*
D03*
Y0428D02*
D03*
X02215Y0172D02*
D03*
Y0132D02*
D03*
X03985Y0172D02*
D03*
Y0132D02*
D03*
D37*
X06195Y0187D02*
D03*
D38*
X0564Y034861D02*
D03*
X0124D02*
D03*
X0213D02*
D03*
X039D02*
D03*
X04775D02*
D03*
X03025D02*
D03*
D39*
X0574D02*
D03*
X0584D02*
D03*
X0594D02*
D03*
X0604D02*
D03*
X0614D02*
D03*
X0624D02*
D03*
X0634D02*
D03*
X0564Y037861D02*
D03*
X0574D02*
D03*
X0584D02*
D03*
X0594D02*
D03*
X0604D02*
D03*
X0614D02*
D03*
X0624D02*
D03*
X0634D02*
D03*
X0194D02*
D03*
X0184D02*
D03*
X0174D02*
D03*
X0164D02*
D03*
X0154D02*
D03*
X0144D02*
D03*
X0134D02*
D03*
X0124D02*
D03*
X0194Y034861D02*
D03*
X0184D02*
D03*
X0174D02*
D03*
X0164D02*
D03*
X0154D02*
D03*
X0144D02*
D03*
X0134D02*
D03*
X0223D02*
D03*
X0233D02*
D03*
X0243D02*
D03*
X0253D02*
D03*
X0263D02*
D03*
X0273D02*
D03*
X0283D02*
D03*
X0213Y037861D02*
D03*
X0223D02*
D03*
X0233D02*
D03*
X0243D02*
D03*
X0253D02*
D03*
X0263D02*
D03*
X0273D02*
D03*
X0283D02*
D03*
X04Y034861D02*
D03*
X041D02*
D03*
X042D02*
D03*
X043D02*
D03*
X044D02*
D03*
X045D02*
D03*
X046D02*
D03*
X039Y037861D02*
D03*
X04D02*
D03*
X041D02*
D03*
X042D02*
D03*
X043D02*
D03*
X044D02*
D03*
X045D02*
D03*
X046D02*
D03*
X04875Y034861D02*
D03*
X04975D02*
D03*
X05075D02*
D03*
X05175D02*
D03*
X05275D02*
D03*
X05375D02*
D03*
X05475D02*
D03*
X04775Y037861D02*
D03*
X04875D02*
D03*
X04975D02*
D03*
X05075D02*
D03*
X05175D02*
D03*
X05275D02*
D03*
X05375D02*
D03*
X05475D02*
D03*
X03125Y034861D02*
D03*
X03225D02*
D03*
X03325D02*
D03*
X03425D02*
D03*
X03525D02*
D03*
X03625D02*
D03*
X03725D02*
D03*
X03025Y037861D02*
D03*
X03125D02*
D03*
X03225D02*
D03*
X03325D02*
D03*
X03425D02*
D03*
X03525D02*
D03*
X03625D02*
D03*
X03725D02*
D03*
D40*
X0137Y02125D02*
D03*
D41*
Y01929D02*
D03*
D42*
X036411Y018298D02*
D03*
X03267Y01654D02*
D03*
X04876Y02413D02*
D03*
X047156Y016187D02*
D03*
X0419D02*
D03*
X03377Y03182D02*
D03*
X04506Y02316D02*
D03*
X01452Y02385D02*
D03*
X03164Y03578D02*
D03*
X0352Y0237D02*
D03*
Y01865D02*
D03*
X047Y02503D02*
D03*
X01611Y04181D02*
D03*
X03623Y03958D02*
D03*
X0344Y0287D02*
D03*
M02*
