G04*
G04 #@! TF.GenerationSoftware,Altium Limited,Altium Designer,21.0.8 (223)*
G04*
G04 Layer_Color=8388736*
%FSTAX24Y24*%
%MOIN*%
G70*
G04*
G04 #@! TF.SameCoordinates,7D2A80BF-F15A-477C-97BA-D51E596D6298*
G04*
G04*
G04 #@! TF.FilePolarity,Negative*
G04*
G01*
G75*
%ADD17C,0.0671*%
%ADD18R,0.0671X0.0671*%
%ADD19R,0.0980X0.0680*%
%ADD20O,0.0980X0.0680*%
%ADD21O,0.0680X0.1080*%
%ADD22C,0.0750*%
%ADD23C,0.0830*%
%ADD24R,0.0830X0.0830*%
%ADD25R,0.0680X0.0980*%
%ADD26O,0.0680X0.0980*%
%ADD27R,0.1150X0.1150*%
%ADD28C,0.1150*%
%ADD29C,0.0580*%
D17*
X028552Y01305D02*
D03*
X049498Y0135D02*
D03*
D18*
X031348Y01305D02*
D03*
X046702Y0135D02*
D03*
D19*
X04615Y02335D02*
D03*
X0615Y0257D02*
D03*
X0283Y02335D02*
D03*
X0531Y0257D02*
D03*
X04415D02*
D03*
X0353D02*
D03*
X01755D02*
D03*
X02635D02*
D03*
D20*
X04615Y02235D02*
D03*
Y02135D02*
D03*
Y02035D02*
D03*
Y01935D02*
D03*
Y01835D02*
D03*
Y01735D02*
D03*
X04915Y02335D02*
D03*
Y02235D02*
D03*
Y02135D02*
D03*
Y02035D02*
D03*
Y01935D02*
D03*
Y01835D02*
D03*
Y01735D02*
D03*
X0585Y0317D02*
D03*
Y0307D02*
D03*
Y0297D02*
D03*
Y0287D02*
D03*
Y0277D02*
D03*
Y0267D02*
D03*
Y0257D02*
D03*
X0615Y0317D02*
D03*
Y0307D02*
D03*
Y0297D02*
D03*
Y0287D02*
D03*
Y0277D02*
D03*
Y0267D02*
D03*
X0313Y01735D02*
D03*
Y01835D02*
D03*
Y01935D02*
D03*
Y02035D02*
D03*
Y02135D02*
D03*
Y02235D02*
D03*
Y02335D02*
D03*
X0283Y01735D02*
D03*
Y01835D02*
D03*
Y01935D02*
D03*
Y02035D02*
D03*
Y02135D02*
D03*
Y02235D02*
D03*
X0501Y0317D02*
D03*
Y0307D02*
D03*
Y0297D02*
D03*
Y0287D02*
D03*
Y0277D02*
D03*
Y0267D02*
D03*
Y0257D02*
D03*
X0531Y0317D02*
D03*
Y0307D02*
D03*
Y0297D02*
D03*
Y0287D02*
D03*
Y0277D02*
D03*
Y0267D02*
D03*
X04115Y0317D02*
D03*
Y0307D02*
D03*
Y0297D02*
D03*
Y0287D02*
D03*
Y0277D02*
D03*
Y0267D02*
D03*
Y0257D02*
D03*
X04415Y0317D02*
D03*
Y0307D02*
D03*
Y0297D02*
D03*
Y0287D02*
D03*
Y0277D02*
D03*
Y0267D02*
D03*
X0323Y0317D02*
D03*
Y0307D02*
D03*
Y0297D02*
D03*
Y0287D02*
D03*
Y0277D02*
D03*
Y0267D02*
D03*
Y0257D02*
D03*
X0353Y0317D02*
D03*
Y0307D02*
D03*
Y0297D02*
D03*
Y0287D02*
D03*
Y0277D02*
D03*
Y0267D02*
D03*
X01455Y0317D02*
D03*
Y0307D02*
D03*
Y0297D02*
D03*
Y0287D02*
D03*
Y0277D02*
D03*
Y0267D02*
D03*
Y0257D02*
D03*
X01755Y0317D02*
D03*
Y0307D02*
D03*
Y0297D02*
D03*
Y0287D02*
D03*
Y0277D02*
D03*
Y0267D02*
D03*
X02335Y0317D02*
D03*
Y0307D02*
D03*
Y0297D02*
D03*
Y0287D02*
D03*
Y0277D02*
D03*
Y0267D02*
D03*
Y0257D02*
D03*
X02635Y0317D02*
D03*
Y0307D02*
D03*
Y0297D02*
D03*
Y0287D02*
D03*
Y0277D02*
D03*
Y0267D02*
D03*
D21*
X05045Y04075D02*
D03*
X05145D02*
D03*
X04945D02*
D03*
X04845D02*
D03*
X05145Y04675D02*
D03*
X04845D02*
D03*
X04945D02*
D03*
X05045D02*
D03*
X05245D02*
D03*
Y04075D02*
D03*
X01515D02*
D03*
X01615D02*
D03*
X01415D02*
D03*
X01315D02*
D03*
X01615Y04675D02*
D03*
X01315D02*
D03*
X01415D02*
D03*
X01515D02*
D03*
X01715D02*
D03*
Y04075D02*
D03*
X024D02*
D03*
X025D02*
D03*
X023D02*
D03*
X022D02*
D03*
X025Y04675D02*
D03*
X022D02*
D03*
X023D02*
D03*
X024D02*
D03*
X026D02*
D03*
Y04075D02*
D03*
X033D02*
D03*
X034D02*
D03*
X032D02*
D03*
X031D02*
D03*
X034Y04675D02*
D03*
X031D02*
D03*
X032D02*
D03*
X033D02*
D03*
X035D02*
D03*
Y04075D02*
D03*
X05905D02*
D03*
X06005D02*
D03*
X05805D02*
D03*
X05705D02*
D03*
X06005Y04675D02*
D03*
X05705D02*
D03*
X05805D02*
D03*
X05905D02*
D03*
X06105D02*
D03*
Y04075D02*
D03*
X0436D02*
D03*
Y04675D02*
D03*
X0416D02*
D03*
X0406D02*
D03*
X0396D02*
D03*
X0426D02*
D03*
X0396Y04075D02*
D03*
X0406D02*
D03*
X0426D02*
D03*
X0416D02*
D03*
D22*
X0111Y0468D02*
D03*
Y0428D02*
D03*
X02215Y0172D02*
D03*
Y0132D02*
D03*
X03985Y0172D02*
D03*
Y0132D02*
D03*
D23*
X06195Y0207D02*
D03*
Y0197D02*
D03*
X0184Y0154D02*
D03*
X0204D02*
D03*
X0537Y01516D02*
D03*
Y01716D02*
D03*
X03785Y01516D02*
D03*
Y01716D02*
D03*
D24*
X06195Y0187D02*
D03*
D25*
X0564Y034861D02*
D03*
X0124D02*
D03*
X0213D02*
D03*
X039D02*
D03*
X04775D02*
D03*
X03025D02*
D03*
D26*
X0574D02*
D03*
X0584D02*
D03*
X0594D02*
D03*
X0604D02*
D03*
X0614D02*
D03*
X0624D02*
D03*
X0634D02*
D03*
X0564Y037861D02*
D03*
X0574D02*
D03*
X0584D02*
D03*
X0594D02*
D03*
X0604D02*
D03*
X0614D02*
D03*
X0624D02*
D03*
X0634D02*
D03*
X0194D02*
D03*
X0184D02*
D03*
X0174D02*
D03*
X0164D02*
D03*
X0154D02*
D03*
X0144D02*
D03*
X0134D02*
D03*
X0124D02*
D03*
X0194Y034861D02*
D03*
X0184D02*
D03*
X0174D02*
D03*
X0164D02*
D03*
X0154D02*
D03*
X0144D02*
D03*
X0134D02*
D03*
X0223D02*
D03*
X0233D02*
D03*
X0243D02*
D03*
X0253D02*
D03*
X0263D02*
D03*
X0273D02*
D03*
X0283D02*
D03*
X0213Y037861D02*
D03*
X0223D02*
D03*
X0233D02*
D03*
X0243D02*
D03*
X0253D02*
D03*
X0263D02*
D03*
X0273D02*
D03*
X0283D02*
D03*
X04Y034861D02*
D03*
X041D02*
D03*
X042D02*
D03*
X043D02*
D03*
X044D02*
D03*
X045D02*
D03*
X046D02*
D03*
X039Y037861D02*
D03*
X04D02*
D03*
X041D02*
D03*
X042D02*
D03*
X043D02*
D03*
X044D02*
D03*
X045D02*
D03*
X046D02*
D03*
X04875Y034861D02*
D03*
X04975D02*
D03*
X05075D02*
D03*
X05175D02*
D03*
X05275D02*
D03*
X05375D02*
D03*
X05475D02*
D03*
X04775Y037861D02*
D03*
X04875D02*
D03*
X04975D02*
D03*
X05075D02*
D03*
X05175D02*
D03*
X05275D02*
D03*
X05375D02*
D03*
X05475D02*
D03*
X03125Y034861D02*
D03*
X03225D02*
D03*
X03325D02*
D03*
X03425D02*
D03*
X03525D02*
D03*
X03625D02*
D03*
X03725D02*
D03*
X03025Y037861D02*
D03*
X03125D02*
D03*
X03225D02*
D03*
X03325D02*
D03*
X03425D02*
D03*
X03525D02*
D03*
X03625D02*
D03*
X03725D02*
D03*
D27*
X0137Y02125D02*
D03*
D28*
Y01929D02*
D03*
D29*
X036411Y018298D02*
D03*
X03267Y01654D02*
D03*
X04876Y02413D02*
D03*
X047156Y016187D02*
D03*
X0419D02*
D03*
X03377Y03182D02*
D03*
X04506Y02316D02*
D03*
X01452Y02385D02*
D03*
X03164Y03578D02*
D03*
X0352Y0237D02*
D03*
Y01865D02*
D03*
X047Y02503D02*
D03*
X01611Y04181D02*
D03*
X03623Y03958D02*
D03*
X0344Y0287D02*
D03*
M02*
