G04*
G04 #@! TF.GenerationSoftware,Altium Limited,Altium Designer,21.0.8 (223)*
G04*
G04 Layer_Color=128*
%FSTAX24Y24*%
%MOIN*%
G70*
G04*
G04 #@! TF.SameCoordinates,7D2A80BF-F15A-477C-97BA-D51E596D6298*
G04*
G04*
G04 #@! TF.FilePolarity,Positive*
G04*
G01*
G75*
%ADD43C,0.0020*%
D43*
X028375Y01305D02*
X02873D01*
X028552Y012873D02*
Y013227D01*
X03117Y01305D02*
X031525D01*
X031348Y012873D02*
Y013227D01*
X04932Y0135D02*
X049675D01*
X049498Y013323D02*
Y013677D01*
X046525Y0135D02*
X04688D01*
X046702Y013323D02*
Y013677D01*
X045995Y02335D02*
X046305D01*
X04615Y023195D02*
Y023505D01*
X045995Y02235D02*
X046305D01*
X04615Y022195D02*
Y022505D01*
X045995Y02135D02*
X046305D01*
X04615Y021195D02*
Y021505D01*
X045995Y02035D02*
X046305D01*
X04615Y020195D02*
Y020505D01*
X045995Y01935D02*
X046305D01*
X04615Y019195D02*
Y019505D01*
X045995Y01835D02*
X046305D01*
X04615Y018195D02*
Y018505D01*
X045995Y01735D02*
X046305D01*
X04615Y017195D02*
Y017505D01*
X048995Y02335D02*
X049305D01*
X04915Y023195D02*
Y023505D01*
X048995Y02235D02*
X049305D01*
X04915Y022195D02*
Y022505D01*
X048995Y02135D02*
X049305D01*
X04915Y021195D02*
Y021505D01*
X048995Y02035D02*
X049305D01*
X04915Y020195D02*
Y020505D01*
X048995Y01935D02*
X049305D01*
X04915Y019195D02*
Y019505D01*
X048995Y01835D02*
X049305D01*
X04915Y018195D02*
Y018505D01*
X048995Y01735D02*
X049305D01*
X04915Y017195D02*
Y017505D01*
X05029Y04075D02*
X05061D01*
X05045Y04059D02*
Y04091D01*
X05129Y04075D02*
X05161D01*
X05145Y04059D02*
Y04091D01*
X04929Y04075D02*
X04961D01*
X04945Y04059D02*
Y04091D01*
X04829Y04075D02*
X04861D01*
X04845Y04059D02*
Y04091D01*
X05129Y04675D02*
X05161D01*
X05145Y04659D02*
Y04691D01*
X04829Y04675D02*
X04861D01*
X04845Y04659D02*
Y04691D01*
X04929Y04675D02*
X04961D01*
X04945Y04659D02*
Y04691D01*
X05029Y04675D02*
X05061D01*
X05045Y04659D02*
Y04691D01*
X05229Y04675D02*
X05261D01*
X05245Y04659D02*
Y04691D01*
X05229Y04075D02*
X05261D01*
X05245Y04059D02*
Y04091D01*
X01499Y04075D02*
X01531D01*
X01515Y04059D02*
Y04091D01*
X01599Y04075D02*
X01631D01*
X01615Y04059D02*
Y04091D01*
X01399Y04075D02*
X01431D01*
X01415Y04059D02*
Y04091D01*
X01299Y04075D02*
X01331D01*
X01315Y04059D02*
Y04091D01*
X01599Y04675D02*
X01631D01*
X01615Y04659D02*
Y04691D01*
X01299Y04675D02*
X01331D01*
X01315Y04659D02*
Y04691D01*
X01399Y04675D02*
X01431D01*
X01415Y04659D02*
Y04691D01*
X01499Y04675D02*
X01531D01*
X01515Y04659D02*
Y04691D01*
X01699Y04675D02*
X01731D01*
X01715Y04659D02*
Y04691D01*
X01699Y04075D02*
X01731D01*
X01715Y04059D02*
Y04091D01*
X02384Y04075D02*
X02416D01*
X024Y04059D02*
Y04091D01*
X02484Y04075D02*
X02516D01*
X025Y04059D02*
Y04091D01*
X02284Y04075D02*
X02316D01*
X023Y04059D02*
Y04091D01*
X02184Y04075D02*
X02216D01*
X022Y04059D02*
Y04091D01*
X02484Y04675D02*
X02516D01*
X025Y04659D02*
Y04691D01*
X02184Y04675D02*
X02216D01*
X022Y04659D02*
Y04691D01*
X02284Y04675D02*
X02316D01*
X023Y04659D02*
Y04691D01*
X02384Y04675D02*
X02416D01*
X024Y04659D02*
Y04691D01*
X02584Y04675D02*
X02616D01*
X026Y04659D02*
Y04691D01*
X02584Y04075D02*
X02616D01*
X026Y04059D02*
Y04091D01*
X03284Y04075D02*
X03316D01*
X033Y04059D02*
Y04091D01*
X03384Y04075D02*
X03416D01*
X034Y04059D02*
Y04091D01*
X03184Y04075D02*
X03216D01*
X032Y04059D02*
Y04091D01*
X03084Y04075D02*
X03116D01*
X031Y04059D02*
Y04091D01*
X03384Y04675D02*
X03416D01*
X034Y04659D02*
Y04691D01*
X03084Y04675D02*
X03116D01*
X031Y04659D02*
Y04691D01*
X03184Y04675D02*
X03216D01*
X032Y04659D02*
Y04691D01*
X03284Y04675D02*
X03316D01*
X033Y04659D02*
Y04691D01*
X03484Y04675D02*
X03516D01*
X035Y04659D02*
Y04691D01*
X03484Y04075D02*
X03516D01*
X035Y04059D02*
Y04091D01*
X05889Y04075D02*
X05921D01*
X05905Y04059D02*
Y04091D01*
X05989Y04075D02*
X06021D01*
X06005Y04059D02*
Y04091D01*
X05789Y04075D02*
X05821D01*
X05805Y04059D02*
Y04091D01*
X05689Y04075D02*
X05721D01*
X05705Y04059D02*
Y04091D01*
X05989Y04675D02*
X06021D01*
X06005Y04659D02*
Y04691D01*
X05689Y04675D02*
X05721D01*
X05705Y04659D02*
Y04691D01*
X05789Y04675D02*
X05821D01*
X05805Y04659D02*
Y04691D01*
X05889Y04675D02*
X05921D01*
X05905Y04659D02*
Y04691D01*
X06089Y04675D02*
X06121D01*
X06105Y04659D02*
Y04691D01*
X06089Y04075D02*
X06121D01*
X06105Y04059D02*
Y04091D01*
X04344Y04075D02*
X04376D01*
X0436Y04059D02*
Y04091D01*
X04344Y04675D02*
X04376D01*
X0436Y04659D02*
Y04691D01*
X04144Y04675D02*
X04176D01*
X0416Y04659D02*
Y04691D01*
X04044Y04675D02*
X04076D01*
X0406Y04659D02*
Y04691D01*
X03944Y04675D02*
X03976D01*
X0396Y04659D02*
Y04691D01*
X04244Y04675D02*
X04276D01*
X0426Y04659D02*
Y04691D01*
X03944Y04075D02*
X03976D01*
X0396Y04059D02*
Y04091D01*
X04044Y04075D02*
X04076D01*
X0406Y04059D02*
Y04091D01*
X04244Y04075D02*
X04276D01*
X0426Y04059D02*
Y04091D01*
X04144Y04075D02*
X04176D01*
X0416Y04059D02*
Y04091D01*
X01094Y0468D02*
X01126D01*
X0111Y04664D02*
Y04696D01*
X01094Y0428D02*
X01126D01*
X0111Y04264D02*
Y04296D01*
X058345Y0317D02*
X058655D01*
X0585Y031545D02*
Y031855D01*
X058345Y0307D02*
X058655D01*
X0585Y030545D02*
Y030855D01*
X058345Y0297D02*
X058655D01*
X0585Y029545D02*
Y029855D01*
X058345Y0287D02*
X058655D01*
X0585Y028545D02*
Y028855D01*
X058345Y0277D02*
X058655D01*
X0585Y027545D02*
Y027855D01*
X058345Y0267D02*
X058655D01*
X0585Y026545D02*
Y026855D01*
X058345Y0257D02*
X058655D01*
X0585Y025545D02*
Y025855D01*
X061345Y0317D02*
X061655D01*
X0615Y031545D02*
Y031855D01*
X061345Y0307D02*
X061655D01*
X0615Y030545D02*
Y030855D01*
X061345Y0297D02*
X061655D01*
X0615Y029545D02*
Y029855D01*
X061345Y0287D02*
X061655D01*
X0615Y028545D02*
Y028855D01*
X061345Y0277D02*
X061655D01*
X0615Y027545D02*
Y027855D01*
X061345Y0267D02*
X061655D01*
X0615Y026545D02*
Y026855D01*
X061345Y0257D02*
X061655D01*
X0615Y025545D02*
Y025855D01*
X06175Y0207D02*
X06215D01*
X06195Y0205D02*
Y0209D01*
X06175Y0197D02*
X06215D01*
X06195Y0195D02*
Y0199D01*
X06175Y0187D02*
X06215D01*
X06195Y0185D02*
Y0189D01*
X056245Y034861D02*
X056555D01*
X0564Y034706D02*
Y035016D01*
X057245Y034861D02*
X057555D01*
X0574Y034706D02*
Y035016D01*
X058245Y034861D02*
X058555D01*
X0584Y034706D02*
Y035016D01*
X059245Y034861D02*
X059555D01*
X0594Y034706D02*
Y035016D01*
X060245Y034861D02*
X060555D01*
X0604Y034706D02*
Y035016D01*
X061245Y034861D02*
X061555D01*
X0614Y034706D02*
Y035016D01*
X062245Y034861D02*
X062555D01*
X0624Y034706D02*
Y035016D01*
X063245Y034861D02*
X063555D01*
X0634Y034706D02*
Y035016D01*
X056245Y037861D02*
X056555D01*
X0564Y037706D02*
Y038016D01*
X057245Y037861D02*
X057555D01*
X0574Y037706D02*
Y038016D01*
X058245Y037861D02*
X058555D01*
X0584Y037706D02*
Y038016D01*
X059245Y037861D02*
X059555D01*
X0594Y037706D02*
Y038016D01*
X060245Y037861D02*
X060555D01*
X0604Y037706D02*
Y038016D01*
X061245Y037861D02*
X061555D01*
X0614Y037706D02*
Y038016D01*
X062245Y037861D02*
X062555D01*
X0624Y037706D02*
Y038016D01*
X063245Y037861D02*
X063555D01*
X0634Y037706D02*
Y038016D01*
X031145Y01735D02*
X031455D01*
X0313Y017195D02*
Y017505D01*
X031145Y01835D02*
X031455D01*
X0313Y018195D02*
Y018505D01*
X031145Y01935D02*
X031455D01*
X0313Y019195D02*
Y019505D01*
X031145Y02035D02*
X031455D01*
X0313Y020195D02*
Y020505D01*
X031145Y02135D02*
X031455D01*
X0313Y021195D02*
Y021505D01*
X031145Y02235D02*
X031455D01*
X0313Y022195D02*
Y022505D01*
X031145Y02335D02*
X031455D01*
X0313Y023195D02*
Y023505D01*
X028145Y01735D02*
X028455D01*
X0283Y017195D02*
Y017505D01*
X028145Y01835D02*
X028455D01*
X0283Y018195D02*
Y018505D01*
X028145Y01935D02*
X028455D01*
X0283Y019195D02*
Y019505D01*
X028145Y02035D02*
X028455D01*
X0283Y020195D02*
Y020505D01*
X028145Y02135D02*
X028455D01*
X0283Y021195D02*
Y021505D01*
X028145Y02235D02*
X028455D01*
X0283Y022195D02*
Y022505D01*
X028145Y02335D02*
X028455D01*
X0283Y023195D02*
Y023505D01*
X049945Y0317D02*
X050255D01*
X0501Y031545D02*
Y031855D01*
X049945Y0307D02*
X050255D01*
X0501Y030545D02*
Y030855D01*
X049945Y0297D02*
X050255D01*
X0501Y029545D02*
Y029855D01*
X049945Y0287D02*
X050255D01*
X0501Y028545D02*
Y028855D01*
X049945Y0277D02*
X050255D01*
X0501Y027545D02*
Y027855D01*
X049945Y0267D02*
X050255D01*
X0501Y026545D02*
Y026855D01*
X049945Y0257D02*
X050255D01*
X0501Y025545D02*
Y025855D01*
X052945Y0317D02*
X053255D01*
X0531Y031545D02*
Y031855D01*
X052945Y0307D02*
X053255D01*
X0531Y030545D02*
Y030855D01*
X052945Y0297D02*
X053255D01*
X0531Y029545D02*
Y029855D01*
X052945Y0287D02*
X053255D01*
X0531Y028545D02*
Y028855D01*
X052945Y0277D02*
X053255D01*
X0531Y027545D02*
Y027855D01*
X052945Y0267D02*
X053255D01*
X0531Y026545D02*
Y026855D01*
X052945Y0257D02*
X053255D01*
X0531Y025545D02*
Y025855D01*
X018245Y0154D02*
X018555D01*
X0184Y015245D02*
Y015555D01*
X020245Y0154D02*
X020555D01*
X0204Y015245D02*
Y015555D01*
X02199Y0172D02*
X02231D01*
X02215Y01704D02*
Y01736D01*
X02199Y0132D02*
X02231D01*
X02215Y01304D02*
Y01336D01*
X03969Y0172D02*
X04001D01*
X03985Y01704D02*
Y01736D01*
X03969Y0132D02*
X04001D01*
X03985Y01304D02*
Y01336D01*
X053545Y01516D02*
X053855D01*
X0537Y015005D02*
Y015315D01*
X053545Y01716D02*
X053855D01*
X0537Y017005D02*
Y017315D01*
X037695Y01516D02*
X038005D01*
X03785Y015005D02*
Y015315D01*
X037695Y01716D02*
X038005D01*
X03785Y017005D02*
Y017315D01*
X040995Y0317D02*
X041305D01*
X04115Y031545D02*
Y031855D01*
X040995Y0307D02*
X041305D01*
X04115Y030545D02*
Y030855D01*
X040995Y0297D02*
X041305D01*
X04115Y029545D02*
Y029855D01*
X040995Y0287D02*
X041305D01*
X04115Y028545D02*
Y028855D01*
X040995Y0277D02*
X041305D01*
X04115Y027545D02*
Y027855D01*
X040995Y0267D02*
X041305D01*
X04115Y026545D02*
Y026855D01*
X040995Y0257D02*
X041305D01*
X04115Y025545D02*
Y025855D01*
X043995Y0317D02*
X044305D01*
X04415Y031545D02*
Y031855D01*
X043995Y0307D02*
X044305D01*
X04415Y030545D02*
Y030855D01*
X043995Y0297D02*
X044305D01*
X04415Y029545D02*
Y029855D01*
X043995Y0287D02*
X044305D01*
X04415Y028545D02*
Y028855D01*
X043995Y0277D02*
X044305D01*
X04415Y027545D02*
Y027855D01*
X043995Y0267D02*
X044305D01*
X04415Y026545D02*
Y026855D01*
X043995Y0257D02*
X044305D01*
X04415Y025545D02*
Y025855D01*
X032145Y0317D02*
X032455D01*
X0323Y031545D02*
Y031855D01*
X032145Y0307D02*
X032455D01*
X0323Y030545D02*
Y030855D01*
X032145Y0297D02*
X032455D01*
X0323Y029545D02*
Y029855D01*
X032145Y0287D02*
X032455D01*
X0323Y028545D02*
Y028855D01*
X032145Y0277D02*
X032455D01*
X0323Y027545D02*
Y027855D01*
X032145Y0267D02*
X032455D01*
X0323Y026545D02*
Y026855D01*
X032145Y0257D02*
X032455D01*
X0323Y025545D02*
Y025855D01*
X035145Y0317D02*
X035455D01*
X0353Y031545D02*
Y031855D01*
X035145Y0307D02*
X035455D01*
X0353Y030545D02*
Y030855D01*
X035145Y0297D02*
X035455D01*
X0353Y029545D02*
Y029855D01*
X035145Y0287D02*
X035455D01*
X0353Y028545D02*
Y028855D01*
X035145Y0277D02*
X035455D01*
X0353Y027545D02*
Y027855D01*
X035145Y0267D02*
X035455D01*
X0353Y026545D02*
Y026855D01*
X035145Y0257D02*
X035455D01*
X0353Y025545D02*
Y025855D01*
X019245Y037861D02*
X019555D01*
X0194Y037706D02*
Y038016D01*
X018245Y037861D02*
X018555D01*
X0184Y037706D02*
Y038016D01*
X017245Y037861D02*
X017555D01*
X0174Y037706D02*
Y038016D01*
X016245Y037861D02*
X016555D01*
X0164Y037706D02*
Y038016D01*
X015245Y037861D02*
X015555D01*
X0154Y037706D02*
Y038016D01*
X014245Y037861D02*
X014555D01*
X0144Y037706D02*
Y038016D01*
X013245Y037861D02*
X013555D01*
X0134Y037706D02*
Y038016D01*
X012245Y037861D02*
X012555D01*
X0124Y037706D02*
Y038016D01*
X019245Y034861D02*
X019555D01*
X0194Y034706D02*
Y035016D01*
X018245Y034861D02*
X018555D01*
X0184Y034706D02*
Y035016D01*
X017245Y034861D02*
X017555D01*
X0174Y034706D02*
Y035016D01*
X016245Y034861D02*
X016555D01*
X0164Y034706D02*
Y035016D01*
X015245Y034861D02*
X015555D01*
X0154Y034706D02*
Y035016D01*
X014245Y034861D02*
X014555D01*
X0144Y034706D02*
Y035016D01*
X013245Y034861D02*
X013555D01*
X0134Y034706D02*
Y035016D01*
X012245Y034861D02*
X012555D01*
X0124Y034706D02*
Y035016D01*
X014395Y0317D02*
X014705D01*
X01455Y031545D02*
Y031855D01*
X014395Y0307D02*
X014705D01*
X01455Y030545D02*
Y030855D01*
X014395Y0297D02*
X014705D01*
X01455Y029545D02*
Y029855D01*
X014395Y0287D02*
X014705D01*
X01455Y028545D02*
Y028855D01*
X014395Y0277D02*
X014705D01*
X01455Y027545D02*
Y027855D01*
X014395Y0267D02*
X014705D01*
X01455Y026545D02*
Y026855D01*
X014395Y0257D02*
X014705D01*
X01455Y025545D02*
Y025855D01*
X017395Y0317D02*
X017705D01*
X01755Y031545D02*
Y031855D01*
X017395Y0307D02*
X017705D01*
X01755Y030545D02*
Y030855D01*
X017395Y0297D02*
X017705D01*
X01755Y029545D02*
Y029855D01*
X017395Y0287D02*
X017705D01*
X01755Y028545D02*
Y028855D01*
X017395Y0277D02*
X017705D01*
X01755Y027545D02*
Y027855D01*
X017395Y0267D02*
X017705D01*
X01755Y026545D02*
Y026855D01*
X017395Y0257D02*
X017705D01*
X01755Y025545D02*
Y025855D01*
X023195Y0317D02*
X023505D01*
X02335Y031545D02*
Y031855D01*
X023195Y0307D02*
X023505D01*
X02335Y030545D02*
Y030855D01*
X023195Y0297D02*
X023505D01*
X02335Y029545D02*
Y029855D01*
X023195Y0287D02*
X023505D01*
X02335Y028545D02*
Y028855D01*
X023195Y0277D02*
X023505D01*
X02335Y027545D02*
Y027855D01*
X023195Y0267D02*
X023505D01*
X02335Y026545D02*
Y026855D01*
X023195Y0257D02*
X023505D01*
X02335Y025545D02*
Y025855D01*
X026195Y0317D02*
X026505D01*
X02635Y031545D02*
Y031855D01*
X026195Y0307D02*
X026505D01*
X02635Y030545D02*
Y030855D01*
X026195Y0297D02*
X026505D01*
X02635Y029545D02*
Y029855D01*
X026195Y0287D02*
X026505D01*
X02635Y028545D02*
Y028855D01*
X026195Y0277D02*
X026505D01*
X02635Y027545D02*
Y027855D01*
X026195Y0267D02*
X026505D01*
X02635Y026545D02*
Y026855D01*
X026195Y0257D02*
X026505D01*
X02635Y025545D02*
Y025855D01*
X021145Y034861D02*
X021455D01*
X0213Y034706D02*
Y035016D01*
X022145Y034861D02*
X022455D01*
X0223Y034706D02*
Y035016D01*
X023145Y034861D02*
X023455D01*
X0233Y034706D02*
Y035016D01*
X024145Y034861D02*
X024455D01*
X0243Y034706D02*
Y035016D01*
X025145Y034861D02*
X025455D01*
X0253Y034706D02*
Y035016D01*
X026145Y034861D02*
X026455D01*
X0263Y034706D02*
Y035016D01*
X027145Y034861D02*
X027455D01*
X0273Y034706D02*
Y035016D01*
X028145Y034861D02*
X028455D01*
X0283Y034706D02*
Y035016D01*
X021145Y037861D02*
X021455D01*
X0213Y037706D02*
Y038016D01*
X022145Y037861D02*
X022455D01*
X0223Y037706D02*
Y038016D01*
X023145Y037861D02*
X023455D01*
X0233Y037706D02*
Y038016D01*
X024145Y037861D02*
X024455D01*
X0243Y037706D02*
Y038016D01*
X025145Y037861D02*
X025455D01*
X0253Y037706D02*
Y038016D01*
X026145Y037861D02*
X026455D01*
X0263Y037706D02*
Y038016D01*
X027145Y037861D02*
X027455D01*
X0273Y037706D02*
Y038016D01*
X028145Y037861D02*
X028455D01*
X0283Y037706D02*
Y038016D01*
X038845Y034861D02*
X039155D01*
X039Y034706D02*
Y035016D01*
X039845Y034861D02*
X040155D01*
X04Y034706D02*
Y035016D01*
X040845Y034861D02*
X041155D01*
X041Y034706D02*
Y035016D01*
X041845Y034861D02*
X042155D01*
X042Y034706D02*
Y035016D01*
X042845Y034861D02*
X043155D01*
X043Y034706D02*
Y035016D01*
X043845Y034861D02*
X044155D01*
X044Y034706D02*
Y035016D01*
X044845Y034861D02*
X045155D01*
X045Y034706D02*
Y035016D01*
X045845Y034861D02*
X046155D01*
X046Y034706D02*
Y035016D01*
X038845Y037861D02*
X039155D01*
X039Y037706D02*
Y038016D01*
X039845Y037861D02*
X040155D01*
X04Y037706D02*
Y038016D01*
X040845Y037861D02*
X041155D01*
X041Y037706D02*
Y038016D01*
X041845Y037861D02*
X042155D01*
X042Y037706D02*
Y038016D01*
X042845Y037861D02*
X043155D01*
X043Y037706D02*
Y038016D01*
X043845Y037861D02*
X044155D01*
X044Y037706D02*
Y038016D01*
X044845Y037861D02*
X045155D01*
X045Y037706D02*
Y038016D01*
X045845Y037861D02*
X046155D01*
X046Y037706D02*
Y038016D01*
X047595Y034861D02*
X047905D01*
X04775Y034706D02*
Y035016D01*
X048595Y034861D02*
X048905D01*
X04875Y034706D02*
Y035016D01*
X049595Y034861D02*
X049905D01*
X04975Y034706D02*
Y035016D01*
X050595Y034861D02*
X050905D01*
X05075Y034706D02*
Y035016D01*
X051595Y034861D02*
X051905D01*
X05175Y034706D02*
Y035016D01*
X052595Y034861D02*
X052905D01*
X05275Y034706D02*
Y035016D01*
X053595Y034861D02*
X053905D01*
X05375Y034706D02*
Y035016D01*
X054595Y034861D02*
X054905D01*
X05475Y034706D02*
Y035016D01*
X047595Y037861D02*
X047905D01*
X04775Y037706D02*
Y038016D01*
X048595Y037861D02*
X048905D01*
X04875Y037706D02*
Y038016D01*
X049595Y037861D02*
X049905D01*
X04975Y037706D02*
Y038016D01*
X050595Y037861D02*
X050905D01*
X05075Y037706D02*
Y038016D01*
X051595Y037861D02*
X051905D01*
X05175Y037706D02*
Y038016D01*
X052595Y037861D02*
X052905D01*
X05275Y037706D02*
Y038016D01*
X053595Y037861D02*
X053905D01*
X05375Y037706D02*
Y038016D01*
X054595Y037861D02*
X054905D01*
X05475Y037706D02*
Y038016D01*
X030095Y034861D02*
X030405D01*
X03025Y034706D02*
Y035016D01*
X031095Y034861D02*
X031405D01*
X03125Y034706D02*
Y035016D01*
X032095Y034861D02*
X032405D01*
X03225Y034706D02*
Y035016D01*
X033095Y034861D02*
X033405D01*
X03325Y034706D02*
Y035016D01*
X034095Y034861D02*
X034405D01*
X03425Y034706D02*
Y035016D01*
X035095Y034861D02*
X035405D01*
X03525Y034706D02*
Y035016D01*
X036095Y034861D02*
X036405D01*
X03625Y034706D02*
Y035016D01*
X037095Y034861D02*
X037405D01*
X03725Y034706D02*
Y035016D01*
X030095Y037861D02*
X030405D01*
X03025Y037706D02*
Y038016D01*
X031095Y037861D02*
X031405D01*
X03125Y037706D02*
Y038016D01*
X032095Y037861D02*
X032405D01*
X03225Y037706D02*
Y038016D01*
X033095Y037861D02*
X033405D01*
X03325Y037706D02*
Y038016D01*
X034095Y037861D02*
X034405D01*
X03425Y037706D02*
Y038016D01*
X035095Y037861D02*
X035405D01*
X03525Y037706D02*
Y038016D01*
X036095Y037861D02*
X036405D01*
X03625Y037706D02*
Y038016D01*
X037095Y037861D02*
X037405D01*
X03725Y037706D02*
Y038016D01*
X01334Y02125D02*
X01406D01*
X0137Y02089D02*
Y02161D01*
X01334Y01929D02*
X01406D01*
X0137Y01893D02*
Y01965D01*
X036271Y018298D02*
X036551D01*
X036411Y018158D02*
Y018438D01*
X03253Y01654D02*
X03281D01*
X03267Y0164D02*
Y01668D01*
X04862Y02413D02*
X0489D01*
X04876Y02399D02*
Y02427D01*
X047016Y016187D02*
X047296D01*
X047156Y016047D02*
Y016327D01*
X04176Y016187D02*
X04204D01*
X0419Y016047D02*
Y016327D01*
X03363Y03182D02*
X03391D01*
X03377Y03168D02*
Y03196D01*
X04492Y02316D02*
X0452D01*
X04506Y02302D02*
Y0233D01*
X01438Y02385D02*
X01466D01*
X01452Y02371D02*
Y02399D01*
X0315Y03578D02*
X03178D01*
X03164Y03564D02*
Y03592D01*
X03506Y0237D02*
X03534D01*
X0352Y02356D02*
Y02384D01*
X03506Y01865D02*
X03534D01*
X0352Y01851D02*
Y01879D01*
X04686Y02503D02*
X04714D01*
X047Y02489D02*
Y02517D01*
X01597Y04181D02*
X01625D01*
X01611Y04167D02*
Y04195D01*
X03609Y03958D02*
X03637D01*
X03623Y03944D02*
Y03972D01*
X03426Y0287D02*
X03454D01*
X0344Y02856D02*
Y02884D01*
M02*
