M48
;Layer_Color=9474304
;FILE_FORMAT=2:4
INCH,LZ
;TYPE=PLATED
T1F00S00C0.0280
T2F00S00C0.0310
T3F00S00C0.0320
T4F00S00C0.0354
T5F00S00C0.0400
T6F00S00C0.0720
%
T01
X047156Y016187
X047Y02503
X04876Y02413
X04506Y02316
X0419Y016187
X036411Y018298
X0352Y01865
X03267Y01654
X0352Y0237
X0344Y0287
X01452Y02385
X01611Y04181
X03164Y03578
X03377Y03182
X03623Y03958
T02
X0184Y0154
X0204
X03785Y01516
X0537
Y01716
X04915Y01735
Y01835
Y01935
Y02035
Y02135
Y02235
Y02335
X0501Y0257
Y0267
Y0277
Y0287
Y0297
Y0307
X0531
Y0297
Y0287
Y0277
Y0267
Y0257
X0585
Y0267
Y0277
Y0287
Y0297
Y0307
X0615
Y0297
Y0287
Y0277
Y0267
Y0257
X04415
Y0267
Y0277
Y0287
Y0297
Y0307
X04115
Y0297
Y0287
Y0277
Y0267
Y0257
X0353
Y0267
Y0277
Y0287
Y0297
Y0307
X0323
Y0297
Y0287
Y0277
Y0267
Y0257
X0313Y02335
Y02235
Y02135
Y02035
Y01935
Y01835
Y01735
X03785Y01716
X04615Y01735
Y01835
Y01935
Y02035
Y02135
Y02235
Y02335
X0283
Y02235
Y02135
Y02035
Y01935
Y01835
Y01735
X02635Y0257
Y0267
Y0277
Y0287
Y0297
Y0307
X02335
Y0297
Y0287
Y0277
Y0267
Y0257
X01755
Y0267
Y0277
Y0287
Y0297
Y0307
X01455
Y0297
Y0287
Y0277
Y0267
Y0257
Y0317
X0144Y034861
X0154
X0134
X0124
Y037861
X0134
X0144
X0154
X0164
X0174
X0184
X0194
X0213
X0223
X0233
X0243
X0253
X0263
X0273
X0283
X03025
Y034861
X0283
X0273
X0263
X0253
X0243
X0233
X0223
X0213
X0194
X0184
X0174
X0164
X01755Y0317
X02335
X02635
X0323
X0353
X03525Y034861
X03425
X03325
X03225
X03125
Y037861
X03225
X03325
X03425
X03525
X03625
X03725
X039
X04
X041
X042
X043
X044
X045
X046
Y034861
X045
X044
X043
X042
X041
X04
X039
X03725
X03625
X04115Y0317
X04415
X0501
X0531
X05275Y034861
X05175
X05075
X04975
X04875
X04775
Y037861
X04875
X04975
X05075
X05175
X05275
X05375
X05475
X0564
X0574
X0584
X0594
X0604
X0614
X0624
Y034861
X0614
X0604
X0594
X0584
X0574
X0564
X05475
X05375
X0585Y0317
X0615
X0634Y034861
Y037861
T03
X02215Y0132
X03985
Y0172
X02215
X01515Y04075
X01415
X01315
X0111Y0428
Y0468
X01315Y04675
X01415
X01515
X01615
X01715
X022
X023
X024
X025
X026
X031
Y04075
X026
X025
X024
X023
X022
X01715
X01615
X032
X033
X034
X035
X0396
X0406
X0416
X0426
X0436
Y04675
X0426
X0416
X0406
X0396
X035
X034
X033
X032
X04845
X04945
X05045
X05145
X05245
X05705
X05805
X05905
X06005
X06105
Y04075
X06005
X05905
X05805
X05705
X05245
X05145
X05045
X04945
X04845
T04
X028552Y01305
X031348
X046702Y0135
X049498
T05
X06195Y0187
Y0197
Y0207
T06
X0137Y01929
Y02125
M30
