G04*
G04 #@! TF.GenerationSoftware,Altium Limited,Altium Designer,21.0.8 (223)*
G04*
G04 Layer_Physical_Order=2*
G04 Layer_Color=16711680*
%FSTAX24Y24*%
%MOIN*%
G70*
G04*
G04 #@! TF.SameCoordinates,7D2A80BF-F15A-477C-97BA-D51E596D6298*
G04*
G04*
G04 #@! TF.FilePolarity,Positive*
G04*
G01*
G75*
%ADD22C,0.0750*%
%ADD30C,0.0315*%
%ADD31C,0.0591*%
%ADD32R,0.0591X0.0591*%
%ADD33R,0.0900X0.0600*%
%ADD34O,0.0900X0.0600*%
%ADD35O,0.0600X0.1000*%
%ADD36C,0.0670*%
%ADD37R,0.0750X0.0750*%
%ADD38R,0.0600X0.0900*%
%ADD39O,0.0600X0.0900*%
%ADD40R,0.1070X0.1070*%
%ADD41C,0.1070*%
%ADD42C,0.0500*%
G36*
X013087Y038607D02*
X013161Y03855D01*
X013218Y038527D01*
Y038473D01*
X013149Y038445D01*
X013046Y038365D01*
X012966Y038261D01*
X012927Y038167D01*
X012873D01*
X012834Y038261D01*
X012754Y038365D01*
X012651Y038445D01*
X01253Y038495D01*
X0124Y038512D01*
X01227Y038495D01*
X012149Y038445D01*
X012142Y038439D01*
X012097Y038461D01*
Y03899D01*
X012085Y039083D01*
X01205Y039169D01*
X011993Y039243D01*
X011919Y0393D01*
X011832Y039335D01*
X01174Y039347D01*
X011647Y039335D01*
X011561Y0393D01*
X011487Y039243D01*
X01143Y039169D01*
X011395Y039083D01*
X011383Y03899D01*
Y03721D01*
X011395Y037118D01*
X01143Y037031D01*
X011487Y036957D01*
X011747Y036697D01*
X011747Y036697D01*
X011821Y03664D01*
X011908Y036605D01*
X012Y036593D01*
X012Y036593D01*
X0141D01*
X014193Y036605D01*
X014279Y03664D01*
X014353Y036697D01*
X014653Y036997D01*
X01471Y037071D01*
X014745Y037157D01*
X014757Y03725D01*
Y03736D01*
X014834Y03746D01*
X014873Y037554D01*
X014927D01*
X014966Y03746D01*
X015043Y03736D01*
Y03729D01*
X015055Y037197D01*
X01509Y037111D01*
X015147Y037037D01*
X015747Y036437D01*
X015821Y03638D01*
X015907Y036345D01*
X016Y036333D01*
X019432D01*
X019451Y036286D01*
X019372Y036207D01*
X01189D01*
X011797Y036195D01*
X011711Y03616D01*
X011637Y036103D01*
X011487Y035953D01*
X01143Y035879D01*
X011395Y035793D01*
X011383Y0357D01*
Y02663D01*
X011395Y026537D01*
X01143Y026451D01*
X011487Y026377D01*
X014073Y023791D01*
Y023791D01*
X014104Y023678D01*
X014162Y023576D01*
X014246Y023492D01*
X014348Y023434D01*
X014461Y023403D01*
X014579D01*
X014692Y023434D01*
X014794Y023492D01*
X014878Y023576D01*
X014936Y023678D01*
X014967Y023791D01*
Y023909D01*
X014936Y024022D01*
X014878Y024124D01*
X014794Y024208D01*
X014692Y024266D01*
X014579Y024297D01*
X014579D01*
X012097Y026778D01*
Y034214D01*
X012897D01*
Y034496D01*
X012947Y034506D01*
X012966Y03446D01*
X013046Y034356D01*
X013149Y034277D01*
X01327Y034226D01*
X0134Y034209D01*
X01353Y034226D01*
X013651Y034277D01*
X013754Y034356D01*
X013834Y03446D01*
X013873Y034554D01*
X013927D01*
X013966Y03446D01*
X014046Y034356D01*
X014149Y034277D01*
X01427Y034226D01*
X0144Y034209D01*
X01453Y034226D01*
X014651Y034277D01*
X014754Y034356D01*
X014834Y03446D01*
X014852Y034503D01*
X014948D01*
X014966Y03446D01*
X015046Y034356D01*
X015149Y034277D01*
X01527Y034226D01*
X0154Y034209D01*
X01553Y034226D01*
X015651Y034277D01*
X015754Y034356D01*
X015834Y03446D01*
X015852Y034503D01*
X015948D01*
X015966Y03446D01*
X016046Y034356D01*
X016149Y034277D01*
X01627Y034226D01*
X016338Y034218D01*
X016354Y03417D01*
X015947Y033763D01*
X01589Y033689D01*
X015855Y033603D01*
X015843Y033511D01*
Y030348D01*
X015148Y029653D01*
X0151Y029676D01*
X015103Y0297D01*
X01509Y029804D01*
X015049Y029902D01*
X014985Y029985D01*
X014902Y030049D01*
X014804Y03009D01*
X0147Y030103D01*
X0146D01*
Y0297D01*
Y029297D01*
X0147D01*
X014724Y0293D01*
X014747Y029252D01*
X014696Y029201D01*
X0144D01*
X01427Y029184D01*
X014149Y029134D01*
X014046Y029054D01*
X013966Y028951D01*
X013916Y02883D01*
X013899Y0287D01*
X013916Y02857D01*
X013966Y028449D01*
X014046Y028346D01*
X014149Y028266D01*
X014243Y028227D01*
Y028173D01*
X014149Y028134D01*
X014046Y028054D01*
X013966Y027951D01*
X013916Y02783D01*
X013899Y0277D01*
X013916Y02757D01*
X013966Y027449D01*
X014046Y027346D01*
X014149Y027266D01*
X014243Y027227D01*
Y027173D01*
X014149Y027134D01*
X014046Y027054D01*
X013966Y026951D01*
X013916Y02683D01*
X013899Y0267D01*
X013916Y02657D01*
X013966Y026449D01*
X014046Y026346D01*
X014149Y026266D01*
X014243Y026227D01*
Y026173D01*
X014149Y026134D01*
X014046Y026054D01*
X013966Y025951D01*
X013916Y02583D01*
X013899Y0257D01*
X013916Y02557D01*
X013966Y025449D01*
X014046Y025346D01*
X014149Y025266D01*
X01427Y025216D01*
X0144Y025199D01*
X014556D01*
X01459Y025155D01*
X014952Y024792D01*
X015026Y024735D01*
X015113Y0247D01*
X015205Y024688D01*
X015205Y024688D01*
X016012D01*
X01605Y024683D01*
X01834D01*
X018433Y024695D01*
X018519Y02473D01*
X018593Y024787D01*
X022148Y028343D01*
X02285D01*
X022949Y028266D01*
X023043Y028227D01*
Y028173D01*
X022949Y028134D01*
X022846Y028054D01*
X022766Y027951D01*
X022716Y02783D01*
X022699Y0277D01*
X022716Y02757D01*
X022766Y027449D01*
X022846Y027346D01*
X022949Y027266D01*
X023043Y027227D01*
Y027173D01*
X022949Y027134D01*
X022846Y027054D01*
X022766Y026951D01*
X022716Y02683D01*
X022699Y0267D01*
X022716Y02657D01*
X022766Y026449D01*
X022846Y026346D01*
X022949Y026266D01*
X023043Y026227D01*
Y026173D01*
X022949Y026134D01*
X022846Y026054D01*
X022766Y025951D01*
X022716Y02583D01*
X0227Y025705D01*
X021897Y024903D01*
X02184Y024829D01*
X021805Y024743D01*
X021793Y02465D01*
Y017595D01*
X021724Y017527D01*
X021654Y017405D01*
X021618Y01727D01*
Y01713D01*
X021654Y016995D01*
X021724Y016873D01*
X021823Y016774D01*
X021945Y016704D01*
X02208Y016668D01*
X022176D01*
X023937Y014907D01*
X024011Y01485D01*
X024097Y014815D01*
X02419Y014803D01*
X02419Y014803D01*
X027545D01*
Y012748D01*
X027558Y012655D01*
X027593Y012569D01*
X02765Y012495D01*
X027997Y012148D01*
X028071Y012091D01*
X028157Y012055D01*
X02825Y012043D01*
X045603D01*
X045695Y012055D01*
X045781Y012091D01*
X045855Y012148D01*
X046716Y013008D01*
X047194D01*
Y013992D01*
X04621D01*
Y013513D01*
X045455Y012758D01*
X040054D01*
X040041Y012808D01*
X040117Y012852D01*
X040198Y012933D01*
X040255Y013032D01*
X040285Y013143D01*
Y01315D01*
X03985D01*
X039415D01*
Y013143D01*
X039445Y013032D01*
X039502Y012933D01*
X039583Y012852D01*
X039659Y012808D01*
X039646Y012758D01*
X03184D01*
Y013542D01*
X030856D01*
Y012758D01*
X029002D01*
X028977Y012801D01*
X029011Y01286D01*
X029044Y012985D01*
Y013115D01*
X029021Y013204D01*
X02989Y014073D01*
X038152D01*
X038245Y014085D01*
X038331Y014121D01*
X038405Y014178D01*
X038985Y014759D01*
X038985Y014759D01*
X039042Y014833D01*
X039078Y014919D01*
X03909Y015011D01*
X03909Y015011D01*
Y015226D01*
X047918D01*
X048011Y015238D01*
X048097Y015274D01*
X048171Y01533D01*
X048355Y015515D01*
X048355Y015515D01*
X048412Y015589D01*
X048448Y015675D01*
X04846Y015768D01*
Y017262D01*
X04851Y017265D01*
X048516Y01722D01*
X048566Y017099D01*
X048646Y016996D01*
X048749Y016916D01*
X04887Y016866D01*
X049Y016849D01*
X0493D01*
X04943Y016866D01*
X049551Y016916D01*
X049654Y016996D01*
X049734Y017099D01*
X049743Y01712D01*
X049793Y01711D01*
Y013948D01*
X049749Y013923D01*
X049688Y013959D01*
X049562Y013992D01*
X049433D01*
X049308Y013959D01*
X049195Y013894D01*
X049104Y013802D01*
X049039Y01369D01*
X049006Y013565D01*
Y013435D01*
X049039Y01331D01*
X049104Y013198D01*
X049195Y013106D01*
X049308Y013041D01*
X049433Y013008D01*
X049562D01*
X049592Y013016D01*
X049617Y012973D01*
X047602Y010957D01*
X022398D01*
X020757Y012598D01*
Y014949D01*
X020858Y015049D01*
X020933Y015179D01*
X020972Y015325D01*
Y015475D01*
X020933Y015621D01*
X020858Y015751D01*
X020751Y015858D01*
X020621Y015933D01*
X020475Y015972D01*
X020325D01*
X020179Y015933D01*
X020049Y015858D01*
X019942Y015751D01*
X019867Y015621D01*
X019828Y015475D01*
Y015325D01*
X019867Y015179D01*
X019942Y015049D01*
X020043Y014949D01*
Y01245D01*
X020055Y012357D01*
X02009Y012271D01*
X020147Y012197D01*
X021993Y010352D01*
X021989Y010324D01*
X021982Y010302D01*
X010252D01*
Y041378D01*
X010298Y041397D01*
X013087Y038607D01*
D02*
G37*
G36*
X064866Y010302D02*
X048018D01*
X048011Y010324D01*
X048007Y010352D01*
X050403Y012747D01*
X050403Y012747D01*
X05046Y012821D01*
X050495Y012908D01*
X050507Y013D01*
X050507Y013D01*
Y022D01*
X050507Y022D01*
X050495Y022092D01*
X05046Y022179D01*
X050403Y022253D01*
X050053Y022603D01*
X049979Y02266D01*
X049893Y022695D01*
X0498Y022707D01*
X04965D01*
X049551Y022784D01*
X049457Y022823D01*
Y022877D01*
X049551Y022916D01*
X049654Y022996D01*
X049734Y023099D01*
X049784Y02322D01*
X049801Y02335D01*
X049784Y02348D01*
X049734Y023601D01*
X049654Y023704D01*
X049551Y023784D01*
X04943Y023834D01*
X0493Y023851D01*
X049173D01*
X049144Y023901D01*
X049176Y023958D01*
X049207Y024071D01*
Y024189D01*
X049176Y024302D01*
X049118Y024404D01*
X049034Y024488D01*
X048932Y024546D01*
X048819Y024577D01*
X048819D01*
X046443Y026953D01*
X046369Y02701D01*
X046283Y027045D01*
X04619Y027057D01*
X04465D01*
X044551Y027134D01*
X044457Y027173D01*
Y027227D01*
X044551Y027266D01*
X044654Y027346D01*
X044734Y027449D01*
X044784Y02757D01*
X044801Y0277D01*
X044784Y02783D01*
X044734Y027951D01*
X044654Y028054D01*
X044551Y028134D01*
X044457Y028173D01*
Y028227D01*
X044551Y028266D01*
X044654Y028346D01*
X044734Y028449D01*
X044784Y02857D01*
X044801Y0287D01*
X044784Y02883D01*
X044734Y028951D01*
X044654Y029054D01*
X044551Y029134D01*
X044457Y029173D01*
Y029227D01*
X044551Y029266D01*
X044654Y029346D01*
X044734Y029449D01*
X044784Y02957D01*
X044801Y0297D01*
X044784Y02983D01*
X044734Y029951D01*
X044654Y030054D01*
X044551Y030134D01*
X04443Y030184D01*
X0443Y030201D01*
X044D01*
X04387Y030184D01*
X043749Y030134D01*
X043646Y030054D01*
X043566Y029951D01*
X043516Y02983D01*
X043499Y0297D01*
X043516Y02957D01*
X043566Y029449D01*
X043646Y029346D01*
X043749Y029266D01*
X043843Y029227D01*
Y029173D01*
X043749Y029134D01*
X043646Y029054D01*
X043566Y028951D01*
X043516Y02883D01*
X043499Y0287D01*
X043516Y02857D01*
X043566Y028449D01*
X043646Y028346D01*
X043749Y028266D01*
X043843Y028227D01*
Y028173D01*
X043749Y028134D01*
X043646Y028054D01*
X043566Y027951D01*
X043516Y02783D01*
X043499Y0277D01*
X043516Y02757D01*
X043566Y027449D01*
X043646Y027346D01*
X043749Y027266D01*
X043843Y027227D01*
Y027173D01*
X043749Y027134D01*
X043646Y027054D01*
X043566Y026951D01*
X043516Y02683D01*
X043499Y0267D01*
X043516Y02657D01*
X043566Y026449D01*
X043646Y026346D01*
X043749Y026266D01*
X043796Y026247D01*
X043786Y026197D01*
X043503D01*
Y026197D01*
X043472Y026184D01*
X041845Y02781D01*
X041771Y027867D01*
X041768Y027868D01*
X041734Y027951D01*
X041654Y028054D01*
X041551Y028134D01*
X041457Y028173D01*
Y028227D01*
X041551Y028266D01*
X041654Y028346D01*
X041734Y028449D01*
X041784Y02857D01*
X041801Y0287D01*
X041784Y02883D01*
X041734Y028951D01*
X041654Y029054D01*
X041551Y029134D01*
X04143Y029184D01*
X0413Y029201D01*
X041D01*
X04087Y029184D01*
X040749Y029134D01*
X04065Y029057D01*
X03993D01*
X03993Y029057D01*
X039838Y029045D01*
X039751Y02901D01*
X039677Y028953D01*
X036122Y025397D01*
X035947D01*
Y026197D01*
X035664D01*
X035654Y026247D01*
X035701Y026266D01*
X035804Y026346D01*
X035884Y026449D01*
X035934Y02657D01*
X035951Y0267D01*
X035934Y02683D01*
X035884Y026951D01*
X035804Y027054D01*
X035701Y027134D01*
X035607Y027173D01*
Y027227D01*
X035701Y027266D01*
X035804Y027346D01*
X035884Y027449D01*
X035934Y02757D01*
X035951Y0277D01*
X035934Y02783D01*
X035884Y027951D01*
X035804Y028054D01*
X035701Y028134D01*
X035607Y028173D01*
Y028227D01*
X035701Y028266D01*
X035804Y028346D01*
X035884Y028449D01*
X035934Y02857D01*
X035951Y0287D01*
X035934Y02883D01*
X035884Y028951D01*
X035804Y029054D01*
X035701Y029134D01*
X035607Y029173D01*
Y029227D01*
X035701Y029266D01*
X035804Y029346D01*
X035884Y029449D01*
X035934Y02957D01*
X035951Y0297D01*
X035934Y02983D01*
X035884Y029951D01*
X035804Y030054D01*
X035701Y030134D01*
X03558Y030184D01*
X03545Y030201D01*
X03515D01*
X03502Y030184D01*
X034899Y030134D01*
X034796Y030054D01*
X034716Y029951D01*
X034666Y02983D01*
X034649Y0297D01*
X034666Y02957D01*
X034716Y029449D01*
X034796Y029346D01*
X034899Y029266D01*
X034993Y029227D01*
Y029173D01*
X034899Y029134D01*
X034796Y029054D01*
X034767Y029018D01*
X034718Y029014D01*
X034674Y029058D01*
X034572Y029116D01*
X034459Y029147D01*
X034341D01*
X034228Y029116D01*
X034126Y029058D01*
X034125Y029057D01*
X0328D01*
X032701Y029134D01*
X03258Y029184D01*
X03245Y029201D01*
X03215D01*
X03202Y029184D01*
X031899Y029134D01*
X031796Y029054D01*
X031716Y028951D01*
X031666Y02883D01*
X031649Y0287D01*
X031666Y02857D01*
X031716Y028449D01*
X031796Y028346D01*
X031899Y028266D01*
X031993Y028227D01*
Y028173D01*
X031899Y028134D01*
X031796Y028054D01*
X031716Y027951D01*
X031666Y02783D01*
X031649Y0277D01*
X031666Y02757D01*
X031716Y027449D01*
X031796Y027346D01*
X031899Y027266D01*
X031993Y027227D01*
Y027173D01*
X031899Y027134D01*
X031796Y027054D01*
X031716Y026951D01*
X031666Y02683D01*
X031649Y0267D01*
X031666Y02657D01*
X031716Y026449D01*
X031796Y026346D01*
X031899Y026266D01*
X031993Y026227D01*
Y026173D01*
X031899Y026134D01*
X031796Y026054D01*
X031716Y025951D01*
X031666Y02583D01*
X031659Y02578D01*
X031612Y025763D01*
X030423Y026953D01*
X030349Y02701D01*
X030262Y027045D01*
X03017Y027057D01*
X029312D01*
Y03567D01*
X0293Y035763D01*
X029264Y035849D01*
X029207Y035923D01*
X029133Y03598D01*
X029047Y036015D01*
X028991Y036023D01*
X028994Y036073D01*
X029259D01*
X029778Y035554D01*
X029759Y035507D01*
X029753D01*
Y034214D01*
X029893D01*
Y032D01*
X029905Y031907D01*
X02994Y031821D01*
X029997Y031747D01*
X031297Y030447D01*
X031371Y03039D01*
X031458Y030355D01*
X03155Y030343D01*
X03155Y030343D01*
X0318D01*
X031899Y030266D01*
X03202Y030216D01*
X03215Y030199D01*
X03245D01*
X03258Y030216D01*
X032701Y030266D01*
X032804Y030346D01*
X032884Y030449D01*
X032934Y03057D01*
X032951Y0307D01*
X032934Y03083D01*
X032884Y030951D01*
X032804Y031054D01*
X032701Y031134D01*
X032607Y031173D01*
Y031227D01*
X032701Y031266D01*
X032804Y031346D01*
X032884Y031449D01*
X032934Y03157D01*
X032951Y0317D01*
X032934Y03183D01*
X032884Y031951D01*
X032804Y032054D01*
X032701Y032134D01*
X03258Y032184D01*
X03245Y032201D01*
X03215D01*
X03202Y032184D01*
X031899Y032134D01*
X031796Y032054D01*
X031716Y031951D01*
X031666Y03183D01*
X031649Y0317D01*
X031666Y03157D01*
X031716Y031449D01*
X031796Y031346D01*
X031899Y031266D01*
X031993Y031227D01*
Y031173D01*
X031899Y031134D01*
X0318Y031057D01*
X031698D01*
X030607Y032148D01*
Y034214D01*
X030747D01*
Y034496D01*
X030797Y034506D01*
X030816Y03446D01*
X030896Y034356D01*
X030999Y034277D01*
X03112Y034226D01*
X03125Y034209D01*
X03138Y034226D01*
X031501Y034277D01*
X031604Y034356D01*
X031684Y03446D01*
X031723Y034554D01*
X031777D01*
X031816Y03446D01*
X031896Y034356D01*
X031999Y034277D01*
X03212Y034226D01*
X03225Y034209D01*
X03238Y034226D01*
X032501Y034277D01*
X032604Y034356D01*
X032684Y03446D01*
X032702Y034503D01*
X032798D01*
X032816Y03446D01*
X032896Y034356D01*
X032999Y034277D01*
X03312Y034226D01*
X03325Y034209D01*
X03338Y034226D01*
X033501Y034277D01*
X033604Y034356D01*
X033684Y03446D01*
X033702Y034503D01*
X033798D01*
X033816Y03446D01*
X033896Y034356D01*
X033999Y034277D01*
X03412Y034226D01*
X03425Y034209D01*
X03438Y034226D01*
X034501Y034277D01*
X034604Y034356D01*
X034684Y03446D01*
X034723Y034554D01*
X034777D01*
X034816Y03446D01*
X034896Y034356D01*
X034999Y034277D01*
X03512Y034226D01*
X03525Y034209D01*
X03538Y034226D01*
X035501Y034277D01*
X035604Y034356D01*
X035684Y03446D01*
X035723Y034554D01*
X035777D01*
X035816Y03446D01*
X035854Y03441D01*
X033711Y032267D01*
X033711D01*
X033598Y032236D01*
X033496Y032178D01*
X033412Y032094D01*
X033354Y031992D01*
X033323Y031879D01*
Y031761D01*
X033354Y031648D01*
X033412Y031546D01*
X033496Y031462D01*
X033598Y031404D01*
X033711Y031373D01*
X033829D01*
X033942Y031404D01*
X034044Y031462D01*
X034128Y031546D01*
X034186Y031648D01*
X034217Y031761D01*
Y031761D01*
X036503Y034047D01*
X03656Y034121D01*
X036595Y034207D01*
X036607Y0343D01*
X036607Y0343D01*
Y03436D01*
X036684Y03446D01*
X036734Y034581D01*
X036751Y034711D01*
Y035011D01*
X036734Y03514D01*
X036684Y035261D01*
X036604Y035365D01*
X036591Y035375D01*
X036607Y035423D01*
X037069D01*
X037079Y035373D01*
X037048Y03536D01*
X036965Y035296D01*
X036901Y035212D01*
X03686Y035115D01*
X036847Y035011D01*
Y034911D01*
X03725D01*
X037653D01*
Y035011D01*
X03764Y035115D01*
X037599Y035212D01*
X037535Y035296D01*
X037452Y03536D01*
X037421Y035373D01*
X037431Y035423D01*
X038503D01*
Y034214D01*
X039497D01*
Y034496D01*
X039547Y034506D01*
X039566Y03446D01*
X039646Y034356D01*
X039749Y034277D01*
X03987Y034226D01*
X04Y034209D01*
X04013Y034226D01*
X040251Y034277D01*
X040354Y034356D01*
X040434Y03446D01*
X040473Y034554D01*
X040527D01*
X040566Y03446D01*
X040646Y034356D01*
X040749Y034277D01*
X04087Y034226D01*
X041Y034209D01*
X04113Y034226D01*
X041251Y034277D01*
X041354Y034356D01*
X041434Y03446D01*
X041452Y034503D01*
X041548D01*
X041566Y03446D01*
X041646Y034356D01*
X041749Y034277D01*
X04187Y034226D01*
X042Y034209D01*
X04213Y034226D01*
X042251Y034277D01*
X042354Y034356D01*
X042434Y03446D01*
X042452Y034503D01*
X042548D01*
X042566Y03446D01*
X042646Y034356D01*
X042749Y034277D01*
X04287Y034226D01*
X043Y034209D01*
X04313Y034226D01*
X043251Y034277D01*
X043354Y034356D01*
X043434Y03446D01*
X043473Y034554D01*
X043527D01*
X043566Y03446D01*
X043646Y034356D01*
X043749Y034277D01*
X04387Y034226D01*
X044Y034209D01*
X04413Y034226D01*
X044251Y034277D01*
X044354Y034356D01*
X044434Y03446D01*
X044473Y034554D01*
X044527D01*
X044566Y03446D01*
X044646Y034356D01*
X044749Y034277D01*
X04487Y034226D01*
X045Y034209D01*
X04513Y034226D01*
X045251Y034277D01*
X045354Y034356D01*
X045434Y03446D01*
X045484Y034581D01*
X045501Y034711D01*
Y035011D01*
X045484Y03514D01*
X045434Y035261D01*
X045354Y035365D01*
X045341Y035375D01*
X045357Y035423D01*
X045819D01*
X045829Y035373D01*
X045798Y03536D01*
X045715Y035296D01*
X045651Y035212D01*
X04561Y035115D01*
X045597Y035011D01*
Y034911D01*
X046D01*
X046403D01*
Y035011D01*
X04639Y035115D01*
X046349Y035212D01*
X046285Y035296D01*
X046202Y03536D01*
X046171Y035373D01*
X046181Y035423D01*
X046352D01*
X046773Y035002D01*
Y032D01*
X046785Y031907D01*
X04682Y031821D01*
X046877Y031747D01*
X048177Y030447D01*
X048251Y03039D01*
X048337Y030355D01*
X04843Y030343D01*
X04843Y030343D01*
X0496D01*
X049699Y030266D01*
X04982Y030216D01*
X04995Y030199D01*
X05025D01*
X05038Y030216D01*
X050501Y030266D01*
X050604Y030346D01*
X050684Y030449D01*
X050734Y03057D01*
X050751Y0307D01*
X050734Y03083D01*
X050684Y030951D01*
X050604Y031054D01*
X050501Y031134D01*
X050407Y031173D01*
Y031227D01*
X050501Y031266D01*
X050604Y031346D01*
X050684Y031449D01*
X050734Y03157D01*
X050751Y0317D01*
X050734Y03183D01*
X050684Y031951D01*
X050604Y032054D01*
X050501Y032134D01*
X05038Y032184D01*
X05025Y032201D01*
X04995D01*
X04982Y032184D01*
X049699Y032134D01*
X049596Y032054D01*
X049516Y031951D01*
X049466Y03183D01*
X049449Y0317D01*
X049466Y03157D01*
X049516Y031449D01*
X049596Y031346D01*
X049699Y031266D01*
X049793Y031227D01*
Y031173D01*
X049699Y031134D01*
X0496Y031057D01*
X049148D01*
X048107Y032098D01*
Y034214D01*
X048247D01*
Y034496D01*
X048297Y034506D01*
X048316Y03446D01*
X048396Y034356D01*
X048499Y034277D01*
X04862Y034226D01*
X04875Y034209D01*
X04888Y034226D01*
X049001Y034277D01*
X049104Y034356D01*
X049184Y03446D01*
X049223Y034554D01*
X049277D01*
X049316Y03446D01*
X049396Y034356D01*
X049499Y034277D01*
X04962Y034226D01*
X04975Y034209D01*
X04988Y034226D01*
X050001Y034277D01*
X050104Y034356D01*
X050184Y03446D01*
X050202Y034503D01*
X050298D01*
X050316Y03446D01*
X050396Y034356D01*
X050499Y034277D01*
X05062Y034226D01*
X05075Y034209D01*
X05088Y034226D01*
X051001Y034277D01*
X051104Y034356D01*
X051184Y03446D01*
X051202Y034503D01*
X051298D01*
X051316Y03446D01*
X051396Y034356D01*
X051499Y034277D01*
X05162Y034226D01*
X05175Y034209D01*
X05188Y034226D01*
X052001Y034277D01*
X052104Y034356D01*
X052184Y03446D01*
X052223Y034554D01*
X052277D01*
X052316Y03446D01*
X052396Y034356D01*
X052499Y034277D01*
X05262Y034226D01*
X05275Y034209D01*
X05288Y034226D01*
X053001Y034277D01*
X053104Y034356D01*
X053184Y03446D01*
X053223Y034554D01*
X053277D01*
X053316Y03446D01*
X053396Y034356D01*
X053499Y034277D01*
X05362Y034226D01*
X05375Y034209D01*
X05388Y034226D01*
X054001Y034277D01*
X054104Y034356D01*
X054184Y03446D01*
X054234Y034581D01*
X054251Y034711D01*
Y035011D01*
X054234Y03514D01*
X054184Y035261D01*
X054104Y035365D01*
X054001Y035445D01*
X05388Y035495D01*
X05375Y035512D01*
X05362Y035495D01*
X053499Y035445D01*
X053396Y035365D01*
X053316Y035261D01*
X053277Y035167D01*
X053223D01*
X053184Y035261D01*
X053104Y035365D01*
X053001Y035445D01*
X05288Y035495D01*
X05275Y035512D01*
X05262Y035495D01*
X052499Y035445D01*
X052396Y035365D01*
X052316Y035261D01*
X052277Y035167D01*
X052223D01*
X052184Y035261D01*
X052104Y035365D01*
X052001Y035445D01*
X05188Y035495D01*
X05175Y035512D01*
X05162Y035495D01*
X051499Y035445D01*
X051396Y035365D01*
X051316Y035261D01*
X051298Y035218D01*
X051202D01*
X051184Y035261D01*
X051104Y035365D01*
X051001Y035445D01*
X05088Y035495D01*
X05075Y035512D01*
X05062Y035495D01*
X050499Y035445D01*
X050396Y035365D01*
X050316Y035261D01*
X050298Y035218D01*
X050202D01*
X050184Y035261D01*
X050104Y035365D01*
X050001Y035445D01*
X04988Y035495D01*
X04975Y035512D01*
X04962Y035495D01*
X049499Y035445D01*
X049396Y035365D01*
X049316Y035261D01*
X049277Y035167D01*
X049223D01*
X049184Y035261D01*
X049104Y035365D01*
X049001Y035445D01*
X04888Y035495D01*
X04875Y035512D01*
X04862Y035495D01*
X048499Y035445D01*
X048396Y035365D01*
X048316Y035261D01*
X048297Y035215D01*
X048247Y035225D01*
Y035507D01*
X047278D01*
X046829Y035956D01*
X046848Y036003D01*
X05011D01*
X050202Y036015D01*
X050289Y03605D01*
X050363Y036107D01*
X051003Y036747D01*
X05106Y036821D01*
X051095Y036907D01*
X051107Y037D01*
X051107Y037D01*
Y03736D01*
X051184Y03746D01*
X051223Y037554D01*
X051277D01*
X051316Y03746D01*
X051396Y037356D01*
X051499Y037277D01*
X05162Y037226D01*
X05175Y037209D01*
X05188Y037226D01*
X052001Y037277D01*
X052104Y037356D01*
X052184Y03746D01*
X052223Y037554D01*
X052277D01*
X052316Y03746D01*
X052396Y037356D01*
X052499Y037277D01*
X05262Y037226D01*
X05275Y037209D01*
X05288Y037226D01*
X053001Y037277D01*
X053104Y037356D01*
X053184Y03746D01*
X053223Y037554D01*
X053277D01*
X053316Y03746D01*
X053396Y037356D01*
X053499Y037277D01*
X05362Y037226D01*
X05375Y037209D01*
X05388Y037226D01*
X054001Y037277D01*
X054104Y037356D01*
X054184Y03746D01*
X054223Y037554D01*
X054277D01*
X054316Y03746D01*
X054396Y037356D01*
X054499Y037277D01*
X05462Y037226D01*
X05475Y037209D01*
X05488Y037226D01*
X055001Y037277D01*
X055104Y037356D01*
X055184Y03746D01*
X055234Y037581D01*
X055251Y037711D01*
Y038011D01*
X055234Y03814D01*
X055184Y038261D01*
X055107Y038361D01*
Y041D01*
X055095Y041093D01*
X05506Y041179D01*
X055003Y041253D01*
X055003Y041253D01*
X053573Y042683D01*
X053499Y04274D01*
X053412Y042775D01*
X05332Y042787D01*
X049648D01*
X049629Y042834D01*
X052703Y045907D01*
X05276Y045981D01*
X052795Y046068D01*
X052807Y04616D01*
Y0462D01*
X052884Y046299D01*
X052934Y04642D01*
X052951Y04655D01*
Y04695D01*
X052934Y04708D01*
X052884Y047201D01*
X052804Y047304D01*
X052701Y047384D01*
X05258Y047434D01*
X05245Y047451D01*
X05232Y047434D01*
X052199Y047384D01*
X052096Y047304D01*
X052016Y047201D01*
X051977Y047107D01*
X051923D01*
X051884Y047201D01*
X051807Y0473D01*
Y04761D01*
X051795Y047702D01*
X05176Y047789D01*
X051703Y047863D01*
X051629Y04792D01*
X051543Y047955D01*
X05145Y047967D01*
X03895D01*
X038858Y047955D01*
X038771Y04792D01*
X038697Y047863D01*
X038087Y047253D01*
X03803Y047179D01*
X037995Y047092D01*
X037983Y047D01*
Y03705D01*
X037995Y036957D01*
X03803Y036871D01*
X038087Y036797D01*
X038701Y036184D01*
X038682Y036137D01*
X031915D01*
X031914Y036138D01*
X031812Y036196D01*
X031699Y036227D01*
X031581D01*
X031468Y036196D01*
X031366Y036138D01*
X031282Y036054D01*
X031224Y035952D01*
X031193Y035839D01*
Y035721D01*
X031224Y035608D01*
X031252Y035559D01*
X031223Y035508D01*
X03112Y035495D01*
X030999Y035445D01*
X030896Y035365D01*
X030816Y035261D01*
X030797Y035215D01*
X030747Y035225D01*
Y035507D01*
X030607D01*
Y035587D01*
X030595Y03568D01*
X03056Y035766D01*
X030503Y03584D01*
X02966Y036683D01*
X029586Y03674D01*
X0295Y036775D01*
X029407Y036787D01*
X029268D01*
X029243Y036837D01*
X02927Y036871D01*
X029305Y036957D01*
X029317Y03705D01*
Y037056D01*
X029367Y037077D01*
X029647Y036797D01*
X029721Y03674D01*
X029808Y036705D01*
X0299Y036693D01*
X031D01*
X031093Y036705D01*
X031179Y03674D01*
X031253Y036797D01*
X031503Y037047D01*
X031503Y037047D01*
X03156Y037121D01*
X031595Y037208D01*
X031607Y0373D01*
Y03736D01*
X031684Y03746D01*
X031723Y037554D01*
X031777D01*
X031816Y03746D01*
X031896Y037356D01*
X031999Y037277D01*
X03212Y037226D01*
X03225Y037209D01*
X03238Y037226D01*
X032501Y037277D01*
X032604Y037356D01*
X032684Y03746D01*
X032723Y037554D01*
X032777D01*
X032816Y03746D01*
X032896Y037356D01*
X032999Y037277D01*
X03312Y037226D01*
X03325Y037209D01*
X03338Y037226D01*
X033501Y037277D01*
X033604Y037356D01*
X033684Y03746D01*
X033723Y037554D01*
X033777D01*
X033816Y03746D01*
X033896Y037356D01*
X033999Y037277D01*
X03412Y037226D01*
X03425Y037209D01*
X03438Y037226D01*
X034501Y037277D01*
X034604Y037356D01*
X034684Y03746D01*
X034723Y037554D01*
X034777D01*
X034816Y03746D01*
X034896Y037356D01*
X034999Y037277D01*
X03512Y037226D01*
X03525Y037209D01*
X03538Y037226D01*
X035501Y037277D01*
X035604Y037356D01*
X035684Y03746D01*
X035723Y037554D01*
X035777D01*
X035816Y03746D01*
X035896Y037356D01*
X035999Y037277D01*
X03612Y037226D01*
X03625Y037209D01*
X03638Y037226D01*
X036501Y037277D01*
X036604Y037356D01*
X036684Y03746D01*
X036723Y037554D01*
X036777D01*
X036816Y03746D01*
X036896Y037356D01*
X036999Y037277D01*
X03712Y037226D01*
X03725Y037209D01*
X03738Y037226D01*
X037501Y037277D01*
X037604Y037356D01*
X037684Y03746D01*
X037734Y037581D01*
X037751Y037711D01*
Y038011D01*
X037734Y03814D01*
X037684Y038261D01*
X037607Y038361D01*
Y04016D01*
X037595Y040252D01*
X03756Y040339D01*
X037503Y040413D01*
X035943Y041973D01*
X035869Y04203D01*
X035782Y042065D01*
X03569Y042077D01*
X03125D01*
X031158Y042065D01*
X031071Y04203D01*
X030997Y041973D01*
X030997Y041973D01*
X030747Y041723D01*
X030735Y041723D01*
X030697Y041735D01*
Y041942D01*
X034253Y045497D01*
X03431Y045571D01*
X034345Y045658D01*
X034357Y04575D01*
X034357Y04575D01*
Y0462D01*
X034434Y046299D01*
X034473Y046393D01*
X034527D01*
X034566Y046299D01*
X034646Y046196D01*
X034749Y046116D01*
X03487Y046066D01*
X035Y046049D01*
X03513Y046066D01*
X035251Y046116D01*
X035354Y046196D01*
X035434Y046299D01*
X035484Y04642D01*
X035501Y04655D01*
Y04695D01*
X035484Y04708D01*
X035434Y047201D01*
X035354Y047304D01*
X035251Y047384D01*
X03513Y047434D01*
X035Y047451D01*
X03487Y047434D01*
X034749Y047384D01*
X034646Y047304D01*
X034566Y047201D01*
X034527Y047107D01*
X034473D01*
X034434Y047201D01*
X034354Y047304D01*
X034251Y047384D01*
X03413Y047434D01*
X034Y047451D01*
X03387Y047434D01*
X033749Y047384D01*
X033646Y047304D01*
X033566Y047201D01*
X033527Y047107D01*
X033473D01*
X033434Y047201D01*
X033354Y047304D01*
X033251Y047384D01*
X03313Y047434D01*
X033Y047451D01*
X03287Y047434D01*
X032749Y047384D01*
X032646Y047304D01*
X032566Y047201D01*
X032527Y047107D01*
X032473D01*
X032434Y047201D01*
X032354Y047304D01*
X032251Y047384D01*
X03213Y047434D01*
X032Y047451D01*
X03187Y047434D01*
X031749Y047384D01*
X031646Y047304D01*
X031566Y047201D01*
X031527Y047107D01*
X031473D01*
X031434Y047201D01*
X031354Y047304D01*
X031251Y047384D01*
X03113Y047434D01*
X031Y047451D01*
X03087Y047434D01*
X030749Y047384D01*
X030646Y047304D01*
X030566Y047201D01*
X030516Y04708D01*
X030499Y04695D01*
Y04655D01*
X030516Y04642D01*
X030566Y046299D01*
X030646Y046196D01*
X030749Y046116D01*
X03087Y046066D01*
X031Y046049D01*
X03113Y046066D01*
X031251Y046116D01*
X031354Y046196D01*
X031434Y046299D01*
X031473Y046393D01*
X031527D01*
X031566Y046299D01*
X031643Y0462D01*
Y044628D01*
X029337Y042323D01*
X02928Y042249D01*
X029245Y042162D01*
X029233Y04207D01*
Y040094D01*
X029183Y040073D01*
X025357Y043898D01*
Y0462D01*
X025434Y046299D01*
X025473Y046393D01*
X025527D01*
X025566Y046299D01*
X025646Y046196D01*
X025749Y046116D01*
X02587Y046066D01*
X026Y046049D01*
X02613Y046066D01*
X026251Y046116D01*
X026354Y046196D01*
X026434Y046299D01*
X026484Y04642D01*
X026501Y04655D01*
Y04695D01*
X026484Y04708D01*
X026434Y047201D01*
X026354Y047304D01*
X026251Y047384D01*
X02613Y047434D01*
X026Y047451D01*
X02587Y047434D01*
X025749Y047384D01*
X025646Y047304D01*
X025566Y047201D01*
X025527Y047107D01*
X025473D01*
X025434Y047201D01*
X025354Y047304D01*
X025251Y047384D01*
X02513Y047434D01*
X025Y047451D01*
X02487Y047434D01*
X024749Y047384D01*
X024646Y047304D01*
X024566Y047201D01*
X024527Y047107D01*
X024473D01*
X024434Y047201D01*
X024354Y047304D01*
X024251Y047384D01*
X02413Y047434D01*
X024Y047451D01*
X02387Y047434D01*
X023749Y047384D01*
X023646Y047304D01*
X023566Y047201D01*
X023527Y047107D01*
X023473D01*
X023434Y047201D01*
X023354Y047304D01*
X023251Y047384D01*
X02313Y047434D01*
X023Y047451D01*
X02287Y047434D01*
X022749Y047384D01*
X022646Y047304D01*
X022566Y047201D01*
X022527Y047107D01*
X022473D01*
X022434Y047201D01*
X022354Y047304D01*
X022251Y047384D01*
X02213Y047434D01*
X022Y047451D01*
X02187Y047434D01*
X021749Y047384D01*
X021646Y047304D01*
X021566Y047201D01*
X021516Y04708D01*
X021499Y04695D01*
Y04655D01*
X021516Y04642D01*
X021566Y046299D01*
X021646Y046196D01*
X021749Y046116D01*
X02187Y046066D01*
X022Y046049D01*
X02213Y046066D01*
X022251Y046116D01*
X022354Y046196D01*
X022434Y046299D01*
X022473Y046393D01*
X022527D01*
X022566Y046299D01*
X022643Y0462D01*
Y043898D01*
X020387Y041643D01*
X02033Y041569D01*
X020295Y041483D01*
X020283Y04139D01*
Y040188D01*
X020236Y040169D01*
X016507Y043898D01*
Y0462D01*
X016584Y046299D01*
X016623Y046393D01*
X016677D01*
X016716Y046299D01*
X016796Y046196D01*
X016899Y046116D01*
X01702Y046066D01*
X01715Y046049D01*
X01728Y046066D01*
X017401Y046116D01*
X017504Y046196D01*
X017584Y046299D01*
X017634Y04642D01*
X017651Y04655D01*
Y04695D01*
X017634Y04708D01*
X017584Y047201D01*
X017507Y0473D01*
Y0475D01*
X017495Y047593D01*
X01746Y047679D01*
X017403Y047753D01*
X016823Y048333D01*
X016749Y04839D01*
X016662Y048425D01*
X01657Y048437D01*
X011D01*
X010907Y048425D01*
X010821Y04839D01*
X010747Y048333D01*
X010298Y047883D01*
X010252Y047902D01*
Y049168D01*
X064866D01*
Y010302D01*
D02*
G37*
G36*
X027989Y035263D02*
X027951Y035212D01*
X02791Y035115D01*
X027897Y035011D01*
Y034911D01*
X0283D01*
Y034861D01*
X02835D01*
Y034314D01*
X028404Y034321D01*
X028502Y034361D01*
X028547Y034396D01*
X028597Y034371D01*
Y027057D01*
X02685D01*
X026751Y027134D01*
X026657Y027173D01*
Y027227D01*
X026751Y027266D01*
X026854Y027346D01*
X026934Y027449D01*
X026984Y02757D01*
X027001Y0277D01*
X026984Y02783D01*
X026934Y027951D01*
X026854Y028054D01*
X026751Y028134D01*
X026657Y028173D01*
Y028227D01*
X026751Y028266D01*
X026854Y028346D01*
X026934Y028449D01*
X026984Y02857D01*
X027001Y0287D01*
X026984Y02883D01*
X026934Y028951D01*
X026854Y029054D01*
X026751Y029134D01*
X026657Y029173D01*
Y029227D01*
X026751Y029266D01*
X026854Y029346D01*
X026934Y029449D01*
X026984Y02957D01*
X027001Y0297D01*
X026984Y02983D01*
X026934Y029951D01*
X026854Y030054D01*
X026751Y030134D01*
X02663Y030184D01*
X0265Y030201D01*
X0262D01*
X02607Y030184D01*
X025949Y030134D01*
X025846Y030054D01*
X025766Y029951D01*
X025716Y02983D01*
X025699Y0297D01*
X025716Y02957D01*
X025766Y029449D01*
X025846Y029346D01*
X025949Y029266D01*
X026043Y029227D01*
Y029173D01*
X025949Y029134D01*
X025846Y029054D01*
X025766Y028951D01*
X025716Y02883D01*
X025699Y0287D01*
X025716Y02857D01*
X025766Y028449D01*
X025846Y028346D01*
X025949Y028266D01*
X026043Y028227D01*
Y028173D01*
X025949Y028134D01*
X025846Y028054D01*
X025766Y027951D01*
X025716Y02783D01*
X025699Y0277D01*
X025716Y02757D01*
X025766Y027449D01*
X025846Y027346D01*
X025949Y027266D01*
X026043Y027227D01*
Y027173D01*
X025949Y027134D01*
X025846Y027054D01*
X025766Y026951D01*
X025716Y02683D01*
X025699Y0267D01*
X025716Y02657D01*
X025766Y026449D01*
X025846Y026346D01*
X025949Y026266D01*
X025996Y026247D01*
X025986Y026197D01*
X025703D01*
Y025412D01*
X025683Y025398D01*
X025653Y025392D01*
X025207Y025838D01*
Y031D01*
X025195Y031093D01*
X02516Y031179D01*
X025103Y031253D01*
X025103Y031253D01*
X024403Y031953D01*
X024329Y03201D01*
X024242Y032045D01*
X02415Y032057D01*
X02385D01*
X023751Y032134D01*
X02363Y032184D01*
X0235Y032201D01*
X0232D01*
X02307Y032184D01*
X022949Y032134D01*
X022846Y032054D01*
X022766Y031951D01*
X022716Y03183D01*
X022699Y0317D01*
X022716Y03157D01*
X022766Y031449D01*
X022846Y031346D01*
X022949Y031266D01*
X023043Y031227D01*
Y031173D01*
X022949Y031134D01*
X02285Y031057D01*
X022748D01*
X021657Y032148D01*
Y034214D01*
X021797D01*
Y034496D01*
X021847Y034506D01*
X021866Y03446D01*
X021946Y034356D01*
X022049Y034277D01*
X02217Y034226D01*
X0223Y034209D01*
X02243Y034226D01*
X022551Y034277D01*
X022654Y034356D01*
X022734Y03446D01*
X022773Y034554D01*
X022827D01*
X022866Y03446D01*
X022946Y034356D01*
X023049Y034277D01*
X02317Y034226D01*
X0233Y034209D01*
X02343Y034226D01*
X023551Y034277D01*
X023654Y034356D01*
X023734Y03446D01*
X023752Y034503D01*
X023848D01*
X023866Y03446D01*
X023946Y034356D01*
X024049Y034277D01*
X02417Y034226D01*
X0243Y034209D01*
X02443Y034226D01*
X024551Y034277D01*
X024654Y034356D01*
X024734Y03446D01*
X024752Y034503D01*
X024848D01*
X024866Y03446D01*
X024946Y034356D01*
X025049Y034277D01*
X02517Y034226D01*
X0253Y034209D01*
X02543Y034226D01*
X025551Y034277D01*
X025654Y034356D01*
X025734Y03446D01*
X025773Y034554D01*
X025827D01*
X025866Y03446D01*
X025946Y034356D01*
X026049Y034277D01*
X02617Y034226D01*
X0263Y034209D01*
X02643Y034226D01*
X026551Y034277D01*
X026654Y034356D01*
X026734Y03446D01*
X026773Y034554D01*
X026827D01*
X026866Y03446D01*
X026946Y034356D01*
X027049Y034277D01*
X02717Y034226D01*
X0273Y034209D01*
X02743Y034226D01*
X027551Y034277D01*
X027654Y034356D01*
X027734Y03446D01*
X027784Y034581D01*
X027801Y034711D01*
Y035011D01*
X027784Y03514D01*
X027734Y035261D01*
X027729Y035268D01*
X027751Y035313D01*
X027965D01*
X027989Y035263D01*
D02*
G37*
G36*
X020614Y036023D02*
X020557Y036015D01*
X020471Y03598D01*
X020397Y035923D01*
X020097Y035623D01*
X02004Y035549D01*
X020005Y035463D01*
X019993Y03537D01*
Y034528D01*
X018822Y033357D01*
X01674D01*
X016649Y033345D01*
X016647Y033345D01*
X016595Y033378D01*
X016593Y033398D01*
X017405Y03421D01*
X01753Y034226D01*
X017651Y034277D01*
X017754Y034356D01*
X017834Y03446D01*
X017873Y034554D01*
X017927D01*
X017966Y03446D01*
X018046Y034356D01*
X018149Y034277D01*
X01827Y034226D01*
X0184Y034209D01*
X01853Y034226D01*
X018651Y034277D01*
X018754Y034356D01*
X018834Y03446D01*
X018884Y034581D01*
X018901Y034711D01*
Y035011D01*
X018884Y03514D01*
X018834Y035261D01*
X018754Y035365D01*
X018653Y035443D01*
X018653Y035446D01*
X018681Y035493D01*
X01952D01*
X019612Y035505D01*
X019699Y03554D01*
X019773Y035597D01*
X020248Y036073D01*
X02061D01*
X020614Y036023D01*
D02*
G37*
G36*
X020803Y035247D02*
Y034214D01*
X020943D01*
Y032D01*
X020955Y031907D01*
X02099Y031821D01*
X021047Y031747D01*
X022347Y030447D01*
X022421Y03039D01*
X022508Y030355D01*
X0226Y030343D01*
X0226Y030343D01*
X02285D01*
X022949Y030266D01*
X02307Y030216D01*
X0232Y030199D01*
X0235D01*
X02363Y030216D01*
X023751Y030266D01*
X023854Y030346D01*
X023934Y030449D01*
X023984Y03057D01*
X024001Y0307D01*
X023984Y03083D01*
X023934Y030951D01*
X023854Y031054D01*
X023751Y031134D01*
X023657Y031173D01*
Y031227D01*
X023751Y031266D01*
X02385Y031343D01*
X024002D01*
X024493Y030852D01*
Y02569D01*
X024505Y025598D01*
X02454Y025511D01*
X024597Y025437D01*
X025247Y024787D01*
X025321Y02473D01*
X025407Y024695D01*
X027004Y023097D01*
X027078Y02304D01*
X027165Y023005D01*
X027257Y022993D01*
X027653D01*
Y022853D01*
X027936D01*
X027946Y022803D01*
X027899Y022784D01*
X027796Y022704D01*
X027716Y022601D01*
X027666Y02248D01*
X027649Y02235D01*
X027666Y02222D01*
X027716Y022099D01*
X027796Y021996D01*
X027899Y021916D01*
X027993Y021877D01*
Y021823D01*
X027899Y021784D01*
X027796Y021704D01*
X027716Y021601D01*
X027666Y02148D01*
X027649Y02135D01*
X027666Y02122D01*
X027716Y021099D01*
X027796Y020996D01*
X027899Y020916D01*
X027993Y020877D01*
Y020823D01*
X027899Y020784D01*
X0278Y020707D01*
X0275D01*
X027408Y020695D01*
X027321Y02066D01*
X027247Y020603D01*
X026747Y020103D01*
X02669Y020029D01*
X026655Y019943D01*
X026643Y01985D01*
Y01754D01*
X026655Y017448D01*
X02669Y017361D01*
X026747Y017287D01*
X027747Y016287D01*
X027747Y016287D01*
X027821Y01623D01*
X027908Y016195D01*
X028Y016183D01*
X028Y016183D01*
X032395D01*
X032396Y016182D01*
X032498Y016124D01*
X032611Y016093D01*
X032729D01*
X032842Y016124D01*
X032944Y016182D01*
X033028Y016266D01*
X033086Y016368D01*
X033117Y016481D01*
Y016599D01*
X033086Y016712D01*
X033028Y016814D01*
X032944Y016898D01*
X032842Y016956D01*
X032729Y016987D01*
X032611D01*
X032498Y016956D01*
X032396Y016898D01*
X032395Y016897D01*
X031758D01*
X031741Y016947D01*
X031804Y016996D01*
X031884Y017099D01*
X031934Y01722D01*
X031949Y017337D01*
X036661D01*
X036754Y017349D01*
X03684Y017384D01*
X036914Y017441D01*
X037005Y017532D01*
X037347D01*
X037376Y017482D01*
X037317Y017381D01*
X037278Y017235D01*
Y017085D01*
X037317Y016939D01*
X037392Y016809D01*
X037499Y016702D01*
X037629Y016627D01*
X037775Y016588D01*
X037925D01*
X038071Y016627D01*
X038201Y016702D01*
X038308Y016809D01*
X038327Y016842D01*
X038375Y01683D01*
Y015583D01*
Y01549D01*
X038327Y015478D01*
X038308Y015511D01*
X038201Y015618D01*
X038071Y015693D01*
X037925Y015732D01*
X037775D01*
X037629Y015693D01*
X037499Y015618D01*
X037399Y015517D01*
X024338D01*
X022682Y017174D01*
Y01727D01*
X022646Y017405D01*
X022576Y017527D01*
X022507Y017595D01*
Y024502D01*
X023204Y025199D01*
X0235D01*
X02363Y025216D01*
X023751Y025266D01*
X023854Y025346D01*
X023934Y025449D01*
X023984Y02557D01*
X024001Y0257D01*
X023984Y02583D01*
X023934Y025951D01*
X023854Y026054D01*
X023751Y026134D01*
X023657Y026173D01*
Y026227D01*
X023751Y026266D01*
X023854Y026346D01*
X023934Y026449D01*
X023984Y02657D01*
X024001Y0267D01*
X023984Y02683D01*
X023934Y026951D01*
X023854Y027054D01*
X023751Y027134D01*
X023657Y027173D01*
Y027227D01*
X023751Y027266D01*
X023854Y027346D01*
X023934Y027449D01*
X023984Y02757D01*
X024001Y0277D01*
X023984Y02783D01*
X023934Y027951D01*
X023854Y028054D01*
X023751Y028134D01*
X023657Y028173D01*
Y028227D01*
X023751Y028266D01*
X023854Y028346D01*
X023934Y028449D01*
X023984Y02857D01*
X024001Y0287D01*
X023984Y02883D01*
X023934Y028951D01*
X023854Y029054D01*
X023751Y029134D01*
X02363Y029184D01*
X0235Y029201D01*
X0232D01*
X02307Y029184D01*
X022949Y029134D01*
X02285Y029057D01*
X022D01*
X022Y029057D01*
X021907Y029045D01*
X021821Y02901D01*
X021747Y028953D01*
X018243Y025448D01*
X018197Y025468D01*
Y026197D01*
X017914D01*
X017904Y026247D01*
X017951Y026266D01*
X018054Y026346D01*
X018134Y026449D01*
X018184Y02657D01*
X018201Y0267D01*
X018184Y02683D01*
X018134Y026951D01*
X018054Y027054D01*
X017951Y027134D01*
X017857Y027173D01*
Y027227D01*
X017951Y027266D01*
X018054Y027346D01*
X018134Y027449D01*
X018184Y02757D01*
X018201Y0277D01*
X018184Y02783D01*
X018134Y027951D01*
X018054Y028054D01*
X017951Y028134D01*
X017857Y028173D01*
Y028227D01*
X017951Y028266D01*
X018054Y028346D01*
X018134Y028449D01*
X018184Y02857D01*
X018201Y0287D01*
X018184Y02883D01*
X018134Y028951D01*
X018054Y029054D01*
X017951Y029134D01*
X017857Y029173D01*
Y029227D01*
X017951Y029266D01*
X018054Y029346D01*
X018134Y029449D01*
X018184Y02957D01*
X018201Y0297D01*
X018184Y02983D01*
X018134Y029951D01*
X018054Y030054D01*
X017951Y030134D01*
X01783Y030184D01*
X0177Y030201D01*
X0174D01*
X01727Y030184D01*
X017149Y030134D01*
X017142Y030128D01*
X017097Y030151D01*
Y030365D01*
X017147Y03039D01*
X017198Y030351D01*
X017296Y03031D01*
X0174Y030297D01*
X0175D01*
Y0307D01*
Y031103D01*
X0174D01*
X017296Y03109D01*
X017198Y031049D01*
X017147Y03101D01*
X017097Y031035D01*
Y031365D01*
X017147Y03139D01*
X017198Y031351D01*
X017296Y03131D01*
X0174Y031297D01*
X0175D01*
Y0317D01*
Y032103D01*
X0174D01*
X017296Y03209D01*
X017198Y032049D01*
X017147Y03201D01*
X017097Y032035D01*
Y032643D01*
X01897D01*
X019062Y032655D01*
X019149Y03269D01*
X019223Y032747D01*
X020603Y034127D01*
X02066Y034201D01*
X020695Y034288D01*
X020707Y03438D01*
X020707Y03438D01*
Y035222D01*
X020753Y035268D01*
X020803Y035247D01*
D02*
G37*
G36*
X040749Y028266D02*
X040843Y028227D01*
Y028173D01*
X040749Y028134D01*
X040646Y028054D01*
X040566Y027951D01*
X040516Y02783D01*
X040499Y0277D01*
X040516Y02757D01*
X040566Y027449D01*
X040646Y027346D01*
X040749Y027266D01*
X040843Y027227D01*
Y027173D01*
X040749Y027134D01*
X040646Y027054D01*
X040566Y026951D01*
X040516Y02683D01*
X040499Y0267D01*
X040516Y02657D01*
X040566Y026449D01*
X040646Y026346D01*
X040749Y026266D01*
X040843Y026227D01*
Y026173D01*
X040749Y026134D01*
X040646Y026054D01*
X040566Y025951D01*
X040516Y02583D01*
X040499Y0257D01*
X040516Y02557D01*
X040566Y025449D01*
X040646Y025346D01*
X040749Y025266D01*
X04087Y025216D01*
X041Y025199D01*
X0413D01*
X04143Y025216D01*
X041551Y025266D01*
X04165Y025343D01*
X041832D01*
X042397Y024777D01*
X042471Y02472D01*
X042558Y024685D01*
X04265Y024673D01*
X046725D01*
X046726Y024672D01*
X046828Y024614D01*
X046941Y024583D01*
X047059D01*
X047172Y024614D01*
X047274Y024672D01*
X047358Y024756D01*
X047416Y024858D01*
X047427Y024897D01*
X047475Y024909D01*
X048313Y024071D01*
Y024071D01*
X048344Y023958D01*
X048402Y023856D01*
X048486Y023772D01*
X048512Y023757D01*
X048498Y023707D01*
X047798D01*
X047203Y024303D01*
X047129Y02436D01*
X047042Y024395D01*
X04695Y024407D01*
X03872D01*
X038628Y024395D01*
X038541Y02436D01*
X038467Y024303D01*
X037118Y022953D01*
X034729D01*
X034696Y022957D01*
X032448D01*
X031945Y02346D01*
X031936Y023468D01*
X031934Y02348D01*
X031884Y023601D01*
X031804Y023704D01*
X031701Y023784D01*
X03158Y023834D01*
X03145Y023851D01*
X03115D01*
X03102Y023834D01*
X030899Y023784D01*
X030796Y023704D01*
X030716Y023601D01*
X030666Y02348D01*
X030649Y02335D01*
X030666Y02322D01*
X030716Y023099D01*
X030796Y022996D01*
X030899Y022916D01*
X030993Y022877D01*
Y022823D01*
X030899Y022784D01*
X030796Y022704D01*
X030716Y022601D01*
X030666Y02248D01*
X030649Y02235D01*
X030666Y02222D01*
X030716Y022099D01*
X030796Y021996D01*
X030899Y021916D01*
X030993Y021877D01*
Y021823D01*
X030899Y021784D01*
X030796Y021704D01*
X030716Y021601D01*
X030666Y02148D01*
X030649Y02135D01*
X030666Y02122D01*
X030716Y021099D01*
X030796Y020996D01*
X030899Y020916D01*
X030993Y020877D01*
Y020823D01*
X030899Y020784D01*
X030796Y020704D01*
X030716Y020601D01*
X030666Y02048D01*
X030649Y02035D01*
X030666Y02022D01*
X030716Y020099D01*
X030796Y019996D01*
X030899Y019916D01*
X030993Y019877D01*
Y019823D01*
X030899Y019784D01*
X030796Y019704D01*
X030716Y019601D01*
X030666Y01948D01*
X030649Y01935D01*
X030666Y01922D01*
X030716Y019099D01*
X030796Y018996D01*
X030899Y018916D01*
X030993Y018877D01*
Y018823D01*
X030899Y018784D01*
X030796Y018704D01*
X030716Y018601D01*
X030666Y01848D01*
X030649Y01835D01*
X030666Y01822D01*
X030716Y018099D01*
X030796Y017996D01*
X030899Y017916D01*
X030993Y017877D01*
Y017823D01*
X030899Y017784D01*
X030796Y017704D01*
X030716Y017601D01*
X030666Y01748D01*
X030649Y01735D01*
X030666Y01722D01*
X030716Y017099D01*
X030796Y016996D01*
X030859Y016947D01*
X030842Y016897D01*
X02846D01*
X028456Y016947D01*
X028554Y01696D01*
X028652Y017001D01*
X028735Y017065D01*
X028799Y017148D01*
X02884Y017246D01*
X028847Y0173D01*
X0283D01*
Y01735D01*
X02825D01*
Y017753D01*
X02815D01*
X028046Y01774D01*
X027948Y017699D01*
X027865Y017635D01*
X027801Y017552D01*
X02776Y017454D01*
X027749Y017367D01*
X0277Y017345D01*
X027357Y017688D01*
Y019702D01*
X027648Y019993D01*
X0278D01*
X027899Y019916D01*
X027993Y019877D01*
Y019823D01*
X027899Y019784D01*
X027796Y019704D01*
X027716Y019601D01*
X027666Y01948D01*
X027649Y01935D01*
X027666Y01922D01*
X027716Y019099D01*
X027796Y018996D01*
X027899Y018916D01*
X027993Y018877D01*
Y018823D01*
X027899Y018784D01*
X027796Y018704D01*
X027716Y018601D01*
X027666Y01848D01*
X027649Y01835D01*
X027666Y01822D01*
X027716Y018099D01*
X027796Y017996D01*
X027899Y017916D01*
X02802Y017866D01*
X02815Y017849D01*
X02845D01*
X02858Y017866D01*
X028701Y017916D01*
X028804Y017996D01*
X028884Y018099D01*
X028934Y01822D01*
X028951Y01835D01*
X028934Y01848D01*
X028884Y018601D01*
X028804Y018704D01*
X028701Y018784D01*
X028607Y018823D01*
Y018877D01*
X028701Y018916D01*
X028804Y018996D01*
X028884Y019099D01*
X028934Y01922D01*
X028951Y01935D01*
X028934Y01948D01*
X028884Y019601D01*
X028804Y019704D01*
X028701Y019784D01*
X028607Y019823D01*
Y019877D01*
X028701Y019916D01*
X028804Y019996D01*
X028884Y020099D01*
X028934Y02022D01*
X028951Y02035D01*
X028934Y02048D01*
X028884Y020601D01*
X028804Y020704D01*
X028701Y020784D01*
X028607Y020823D01*
Y020877D01*
X028701Y020916D01*
X028804Y020996D01*
X028884Y021099D01*
X028934Y02122D01*
X028951Y02135D01*
X028934Y02148D01*
X028884Y021601D01*
X028804Y021704D01*
X028701Y021784D01*
X028607Y021823D01*
Y021877D01*
X028701Y021916D01*
X028804Y021996D01*
X028884Y022099D01*
X028934Y02222D01*
X028951Y02235D01*
X028934Y02248D01*
X028884Y022601D01*
X028804Y022704D01*
X028701Y022784D01*
X028654Y022803D01*
X028664Y022853D01*
X028947D01*
Y023847D01*
X027653D01*
Y023707D01*
X027405D01*
X025956Y025157D01*
X025975Y025203D01*
X026997D01*
Y026197D01*
X026714D01*
X026704Y026247D01*
X026751Y026266D01*
X02685Y026343D01*
X030022D01*
X032417Y023947D01*
X032491Y02389D01*
X032578Y023855D01*
X03267Y023843D01*
X034552D01*
X034753Y023641D01*
Y023641D01*
X034784Y023528D01*
X034842Y023426D01*
X034926Y023342D01*
X035028Y023284D01*
X035141Y023253D01*
X035259D01*
X035372Y023284D01*
X035474Y023342D01*
X035558Y023426D01*
X035616Y023528D01*
X035647Y023641D01*
Y023759D01*
X035616Y023872D01*
X035558Y023974D01*
X035474Y024058D01*
X035372Y024116D01*
X035259Y024147D01*
X035259D01*
X034953Y024453D01*
X034879Y02451D01*
X034793Y024545D01*
X0347Y024557D01*
X032818D01*
X032223Y025153D01*
X032242Y025199D01*
X032373D01*
X032785Y024787D01*
X032859Y02473D01*
X032945Y024695D01*
X033037Y024683D01*
X03627D01*
X036363Y024695D01*
X036449Y02473D01*
X036523Y024787D01*
X040078Y028343D01*
X04065D01*
X040749Y028266D01*
D02*
G37*
G36*
X047397Y023097D02*
X047397Y023097D01*
X047471Y02304D01*
X047558Y023005D01*
X04765Y022993D01*
X04865D01*
X048749Y022916D01*
X048843Y022877D01*
Y022823D01*
X048749Y022784D01*
X048646Y022704D01*
X048566Y022601D01*
X048516Y02248D01*
X048499Y02235D01*
X048516Y02222D01*
X048566Y022099D01*
X048646Y021996D01*
X048749Y021916D01*
X04887Y021866D01*
X049Y021849D01*
X0493D01*
X04943Y021866D01*
X049551Y021916D01*
X04965Y021993D01*
X049652D01*
X049793Y021852D01*
Y02059D01*
X049743Y02058D01*
X049734Y020601D01*
X049654Y020704D01*
X049551Y020784D01*
X04943Y020834D01*
X0493Y020851D01*
X049D01*
X04887Y020834D01*
X048749Y020784D01*
X04865Y020707D01*
X047317D01*
Y023112D01*
X047364Y023131D01*
X047397Y023097D01*
D02*
G37*
G36*
X048749Y019916D02*
X048843Y019877D01*
Y019823D01*
X048749Y019784D01*
X048699Y019745D01*
X0485D01*
X048407Y019733D01*
X048321Y019697D01*
X048247Y01964D01*
X04785Y019243D01*
X047793Y019169D01*
X047757Y019083D01*
X047745Y018991D01*
Y015941D01*
X04758D01*
X047555Y015984D01*
X047573Y016015D01*
X047603Y016129D01*
Y016246D01*
X047573Y01636D01*
X047514Y016462D01*
X047431Y016545D01*
X047329Y016604D01*
X047215Y016634D01*
X047097D01*
X046984Y016604D01*
X046882Y016545D01*
X046882Y016545D01*
X042257D01*
Y0172D01*
X042245Y017292D01*
X04221Y017379D01*
X042153Y017453D01*
X042079Y01751D01*
X041993Y017545D01*
X0419Y017557D01*
X040245D01*
X040177Y017626D01*
X040055Y017696D01*
X03992Y017732D01*
X03978D01*
X039645Y017696D01*
X039523Y017626D01*
X039424Y017527D01*
X039354Y017405D01*
X039318Y01727D01*
Y01713D01*
X039354Y016995D01*
X039424Y016873D01*
X039523Y016774D01*
X039645Y016704D01*
X03978Y016668D01*
X03992D01*
X040055Y016704D01*
X040177Y016774D01*
X040245Y016843D01*
X041543D01*
Y016462D01*
X041542Y016462D01*
X041484Y01636D01*
X041453Y016246D01*
Y016129D01*
X041484Y016015D01*
X041502Y015984D01*
X041477Y015941D01*
X03909D01*
Y017509D01*
X039078Y017602D01*
X039042Y017688D01*
X038985Y017762D01*
X038605Y018142D01*
X038531Y018199D01*
X038445Y018235D01*
X038353Y018247D01*
X036935D01*
X036915Y018297D01*
X037261Y018643D01*
X045202D01*
X0455Y018345D01*
X045516Y01822D01*
X045566Y018099D01*
X045646Y017996D01*
X045749Y017916D01*
X04587Y017866D01*
X046Y017849D01*
X0463D01*
X04643Y017866D01*
X046551Y017916D01*
X046654Y017996D01*
X046734Y018099D01*
X046784Y01822D01*
X046801Y01835D01*
X046784Y01848D01*
X046734Y018601D01*
X046654Y018704D01*
X046551Y018784D01*
X046457Y018823D01*
Y018877D01*
X046551Y018916D01*
X046654Y018996D01*
X046734Y019099D01*
X046784Y01922D01*
X046801Y01935D01*
X046784Y01948D01*
X046734Y019601D01*
X046654Y019704D01*
X046551Y019784D01*
X046457Y019823D01*
Y019877D01*
X046551Y019916D01*
X04665Y019993D01*
X04865D01*
X048749Y019916D01*
D02*
G37*
%LPC*%
G36*
X0147Y032201D02*
X0144D01*
X01427Y032184D01*
X014149Y032134D01*
X014046Y032054D01*
X013966Y031951D01*
X013916Y03183D01*
X013899Y0317D01*
X013916Y03157D01*
X013966Y031449D01*
X014046Y031346D01*
X014149Y031266D01*
X014243Y031227D01*
Y031173D01*
X014149Y031134D01*
X014046Y031054D01*
X013966Y030951D01*
X013916Y03083D01*
X013899Y0307D01*
X013916Y03057D01*
X013966Y030449D01*
X014046Y030346D01*
X014149Y030266D01*
X01427Y030216D01*
X0144Y030199D01*
X0147D01*
X01483Y030216D01*
X014951Y030266D01*
X015054Y030346D01*
X015134Y030449D01*
X015184Y03057D01*
X015201Y0307D01*
X015184Y03083D01*
X015134Y030951D01*
X015054Y031054D01*
X014951Y031134D01*
X014857Y031173D01*
Y031227D01*
X014951Y031266D01*
X015054Y031346D01*
X015134Y031449D01*
X015184Y03157D01*
X015201Y0317D01*
X015184Y03183D01*
X015134Y031951D01*
X015054Y032054D01*
X014951Y032134D01*
X01483Y032184D01*
X0147Y032201D01*
D02*
G37*
G36*
X0145Y030103D02*
X0144D01*
X014296Y03009D01*
X014198Y030049D01*
X014115Y029985D01*
X014051Y029902D01*
X01401Y029804D01*
X014003Y02975D01*
X0145D01*
Y030103D01*
D02*
G37*
G36*
Y02965D02*
X014003D01*
X01401Y029596D01*
X014051Y029498D01*
X014115Y029415D01*
X014198Y029351D01*
X014296Y02931D01*
X0144Y029297D01*
X0145D01*
Y02965D01*
D02*
G37*
G36*
X014335Y021885D02*
X01375D01*
Y0213D01*
X014335D01*
Y021885D01*
D02*
G37*
G36*
X01365D02*
X013065D01*
Y0213D01*
X01365D01*
Y021885D01*
D02*
G37*
G36*
X014335Y0212D02*
X01375D01*
Y020615D01*
X014335D01*
Y0212D01*
D02*
G37*
G36*
X01365D02*
X013065D01*
Y020615D01*
X01365D01*
Y0212D01*
D02*
G37*
G36*
X013772Y020022D02*
X013628D01*
X013487Y019994D01*
X013353Y019939D01*
X013233Y019858D01*
X013132Y019757D01*
X013051Y019637D01*
X012996Y019503D01*
X012968Y019362D01*
Y019218D01*
X012996Y019077D01*
X013051Y018943D01*
X013132Y018823D01*
X013233Y018722D01*
X013353Y018641D01*
X013487Y018586D01*
X013628Y018558D01*
X013772D01*
X013901Y018584D01*
X0173Y015185D01*
X017374Y015128D01*
X01746Y015092D01*
X017553Y01508D01*
X017924D01*
X017942Y015049D01*
X018049Y014942D01*
X018179Y014867D01*
X018325Y014828D01*
X018475D01*
X018621Y014867D01*
X018751Y014942D01*
X018858Y015049D01*
X018933Y015179D01*
X018972Y015325D01*
Y015475D01*
X018933Y015621D01*
X018858Y015751D01*
X018751Y015858D01*
X018621Y015933D01*
X018475Y015972D01*
X018325D01*
X018179Y015933D01*
X018049Y015858D01*
X017986Y015795D01*
X017701D01*
X014406Y019089D01*
X014432Y019218D01*
Y019362D01*
X014404Y019503D01*
X014349Y019637D01*
X014268Y019757D01*
X014167Y019858D01*
X014047Y019939D01*
X013913Y019994D01*
X013772Y020022D01*
D02*
G37*
G36*
X039907Y013635D02*
X0399D01*
Y01325D01*
X040285D01*
Y013257D01*
X040255Y013368D01*
X040198Y013467D01*
X040117Y013548D01*
X040018Y013605D01*
X039907Y013635D01*
D02*
G37*
G36*
X022207D02*
X0222D01*
Y01325D01*
X022585D01*
Y013257D01*
X022555Y013368D01*
X022498Y013467D01*
X022417Y013548D01*
X022318Y013605D01*
X022207Y013635D01*
D02*
G37*
G36*
X0398D02*
X039793D01*
X039682Y013605D01*
X039583Y013548D01*
X039502Y013467D01*
X039445Y013368D01*
X039415Y013257D01*
Y01325D01*
X0398D01*
Y013635D01*
D02*
G37*
G36*
X0221D02*
X022093D01*
X021982Y013605D01*
X021883Y013548D01*
X021802Y013467D01*
X021745Y013368D01*
X021715Y013257D01*
Y01325D01*
X0221D01*
Y013635D01*
D02*
G37*
G36*
X022585Y01315D02*
X0222D01*
Y012765D01*
X022207D01*
X022318Y012795D01*
X022417Y012852D01*
X022498Y012933D01*
X022555Y013032D01*
X022585Y013143D01*
Y01315D01*
D02*
G37*
G36*
X0221D02*
X021715D01*
Y013143D01*
X021745Y013032D01*
X021802Y012933D01*
X021883Y012852D01*
X021982Y012795D01*
X022093Y012765D01*
X0221D01*
Y01315D01*
D02*
G37*
G36*
X06105Y047451D02*
X06092Y047434D01*
X060799Y047384D01*
X060696Y047304D01*
X060616Y047201D01*
X060577Y047107D01*
X060523D01*
X060484Y047201D01*
X060404Y047304D01*
X060301Y047384D01*
X06018Y047434D01*
X06005Y047451D01*
X05992Y047434D01*
X059799Y047384D01*
X059696Y047304D01*
X059616Y047201D01*
X059577Y047107D01*
X059523D01*
X059484Y047201D01*
X059404Y047304D01*
X059301Y047384D01*
X05918Y047434D01*
X05905Y047451D01*
X05892Y047434D01*
X058799Y047384D01*
X058696Y047304D01*
X058616Y047201D01*
X058577Y047107D01*
X058523D01*
X058484Y047201D01*
X058404Y047304D01*
X058301Y047384D01*
X05818Y047434D01*
X05805Y047451D01*
X05792Y047434D01*
X057799Y047384D01*
X057696Y047304D01*
X057616Y047201D01*
X057577Y047107D01*
X057523D01*
X057484Y047201D01*
X057404Y047304D01*
X057301Y047384D01*
X05718Y047434D01*
X05705Y047451D01*
X05692Y047434D01*
X056799Y047384D01*
X056696Y047304D01*
X056616Y047201D01*
X056566Y04708D01*
X056549Y04695D01*
Y04655D01*
X056566Y04642D01*
X056616Y046299D01*
X056693Y0462D01*
Y045078D01*
X055487Y043873D01*
X05543Y043799D01*
X055395Y043713D01*
X055383Y04362D01*
Y0373D01*
X055395Y037208D01*
X05543Y037121D01*
X055487Y037047D01*
X055747Y036787D01*
X055747Y036787D01*
X055821Y03673D01*
X055908Y036695D01*
X056Y036683D01*
X056Y036683D01*
X0584D01*
X058492Y036695D01*
X058579Y03673D01*
X058653Y036787D01*
X05871Y036861D01*
X058745Y036948D01*
X058757Y03704D01*
Y03736D01*
X058834Y03746D01*
X058873Y037554D01*
X058927D01*
X058966Y03746D01*
X059046Y037356D01*
X059149Y037277D01*
X05927Y037226D01*
X059395Y03721D01*
X060058Y036547D01*
X060132Y03649D01*
X060218Y036455D01*
X060311Y036443D01*
X063415D01*
X063507Y036455D01*
X063594Y03649D01*
X063668Y036547D01*
X064307Y037187D01*
X064364Y037261D01*
X0644Y037347D01*
X064412Y037439D01*
X064412Y037439D01*
Y044561D01*
X0644Y044654D01*
X064364Y04474D01*
X064307Y044814D01*
X063108Y046013D01*
X063034Y04607D01*
X062948Y046105D01*
X062856Y046117D01*
X06138D01*
X061364Y046165D01*
X061404Y046196D01*
X061484Y046299D01*
X061534Y04642D01*
X061551Y04655D01*
Y04695D01*
X061534Y04708D01*
X061484Y047201D01*
X061404Y047304D01*
X061301Y047384D01*
X06118Y047434D01*
X06105Y047451D01*
D02*
G37*
G36*
X0624Y035512D02*
X06227Y035495D01*
X062149Y035445D01*
X062046Y035365D01*
X061966Y035261D01*
X061927Y035167D01*
X061873D01*
X061834Y035261D01*
X061754Y035365D01*
X061651Y035445D01*
X06153Y035495D01*
X0614Y035512D01*
X06127Y035495D01*
X061149Y035445D01*
X061046Y035365D01*
X060966Y035261D01*
X060927Y035167D01*
X060873D01*
X060834Y035261D01*
X060754Y035365D01*
X060651Y035445D01*
X06053Y035495D01*
X0604Y035512D01*
X06027Y035495D01*
X060149Y035445D01*
X060046Y035365D01*
X059966Y035261D01*
X059948Y035218D01*
X059852D01*
X059834Y035261D01*
X059754Y035365D01*
X059651Y035445D01*
X05953Y035495D01*
X0594Y035512D01*
X05927Y035495D01*
X059149Y035445D01*
X059046Y035365D01*
X058966Y035261D01*
X058948Y035218D01*
X058852D01*
X058834Y035261D01*
X058754Y035365D01*
X058651Y035445D01*
X05853Y035495D01*
X0584Y035512D01*
X05827Y035495D01*
X058149Y035445D01*
X058046Y035365D01*
X057966Y035261D01*
X057927Y035167D01*
X057873D01*
X057834Y035261D01*
X057754Y035365D01*
X057651Y035445D01*
X05753Y035495D01*
X0574Y035512D01*
X05727Y035495D01*
X057149Y035445D01*
X057046Y035365D01*
X056966Y035261D01*
X056947Y035215D01*
X056897Y035225D01*
Y035507D01*
X055903D01*
Y034214D01*
X056897D01*
Y034496D01*
X056947Y034506D01*
X056966Y03446D01*
X057046Y034356D01*
X057149Y034277D01*
X05727Y034226D01*
X0574Y034209D01*
X05753Y034226D01*
X057651Y034277D01*
X057754Y034356D01*
X057834Y03446D01*
X057873Y034554D01*
X057927D01*
X057966Y03446D01*
X058046Y034356D01*
X058149Y034277D01*
X05827Y034226D01*
X0584Y034209D01*
X05853Y034226D01*
X058651Y034277D01*
X058754Y034356D01*
X058834Y03446D01*
X058852Y034503D01*
X058948D01*
X058966Y03446D01*
X059046Y034356D01*
X059149Y034277D01*
X05927Y034226D01*
X0594Y034209D01*
X05953Y034226D01*
X059651Y034277D01*
X059754Y034356D01*
X059834Y03446D01*
X059852Y034503D01*
X059948D01*
X059966Y03446D01*
X060046Y034356D01*
X060149Y034277D01*
X06027Y034226D01*
X0604Y034209D01*
X06053Y034226D01*
X060651Y034277D01*
X060754Y034356D01*
X060834Y03446D01*
X060873Y034554D01*
X060927D01*
X060966Y03446D01*
X061043Y03436D01*
Y034148D01*
X060602Y033707D01*
X05595D01*
X05595Y033707D01*
X05595Y033707D01*
X05295D01*
X052857Y033695D01*
X052771Y03366D01*
X052697Y033603D01*
X051347Y032253D01*
X05129Y032179D01*
X051255Y032092D01*
X051243Y032D01*
Y026448D01*
X050852Y026057D01*
X0506D01*
X050501Y026134D01*
X050407Y026173D01*
Y026227D01*
X050501Y026266D01*
X050604Y026346D01*
X050684Y026449D01*
X050734Y02657D01*
X050751Y0267D01*
X050734Y02683D01*
X050684Y026951D01*
X050604Y027054D01*
X050501Y027134D01*
X050407Y027173D01*
Y027227D01*
X050501Y027266D01*
X050604Y027346D01*
X050684Y027449D01*
X050734Y02757D01*
X050751Y0277D01*
X050734Y02783D01*
X050684Y027951D01*
X050604Y028054D01*
X050501Y028134D01*
X050407Y028173D01*
Y028227D01*
X050501Y028266D01*
X050604Y028346D01*
X050684Y028449D01*
X050734Y02857D01*
X050751Y0287D01*
X050734Y02883D01*
X050684Y028951D01*
X050604Y029054D01*
X050501Y029134D01*
X05038Y029184D01*
X05025Y029201D01*
X04995D01*
X04982Y029184D01*
X049699Y029134D01*
X049596Y029054D01*
X049516Y028951D01*
X049466Y02883D01*
X049449Y0287D01*
X049466Y02857D01*
X049516Y028449D01*
X049596Y028346D01*
X049699Y028266D01*
X049793Y028227D01*
Y028173D01*
X049699Y028134D01*
X049596Y028054D01*
X049516Y027951D01*
X049466Y02783D01*
X049449Y0277D01*
X049466Y02757D01*
X049516Y027449D01*
X049596Y027346D01*
X049699Y027266D01*
X049793Y027227D01*
Y027173D01*
X049699Y027134D01*
X049596Y027054D01*
X049516Y026951D01*
X049466Y02683D01*
X049449Y0267D01*
X049466Y02657D01*
X049516Y026449D01*
X049596Y026346D01*
X049699Y026266D01*
X049793Y026227D01*
Y026173D01*
X049699Y026134D01*
X049596Y026054D01*
X049516Y025951D01*
X049466Y02583D01*
X049449Y0257D01*
X049466Y02557D01*
X049516Y025449D01*
X049596Y025346D01*
X049699Y025266D01*
X04982Y025216D01*
X04995Y025199D01*
X05025D01*
X05038Y025216D01*
X050501Y025266D01*
X0506Y025343D01*
X051D01*
X051093Y025355D01*
X051179Y02539D01*
X051253Y025447D01*
X051853Y026047D01*
X05191Y026121D01*
X051945Y026207D01*
X051957Y0263D01*
Y031852D01*
X053098Y032993D01*
X055543D01*
Y02875D01*
X055555Y028658D01*
X05559Y028571D01*
X055647Y028497D01*
X055697Y028447D01*
X055771Y02839D01*
X055858Y028355D01*
X05595Y028343D01*
X05595Y028343D01*
X058D01*
X058099Y028266D01*
X058193Y028227D01*
Y028173D01*
X058099Y028134D01*
X057996Y028054D01*
X057916Y027951D01*
X057866Y02783D01*
X057849Y0277D01*
X057866Y02757D01*
X057916Y027449D01*
X057996Y027346D01*
X058099Y027266D01*
X058193Y027227D01*
Y027173D01*
X058099Y027134D01*
X057996Y027054D01*
X057916Y026951D01*
X057866Y02683D01*
X057849Y0267D01*
X057866Y02657D01*
X057916Y026449D01*
X057996Y026346D01*
X058099Y026266D01*
X058193Y026227D01*
Y026173D01*
X058099Y026134D01*
X057996Y026054D01*
X057916Y025951D01*
X057866Y02583D01*
X057849Y0257D01*
X057866Y02557D01*
X057916Y025449D01*
X057996Y025346D01*
X058099Y025266D01*
X058143Y025248D01*
Y02323D01*
X058155Y023138D01*
X05819Y023051D01*
X058247Y022977D01*
X060777Y020447D01*
X060851Y02039D01*
X060938Y020355D01*
X06103Y020343D01*
X061499D01*
X061599Y020242D01*
X061719Y020173D01*
X061725Y020138D01*
X061723Y020117D01*
X061658Y02008D01*
X06157Y019992D01*
X061507Y019883D01*
X061475Y019763D01*
Y01975D01*
X06195D01*
X062425D01*
Y019763D01*
X062393Y019883D01*
X06233Y019992D01*
X062242Y02008D01*
X062177Y020117D01*
X062175Y020138D01*
X062181Y020173D01*
X062301Y020242D01*
X062408Y020349D01*
X062483Y020479D01*
X062522Y020625D01*
Y020775D01*
X062483Y020921D01*
X062408Y021051D01*
X062301Y021158D01*
X062171Y021233D01*
X062025Y021272D01*
X061875D01*
X061729Y021233D01*
X061599Y021158D01*
X061499Y021057D01*
X061178D01*
X058857Y023378D01*
Y025248D01*
X058901Y025266D01*
X059004Y025346D01*
X059084Y025449D01*
X059134Y02557D01*
X059151Y0257D01*
X059134Y02583D01*
X059084Y025951D01*
X059004Y026054D01*
X058901Y026134D01*
X058807Y026173D01*
Y026227D01*
X058901Y026266D01*
X059004Y026346D01*
X059084Y026449D01*
X059134Y02657D01*
X059143Y026638D01*
X05919Y026654D01*
X060397Y025447D01*
X060471Y02539D01*
X060557Y025355D01*
X06065Y025343D01*
X060853D01*
Y025203D01*
X062147D01*
Y025349D01*
X062193Y025355D01*
X062279Y02539D01*
X062353Y025447D01*
X062653Y025747D01*
X06271Y025821D01*
X062745Y025907D01*
X062757Y026D01*
Y03436D01*
X062834Y03446D01*
X062884Y034581D01*
X062901Y034711D01*
Y035011D01*
X062884Y03514D01*
X062834Y035261D01*
X062754Y035365D01*
X062651Y035445D01*
X06253Y035495D01*
X0624Y035512D01*
D02*
G37*
G36*
X06345Y035407D02*
Y034911D01*
X063803D01*
Y035011D01*
X06379Y035115D01*
X063749Y035212D01*
X063685Y035296D01*
X063602Y03536D01*
X063504Y0354D01*
X06345Y035407D01*
D02*
G37*
G36*
X0548D02*
Y034911D01*
X055153D01*
Y035011D01*
X05514Y035115D01*
X055099Y035212D01*
X055035Y035296D01*
X054952Y03536D01*
X054854Y0354D01*
X0548Y035407D01*
D02*
G37*
G36*
X06335D02*
X063296Y0354D01*
X063198Y03536D01*
X063115Y035296D01*
X063051Y035212D01*
X06301Y035115D01*
X062997Y035011D01*
Y034911D01*
X06335D01*
Y035407D01*
D02*
G37*
G36*
X0547D02*
X054646Y0354D01*
X054548Y03536D01*
X054465Y035296D01*
X054401Y035212D01*
X05436Y035115D01*
X054347Y035011D01*
Y034911D01*
X0547D01*
Y035407D01*
D02*
G37*
G36*
X063803Y034811D02*
X06345D01*
Y034314D01*
X063504Y034321D01*
X063602Y034361D01*
X063685Y034425D01*
X063749Y034509D01*
X06379Y034606D01*
X063803Y034711D01*
Y034811D01*
D02*
G37*
G36*
X055153D02*
X0548D01*
Y034314D01*
X054854Y034321D01*
X054952Y034361D01*
X055035Y034425D01*
X055099Y034509D01*
X05514Y034606D01*
X055153Y034711D01*
Y034811D01*
D02*
G37*
G36*
X046403D02*
X04605D01*
Y034314D01*
X046104Y034321D01*
X046202Y034361D01*
X046285Y034425D01*
X046349Y034509D01*
X04639Y034606D01*
X046403Y034711D01*
Y034811D01*
D02*
G37*
G36*
X037653D02*
X0373D01*
Y034314D01*
X037354Y034321D01*
X037452Y034361D01*
X037535Y034425D01*
X037599Y034509D01*
X03764Y034606D01*
X037653Y034711D01*
Y034811D01*
D02*
G37*
G36*
X06335D02*
X062997D01*
Y034711D01*
X06301Y034606D01*
X063051Y034509D01*
X063115Y034425D01*
X063198Y034361D01*
X063296Y034321D01*
X06335Y034314D01*
Y034811D01*
D02*
G37*
G36*
X0547D02*
X054347D01*
Y034711D01*
X05436Y034606D01*
X054401Y034509D01*
X054465Y034425D01*
X054548Y034361D01*
X054646Y034321D01*
X0547Y034314D01*
Y034811D01*
D02*
G37*
G36*
X04595D02*
X045597D01*
Y034711D01*
X04561Y034606D01*
X045651Y034509D01*
X045715Y034425D01*
X045798Y034361D01*
X045896Y034321D01*
X04595Y034314D01*
Y034811D01*
D02*
G37*
G36*
X0372D02*
X036847D01*
Y034711D01*
X03686Y034606D01*
X036901Y034509D01*
X036965Y034425D01*
X037048Y034361D01*
X037146Y034321D01*
X0372Y034314D01*
Y034811D01*
D02*
G37*
G36*
X03545Y032103D02*
X03535D01*
Y03175D01*
X035847D01*
X03584Y031804D01*
X035799Y031902D01*
X035735Y031985D01*
X035652Y032049D01*
X035554Y03209D01*
X03545Y032103D01*
D02*
G37*
G36*
X05325D02*
X05315D01*
Y03175D01*
X053647D01*
X05364Y031804D01*
X053599Y031902D01*
X053535Y031985D01*
X053452Y032049D01*
X053354Y03209D01*
X05325Y032103D01*
D02*
G37*
G36*
X0443D02*
X0442D01*
Y03175D01*
X044697D01*
X04469Y031804D01*
X044649Y031902D01*
X044585Y031985D01*
X044502Y032049D01*
X044404Y03209D01*
X0443Y032103D01*
D02*
G37*
G36*
X03525D02*
X03515D01*
X035046Y03209D01*
X034948Y032049D01*
X034865Y031985D01*
X034801Y031902D01*
X03476Y031804D01*
X034753Y03175D01*
X03525D01*
Y032103D01*
D02*
G37*
G36*
X05305D02*
X05295D01*
X052846Y03209D01*
X052748Y032049D01*
X052665Y031985D01*
X052601Y031902D01*
X05256Y031804D01*
X052553Y03175D01*
X05305D01*
Y032103D01*
D02*
G37*
G36*
X0441D02*
X044D01*
X043896Y03209D01*
X043798Y032049D01*
X043715Y031985D01*
X043651Y031902D01*
X04361Y031804D01*
X043603Y03175D01*
X0441D01*
Y032103D01*
D02*
G37*
G36*
X053647Y03165D02*
X05315D01*
Y031297D01*
X05325D01*
X053354Y03131D01*
X053452Y031351D01*
X053535Y031415D01*
X053599Y031498D01*
X05364Y031596D01*
X053647Y03165D01*
D02*
G37*
G36*
X05305D02*
X052553D01*
X05256Y031596D01*
X052601Y031498D01*
X052665Y031415D01*
X052748Y031351D01*
X052846Y03131D01*
X05295Y031297D01*
X05305D01*
Y03165D01*
D02*
G37*
G36*
X044697D02*
X0442D01*
Y031297D01*
X0443D01*
X044404Y03131D01*
X044502Y031351D01*
X044585Y031415D01*
X044649Y031498D01*
X04469Y031596D01*
X044697Y03165D01*
D02*
G37*
G36*
X0441D02*
X043603D01*
X04361Y031596D01*
X043651Y031498D01*
X043715Y031415D01*
X043798Y031351D01*
X043896Y03131D01*
X044Y031297D01*
X0441D01*
Y03165D01*
D02*
G37*
G36*
X035847D02*
X03535D01*
Y031297D01*
X03545D01*
X035554Y03131D01*
X035652Y031351D01*
X035735Y031415D01*
X035799Y031498D01*
X03584Y031596D01*
X035847Y03165D01*
D02*
G37*
G36*
X03525D02*
X034753D01*
X03476Y031596D01*
X034801Y031498D01*
X034865Y031415D01*
X034948Y031351D01*
X035046Y03131D01*
X03515Y031297D01*
X03525D01*
Y03165D01*
D02*
G37*
G36*
X03545Y031103D02*
X03535D01*
Y03075D01*
X035847D01*
X03584Y030804D01*
X035799Y030902D01*
X035735Y030985D01*
X035652Y031049D01*
X035554Y03109D01*
X03545Y031103D01*
D02*
G37*
G36*
X05325D02*
X05315D01*
Y03075D01*
X053647D01*
X05364Y030804D01*
X053599Y030902D01*
X053535Y030985D01*
X053452Y031049D01*
X053354Y03109D01*
X05325Y031103D01*
D02*
G37*
G36*
X0443D02*
X0442D01*
Y03075D01*
X044697D01*
X04469Y030804D01*
X044649Y030902D01*
X044585Y030985D01*
X044502Y031049D01*
X044404Y03109D01*
X0443Y031103D01*
D02*
G37*
G36*
X03525D02*
X03515D01*
X035046Y03109D01*
X034948Y031049D01*
X034865Y030985D01*
X034801Y030902D01*
X03476Y030804D01*
X034753Y03075D01*
X03525D01*
Y031103D01*
D02*
G37*
G36*
X05305D02*
X05295D01*
X052846Y03109D01*
X052748Y031049D01*
X052665Y030985D01*
X052601Y030902D01*
X05256Y030804D01*
X052553Y03075D01*
X05305D01*
Y031103D01*
D02*
G37*
G36*
X0441D02*
X044D01*
X043896Y03109D01*
X043798Y031049D01*
X043715Y030985D01*
X043651Y030902D01*
X04361Y030804D01*
X043603Y03075D01*
X0441D01*
Y031103D01*
D02*
G37*
G36*
X053647Y03065D02*
X05315D01*
Y030297D01*
X05325D01*
X053354Y03031D01*
X053452Y030351D01*
X053535Y030415D01*
X053599Y030498D01*
X05364Y030596D01*
X053647Y03065D01*
D02*
G37*
G36*
X05305D02*
X052553D01*
X05256Y030596D01*
X052601Y030498D01*
X052665Y030415D01*
X052748Y030351D01*
X052846Y03031D01*
X05295Y030297D01*
X05305D01*
Y03065D01*
D02*
G37*
G36*
X044697D02*
X0442D01*
Y030297D01*
X0443D01*
X044404Y03031D01*
X044502Y030351D01*
X044585Y030415D01*
X044649Y030498D01*
X04469Y030596D01*
X044697Y03065D01*
D02*
G37*
G36*
X0441D02*
X043603D01*
X04361Y030596D01*
X043651Y030498D01*
X043715Y030415D01*
X043798Y030351D01*
X043896Y03031D01*
X044Y030297D01*
X0441D01*
Y03065D01*
D02*
G37*
G36*
X035847D02*
X03535D01*
Y030297D01*
X03545D01*
X035554Y03031D01*
X035652Y030351D01*
X035735Y030415D01*
X035799Y030498D01*
X03584Y030596D01*
X035847Y03065D01*
D02*
G37*
G36*
X03525D02*
X034753D01*
X03476Y030596D01*
X034801Y030498D01*
X034865Y030415D01*
X034948Y030351D01*
X035046Y03031D01*
X03515Y030297D01*
X03525D01*
Y03065D01*
D02*
G37*
G36*
X0413Y032201D02*
X041D01*
X04087Y032184D01*
X040749Y032134D01*
X040646Y032054D01*
X040566Y031951D01*
X040516Y03183D01*
X040499Y0317D01*
X040516Y03157D01*
X040566Y031449D01*
X040646Y031346D01*
X040749Y031266D01*
X040843Y031227D01*
Y031173D01*
X040749Y031134D01*
X040646Y031054D01*
X040566Y030951D01*
X040516Y03083D01*
X040499Y0307D01*
X040516Y03057D01*
X040566Y030449D01*
X040646Y030346D01*
X040749Y030266D01*
X04087Y030216D01*
X041Y030199D01*
X0413D01*
X04143Y030216D01*
X041551Y030266D01*
X041654Y030346D01*
X041734Y030449D01*
X041784Y03057D01*
X041801Y0307D01*
X041784Y03083D01*
X041734Y030951D01*
X041654Y031054D01*
X041551Y031134D01*
X041457Y031173D01*
Y031227D01*
X041551Y031266D01*
X041654Y031346D01*
X041734Y031449D01*
X041784Y03157D01*
X041801Y0317D01*
X041784Y03183D01*
X041734Y031951D01*
X041654Y032054D01*
X041551Y032134D01*
X04143Y032184D01*
X0413Y032201D01*
D02*
G37*
G36*
Y030103D02*
X0412D01*
Y02975D01*
X041697D01*
X04169Y029804D01*
X041649Y029902D01*
X041585Y029985D01*
X041502Y030049D01*
X041404Y03009D01*
X0413Y030103D01*
D02*
G37*
G36*
X05025D02*
X05015D01*
Y02975D01*
X050647D01*
X05064Y029804D01*
X050599Y029902D01*
X050535Y029985D01*
X050452Y030049D01*
X050354Y03009D01*
X05025Y030103D01*
D02*
G37*
G36*
X03245D02*
X03235D01*
Y02975D01*
X032847D01*
X03284Y029804D01*
X032799Y029902D01*
X032735Y029985D01*
X032652Y030049D01*
X032554Y03009D01*
X03245Y030103D01*
D02*
G37*
G36*
X0411D02*
X041D01*
X040896Y03009D01*
X040798Y030049D01*
X040715Y029985D01*
X040651Y029902D01*
X04061Y029804D01*
X040603Y02975D01*
X0411D01*
Y030103D01*
D02*
G37*
G36*
X05005D02*
X04995D01*
X049846Y03009D01*
X049748Y030049D01*
X049665Y029985D01*
X049601Y029902D01*
X04956Y029804D01*
X049553Y02975D01*
X05005D01*
Y030103D01*
D02*
G37*
G36*
X03225D02*
X03215D01*
X032046Y03009D01*
X031948Y030049D01*
X031865Y029985D01*
X031801Y029902D01*
X03176Y029804D01*
X031753Y02975D01*
X03225D01*
Y030103D01*
D02*
G37*
G36*
X050647Y02965D02*
X05015D01*
Y029297D01*
X05025D01*
X050354Y02931D01*
X050452Y029351D01*
X050535Y029415D01*
X050599Y029498D01*
X05064Y029596D01*
X050647Y02965D01*
D02*
G37*
G36*
X05005D02*
X049553D01*
X04956Y029596D01*
X049601Y029498D01*
X049665Y029415D01*
X049748Y029351D01*
X049846Y02931D01*
X04995Y029297D01*
X05005D01*
Y02965D01*
D02*
G37*
G36*
X041697D02*
X0412D01*
Y029297D01*
X0413D01*
X041404Y02931D01*
X041502Y029351D01*
X041585Y029415D01*
X041649Y029498D01*
X04169Y029596D01*
X041697Y02965D01*
D02*
G37*
G36*
X0411D02*
X040603D01*
X04061Y029596D01*
X040651Y029498D01*
X040715Y029415D01*
X040798Y029351D01*
X040896Y02931D01*
X041Y029297D01*
X0411D01*
Y02965D01*
D02*
G37*
G36*
X032847D02*
X03235D01*
Y029297D01*
X03245D01*
X032554Y02931D01*
X032652Y029351D01*
X032735Y029415D01*
X032799Y029498D01*
X03284Y029596D01*
X032847Y02965D01*
D02*
G37*
G36*
X03225D02*
X031753D01*
X03176Y029596D01*
X031801Y029498D01*
X031865Y029415D01*
X031948Y029351D01*
X032046Y02931D01*
X03215Y029297D01*
X03225D01*
Y02965D01*
D02*
G37*
G36*
X05325Y030201D02*
X05295D01*
X05282Y030184D01*
X052699Y030134D01*
X052596Y030054D01*
X052516Y029951D01*
X052466Y02983D01*
X052449Y0297D01*
X052466Y02957D01*
X052516Y029449D01*
X052596Y029346D01*
X052699Y029266D01*
X052793Y029227D01*
Y029173D01*
X052699Y029134D01*
X052596Y029054D01*
X052516Y028951D01*
X052466Y02883D01*
X052449Y0287D01*
X052466Y02857D01*
X052516Y028449D01*
X052596Y028346D01*
X052699Y028266D01*
X052793Y028227D01*
Y028173D01*
X052699Y028134D01*
X052596Y028054D01*
X052516Y027951D01*
X052466Y02783D01*
X052449Y0277D01*
X052466Y02757D01*
X052516Y027449D01*
X052596Y027346D01*
X052699Y027266D01*
X052793Y027227D01*
Y027173D01*
X052699Y027134D01*
X052596Y027054D01*
X052516Y026951D01*
X052466Y02683D01*
X052449Y0267D01*
X052466Y02657D01*
X052516Y026449D01*
X052596Y026346D01*
X052699Y026266D01*
X052746Y026247D01*
X052736Y026197D01*
X052453D01*
Y025203D01*
X053747D01*
Y026197D01*
X053464D01*
X053454Y026247D01*
X053501Y026266D01*
X053604Y026346D01*
X053684Y026449D01*
X053734Y02657D01*
X053751Y0267D01*
X053734Y02683D01*
X053684Y026951D01*
X053604Y027054D01*
X053501Y027134D01*
X053407Y027173D01*
Y027227D01*
X053501Y027266D01*
X053604Y027346D01*
X053684Y027449D01*
X053734Y02757D01*
X053751Y0277D01*
X053734Y02783D01*
X053684Y027951D01*
X053604Y028054D01*
X053501Y028134D01*
X053407Y028173D01*
Y028227D01*
X053501Y028266D01*
X053604Y028346D01*
X053684Y028449D01*
X053734Y02857D01*
X053751Y0287D01*
X053734Y02883D01*
X053684Y028951D01*
X053604Y029054D01*
X053501Y029134D01*
X053407Y029173D01*
Y029227D01*
X053501Y029266D01*
X053604Y029346D01*
X053684Y029449D01*
X053734Y02957D01*
X053751Y0297D01*
X053734Y02983D01*
X053684Y029951D01*
X053604Y030054D01*
X053501Y030134D01*
X05338Y030184D01*
X05325Y030201D01*
D02*
G37*
G36*
X062425Y01965D02*
X06195D01*
X061475D01*
Y019637D01*
X061507Y019517D01*
X06157Y019408D01*
X061656Y019322D01*
X061656Y01931D01*
X061645Y019272D01*
X061378D01*
Y018634D01*
X060262Y017517D01*
X054151D01*
X054051Y017618D01*
X053921Y017693D01*
X053775Y017732D01*
X053625D01*
X053479Y017693D01*
X053349Y017618D01*
X053242Y017511D01*
X053167Y017381D01*
X053128Y017235D01*
Y017085D01*
X053167Y016939D01*
X053242Y016809D01*
X053349Y016702D01*
X053479Y016627D01*
X053625Y016588D01*
X053775D01*
X053921Y016627D01*
X054051Y016702D01*
X054151Y016803D01*
X06041D01*
X060503Y016815D01*
X060589Y01685D01*
X060663Y016907D01*
X061884Y018128D01*
X062522D01*
Y019272D01*
X062255D01*
X062244Y01931D01*
X062244Y019322D01*
X06233Y019408D01*
X062393Y019517D01*
X062425Y019637D01*
Y01965D01*
D02*
G37*
G36*
X053775Y015732D02*
X053625D01*
X053479Y015693D01*
X053349Y015618D01*
X053242Y015511D01*
X053167Y015381D01*
X053128Y015235D01*
Y015085D01*
X053167Y014939D01*
X053242Y014809D01*
X053349Y014702D01*
X053479Y014627D01*
X053625Y014588D01*
X053775D01*
X053921Y014627D01*
X054051Y014702D01*
X054158Y014809D01*
X054233Y014939D01*
X054272Y015085D01*
Y015235D01*
X054233Y015381D01*
X054158Y015511D01*
X054051Y015618D01*
X053921Y015693D01*
X053775Y015732D01*
D02*
G37*
%LPD*%
G36*
X061966Y03446D02*
X062043Y03436D01*
Y031924D01*
X062028Y031917D01*
X061993Y031911D01*
X061935Y031985D01*
X061852Y032049D01*
X061754Y03209D01*
X06165Y032103D01*
X06155D01*
Y0317D01*
Y031297D01*
X06165D01*
X061754Y03131D01*
X061852Y031351D01*
X061935Y031415D01*
X061993Y031489D01*
X062028Y031483D01*
X062043Y031476D01*
Y030924D01*
X062028Y030917D01*
X061993Y030911D01*
X061935Y030985D01*
X061852Y031049D01*
X061754Y03109D01*
X06165Y031103D01*
X06155D01*
Y0307D01*
Y030297D01*
X06165D01*
X061754Y03031D01*
X061852Y030351D01*
X061935Y030415D01*
X061993Y030489D01*
X062028Y030483D01*
X062043Y030476D01*
Y03008D01*
X061993Y030063D01*
X061901Y030134D01*
X06178Y030184D01*
X06165Y030201D01*
X06135D01*
X06122Y030184D01*
X061099Y030134D01*
X060996Y030054D01*
X060916Y029951D01*
X060866Y02983D01*
X060849Y0297D01*
X060866Y02957D01*
X060916Y029449D01*
X060996Y029346D01*
X061099Y029266D01*
X061193Y029227D01*
Y029173D01*
X061099Y029134D01*
X060996Y029054D01*
X060916Y028951D01*
X060866Y02883D01*
X060849Y0287D01*
X060866Y02857D01*
X060916Y028449D01*
X060996Y028346D01*
X061099Y028266D01*
X061193Y028227D01*
Y028173D01*
X061099Y028134D01*
X060996Y028054D01*
X060916Y027951D01*
X060866Y02783D01*
X060849Y0277D01*
X060866Y02757D01*
X060916Y027449D01*
X060996Y027346D01*
X061099Y027266D01*
X061193Y027227D01*
Y027173D01*
X061099Y027134D01*
X060996Y027054D01*
X060916Y026951D01*
X060866Y02683D01*
X060849Y0267D01*
X060866Y02657D01*
X060916Y026449D01*
X060996Y026346D01*
X061099Y026266D01*
X061146Y026247D01*
X061136Y026197D01*
X060853D01*
Y026057D01*
X060798D01*
X05915Y027705D01*
X059134Y02783D01*
X059084Y027951D01*
X059004Y028054D01*
X058901Y028134D01*
X058807Y028173D01*
Y028227D01*
X058901Y028266D01*
X059004Y028346D01*
X059084Y028449D01*
X059134Y02857D01*
X059151Y0287D01*
X059134Y02883D01*
X059084Y028951D01*
X059004Y029054D01*
X058901Y029134D01*
X05878Y029184D01*
X05865Y029201D01*
X05835D01*
X05822Y029184D01*
X058099Y029134D01*
X058Y029057D01*
X056257D01*
Y032993D01*
X06075D01*
X060842Y033005D01*
X060929Y03304D01*
X061003Y033097D01*
X061653Y033747D01*
X06171Y033821D01*
X061745Y033907D01*
X061757Y034D01*
Y03436D01*
X061834Y03446D01*
X061873Y034554D01*
X061927D01*
X061966Y03446D01*
D02*
G37*
%LPC*%
G36*
X06145Y032103D02*
X06135D01*
X061246Y03209D01*
X061148Y032049D01*
X061065Y031985D01*
X061001Y031902D01*
X06096Y031804D01*
X060953Y03175D01*
X06145D01*
Y032103D01*
D02*
G37*
G36*
Y03165D02*
X060953D01*
X06096Y031596D01*
X061001Y031498D01*
X061065Y031415D01*
X061148Y031351D01*
X061246Y03131D01*
X06135Y031297D01*
X06145D01*
Y03165D01*
D02*
G37*
G36*
Y031103D02*
X06135D01*
X061246Y03109D01*
X061148Y031049D01*
X061065Y030985D01*
X061001Y030902D01*
X06096Y030804D01*
X060953Y03075D01*
X06145D01*
Y031103D01*
D02*
G37*
G36*
Y03065D02*
X060953D01*
X06096Y030596D01*
X061001Y030498D01*
X061065Y030415D01*
X061148Y030351D01*
X061246Y03031D01*
X06135Y030297D01*
X06145D01*
Y03065D01*
D02*
G37*
G36*
X05865Y032201D02*
X05835D01*
X05822Y032184D01*
X058099Y032134D01*
X057996Y032054D01*
X057916Y031951D01*
X057866Y03183D01*
X057849Y0317D01*
X057866Y03157D01*
X057916Y031449D01*
X057996Y031346D01*
X058099Y031266D01*
X058193Y031227D01*
Y031173D01*
X058099Y031134D01*
X057996Y031054D01*
X057916Y030951D01*
X057866Y03083D01*
X057849Y0307D01*
X057866Y03057D01*
X057916Y030449D01*
X057996Y030346D01*
X058099Y030266D01*
X05822Y030216D01*
X05835Y030199D01*
X05865D01*
X05878Y030216D01*
X058901Y030266D01*
X059004Y030346D01*
X059084Y030449D01*
X059134Y03057D01*
X059151Y0307D01*
X059134Y03083D01*
X059084Y030951D01*
X059004Y031054D01*
X058901Y031134D01*
X058807Y031173D01*
Y031227D01*
X058901Y031266D01*
X059004Y031346D01*
X059084Y031449D01*
X059134Y03157D01*
X059151Y0317D01*
X059134Y03183D01*
X059084Y031951D01*
X059004Y032054D01*
X058901Y032134D01*
X05878Y032184D01*
X05865Y032201D01*
D02*
G37*
G36*
Y030103D02*
X05855D01*
Y02975D01*
X059047D01*
X05904Y029804D01*
X058999Y029902D01*
X058935Y029985D01*
X058852Y030049D01*
X058754Y03009D01*
X05865Y030103D01*
D02*
G37*
G36*
X05845D02*
X05835D01*
X058246Y03009D01*
X058148Y030049D01*
X058065Y029985D01*
X058001Y029902D01*
X05796Y029804D01*
X057953Y02975D01*
X05845D01*
Y030103D01*
D02*
G37*
G36*
X059047Y02965D02*
X05855D01*
Y029297D01*
X05865D01*
X058754Y02931D01*
X058852Y029351D01*
X058935Y029415D01*
X058999Y029498D01*
X05904Y029596D01*
X059047Y02965D01*
D02*
G37*
G36*
X05845D02*
X057953D01*
X05796Y029596D01*
X058001Y029498D01*
X058065Y029415D01*
X058148Y029351D01*
X058246Y02931D01*
X05835Y029297D01*
X05845D01*
Y02965D01*
D02*
G37*
G36*
X02825Y034811D02*
X027897D01*
Y034711D01*
X02791Y034606D01*
X027951Y034509D01*
X028015Y034425D01*
X028098Y034361D01*
X028196Y034321D01*
X02825Y034314D01*
Y034811D01*
D02*
G37*
G36*
X0265Y032103D02*
X0264D01*
Y03175D01*
X026897D01*
X02689Y031804D01*
X026849Y031902D01*
X026785Y031985D01*
X026702Y032049D01*
X026604Y03209D01*
X0265Y032103D01*
D02*
G37*
G36*
X0263D02*
X0262D01*
X026096Y03209D01*
X025998Y032049D01*
X025915Y031985D01*
X025851Y031902D01*
X02581Y031804D01*
X025803Y03175D01*
X0263D01*
Y032103D01*
D02*
G37*
G36*
X026897Y03165D02*
X0264D01*
Y031297D01*
X0265D01*
X026604Y03131D01*
X026702Y031351D01*
X026785Y031415D01*
X026849Y031498D01*
X02689Y031596D01*
X026897Y03165D01*
D02*
G37*
G36*
X0263D02*
X025803D01*
X02581Y031596D01*
X025851Y031498D01*
X025915Y031415D01*
X025998Y031351D01*
X026096Y03131D01*
X0262Y031297D01*
X0263D01*
Y03165D01*
D02*
G37*
G36*
X0265Y031103D02*
X0264D01*
Y03075D01*
X026897D01*
X02689Y030804D01*
X026849Y030902D01*
X026785Y030985D01*
X026702Y031049D01*
X026604Y03109D01*
X0265Y031103D01*
D02*
G37*
G36*
X0263D02*
X0262D01*
X026096Y03109D01*
X025998Y031049D01*
X025915Y030985D01*
X025851Y030902D01*
X02581Y030804D01*
X025803Y03075D01*
X0263D01*
Y031103D01*
D02*
G37*
G36*
X026897Y03065D02*
X0264D01*
Y030297D01*
X0265D01*
X026604Y03031D01*
X026702Y030351D01*
X026785Y030415D01*
X026849Y030498D01*
X02689Y030596D01*
X026897Y03065D01*
D02*
G37*
G36*
X0263D02*
X025803D01*
X02581Y030596D01*
X025851Y030498D01*
X025915Y030415D01*
X025998Y030351D01*
X026096Y03031D01*
X0262Y030297D01*
X0263D01*
Y03065D01*
D02*
G37*
G36*
X01945Y035407D02*
Y034911D01*
X019803D01*
Y035011D01*
X01979Y035115D01*
X019749Y035212D01*
X019685Y035296D01*
X019602Y03536D01*
X019504Y0354D01*
X01945Y035407D01*
D02*
G37*
G36*
X01935D02*
X019296Y0354D01*
X019198Y03536D01*
X019115Y035296D01*
X019051Y035212D01*
X01901Y035115D01*
X018997Y035011D01*
Y034911D01*
X01935D01*
Y035407D01*
D02*
G37*
G36*
X019803Y034811D02*
X01945D01*
Y034314D01*
X019504Y034321D01*
X019602Y034361D01*
X019685Y034425D01*
X019749Y034509D01*
X01979Y034606D01*
X019803Y034711D01*
Y034811D01*
D02*
G37*
G36*
X01935D02*
X018997D01*
Y034711D01*
X01901Y034606D01*
X019051Y034509D01*
X019115Y034425D01*
X019198Y034361D01*
X019296Y034321D01*
X01935Y034314D01*
Y034811D01*
D02*
G37*
G36*
X0177Y032103D02*
X0176D01*
Y03175D01*
X018097D01*
X01809Y031804D01*
X018049Y031902D01*
X017985Y031985D01*
X017902Y032049D01*
X017804Y03209D01*
X0177Y032103D01*
D02*
G37*
G36*
X018097Y03165D02*
X0176D01*
Y031297D01*
X0177D01*
X017804Y03131D01*
X017902Y031351D01*
X017985Y031415D01*
X018049Y031498D01*
X01809Y031596D01*
X018097Y03165D01*
D02*
G37*
G36*
X0177Y031103D02*
X0176D01*
Y03075D01*
X018097D01*
X01809Y030804D01*
X018049Y030902D01*
X017985Y030985D01*
X017902Y031049D01*
X017804Y03109D01*
X0177Y031103D01*
D02*
G37*
G36*
X018097Y03065D02*
X0176D01*
Y030297D01*
X0177D01*
X017804Y03031D01*
X017902Y030351D01*
X017985Y030415D01*
X018049Y030498D01*
X01809Y030596D01*
X018097Y03065D01*
D02*
G37*
G36*
X0235Y030103D02*
X0234D01*
Y02975D01*
X023897D01*
X02389Y029804D01*
X023849Y029902D01*
X023785Y029985D01*
X023702Y030049D01*
X023604Y03009D01*
X0235Y030103D01*
D02*
G37*
G36*
X0233D02*
X0232D01*
X023096Y03009D01*
X022998Y030049D01*
X022915Y029985D01*
X022851Y029902D01*
X02281Y029804D01*
X022803Y02975D01*
X0233D01*
Y030103D01*
D02*
G37*
G36*
X023897Y02965D02*
X0234D01*
Y029297D01*
X0235D01*
X023604Y02931D01*
X023702Y029351D01*
X023785Y029415D01*
X023849Y029498D01*
X02389Y029596D01*
X023897Y02965D01*
D02*
G37*
G36*
X0233D02*
X022803D01*
X02281Y029596D01*
X022851Y029498D01*
X022915Y029415D01*
X022998Y029351D01*
X023096Y02931D01*
X0232Y029297D01*
X0233D01*
Y02965D01*
D02*
G37*
G36*
X02845Y017753D02*
X02835D01*
Y0174D01*
X028847D01*
X02884Y017454D01*
X028799Y017552D01*
X028735Y017635D01*
X028652Y017699D01*
X028554Y01774D01*
X02845Y017753D01*
D02*
G37*
G36*
X0493Y021753D02*
X0492D01*
Y0214D01*
X049697D01*
X04969Y021454D01*
X049649Y021552D01*
X049585Y021635D01*
X049502Y021699D01*
X049404Y02174D01*
X0493Y021753D01*
D02*
G37*
G36*
X0491D02*
X049D01*
X048896Y02174D01*
X048798Y021699D01*
X048715Y021635D01*
X048651Y021552D01*
X04861Y021454D01*
X048603Y0214D01*
X0491D01*
Y021753D01*
D02*
G37*
G36*
X049697Y0213D02*
X0492D01*
Y020947D01*
X0493D01*
X049404Y02096D01*
X049502Y021001D01*
X049585Y021065D01*
X049649Y021148D01*
X04969Y021246D01*
X049697Y0213D01*
D02*
G37*
G36*
X0491D02*
X048603D01*
X04861Y021246D01*
X048651Y021148D01*
X048715Y021065D01*
X048798Y021001D01*
X048896Y02096D01*
X049Y020947D01*
X0491D01*
Y0213D01*
D02*
G37*
G36*
X0463Y017753D02*
X0462D01*
Y0174D01*
X046697D01*
X04669Y017454D01*
X046649Y017552D01*
X046585Y017635D01*
X046502Y017699D01*
X046404Y01774D01*
X0463Y017753D01*
D02*
G37*
G36*
X0461D02*
X046D01*
X045896Y01774D01*
X045798Y017699D01*
X045715Y017635D01*
X045651Y017552D01*
X04561Y017454D01*
X045603Y0174D01*
X0461D01*
Y017753D01*
D02*
G37*
G36*
X046697Y0173D02*
X0462D01*
Y016947D01*
X0463D01*
X046404Y01696D01*
X046502Y017001D01*
X046585Y017065D01*
X046649Y017148D01*
X04669Y017246D01*
X046697Y0173D01*
D02*
G37*
G36*
X0461D02*
X045603D01*
X04561Y017246D01*
X045651Y017148D01*
X045715Y017065D01*
X045798Y017001D01*
X045896Y01696D01*
X046Y016947D01*
X0461D01*
Y0173D01*
D02*
G37*
%LPD*%
D22*
X06195Y0207D02*
D03*
Y0197D02*
D03*
X0184Y0154D02*
D03*
X0204D02*
D03*
X0537Y01516D02*
D03*
Y01716D02*
D03*
X03785Y01516D02*
D03*
Y01716D02*
D03*
D30*
X05595Y03335D02*
X06075D01*
X05295D02*
X05595D01*
X0559Y0333D02*
X05595Y03335D01*
X046Y01835D02*
X04615D01*
X04535Y019D02*
X046Y01835D01*
X037113Y019D02*
X04535D01*
X036411Y018298D02*
X037113Y019D01*
X036411Y018298D02*
X036461D01*
X036564Y018401D01*
X038608Y02135D02*
X04615D01*
X035908Y01865D02*
X038608Y02135D01*
X03969Y02316D02*
X04506D01*
X0313Y01935D02*
X03588D01*
X03969Y02316D01*
X0352Y01865D02*
X035908D01*
X0313Y01735D02*
X031433D01*
X031777Y017694D01*
X036857Y017889D02*
X038353D01*
X038733Y017509D01*
Y015583D02*
Y017509D01*
X036661Y017694D02*
X036857Y017889D01*
X031777Y017694D02*
X036661D01*
X027Y01754D02*
X028Y01654D01*
X03267D01*
X04695Y02405D02*
X04765Y02335D01*
X04915D01*
X04619Y0267D02*
X04876Y02413D01*
X04415Y0267D02*
X04619D01*
X034696Y0226D02*
X0347Y022596D01*
X0313Y02335D02*
X031527D01*
X03167Y023207D02*
X031693D01*
X0323Y0226D02*
X034696D01*
X031527Y02335D02*
X03167Y023207D01*
X031693D02*
X0323Y0226D01*
X0347Y022596D02*
X037266D01*
X02825Y0124D02*
X045603D01*
X046702Y0135D01*
X04775Y0106D02*
X05015Y013D01*
X0204Y01245D02*
X02225Y0106D01*
X04775D01*
X027903Y012748D02*
X02825Y0124D01*
X0204Y01245D02*
Y0154D01*
X0137Y01929D02*
X017553Y015437D01*
X018363D01*
X0184Y0154D01*
X0232Y0257D02*
X02335D01*
X02215Y0172D02*
Y02465D01*
X0232Y0257D01*
X03985Y0172D02*
X0419D01*
Y016187D02*
Y0172D01*
Y016187D02*
X047156D01*
X048103Y018991D02*
X0485Y019388D01*
X049112D02*
X04915Y01935D01*
X028605Y013294D02*
X029742Y014431D01*
X038152D02*
X038733Y015011D01*
X028552Y01305D02*
X028605Y013103D01*
X0485Y019388D02*
X049112D01*
X047918Y015583D02*
X048103Y015768D01*
Y018991D01*
X038733Y015583D02*
X047918D01*
X038733Y015011D02*
Y015583D01*
X028605Y013103D02*
Y013294D01*
X029742Y014431D02*
X038152D01*
X027903Y012748D02*
Y015153D01*
X02215Y0172D02*
X02419Y01516D01*
X02791D01*
X027903Y015153D02*
X02791Y01516D01*
X03785D01*
X0243Y037273D02*
X024578D01*
X0255Y02504D02*
X025567D01*
X027257Y02335D02*
X0283D01*
X025567Y02504D02*
X027257Y02335D01*
X02485Y02569D02*
X0255Y02504D01*
X01455Y0277D02*
X014777D01*
X01492Y027557D02*
X014993D01*
X01685Y0257D01*
X014777Y0277D02*
X01492Y027557D01*
X04915Y02235D02*
X0498D01*
X05015Y022D01*
Y013D02*
Y022D01*
X0144Y034861D02*
X0154D01*
X0164D01*
X0233D02*
X0243D01*
X0253D01*
X03225D02*
X03325D01*
X03425D01*
X041D02*
X042D01*
X043D01*
X04975D02*
X05075D01*
X05175D01*
X0584D02*
X0594D01*
X0604D01*
X06041Y01716D02*
X06195Y0187D01*
X0537Y01716D02*
X06041D01*
X02335Y0317D02*
X02415D01*
X02485Y031D01*
Y02569D02*
Y031D01*
X01685Y0257D02*
X01755D01*
X0323Y0277D02*
X032527D01*
X03267Y027557D01*
X032675D01*
X03384Y026392D01*
Y02636D02*
Y026392D01*
Y02636D02*
X0345Y0257D01*
X0353D01*
X03377Y03182D02*
X03625Y0343D01*
Y034861D01*
X04115Y0277D02*
X041377D01*
X04152Y027557D01*
X041593D01*
X043412Y025738D01*
X044112D01*
X04415Y0257D01*
X06065D02*
X0615D01*
X05865Y0277D02*
X06065Y0257D01*
X0585Y0277D02*
X05865D01*
X0615Y0257D02*
X0621D01*
X0624Y026D01*
Y034861D01*
X0275Y02035D02*
X0283D01*
X027Y01985D02*
X0275Y02035D01*
X027Y01754D02*
Y01985D01*
X01174Y02663D02*
X01452Y02385D01*
X01174Y02663D02*
Y0357D01*
X01189Y03585D01*
X01952D01*
X0201Y03643D01*
X029407D01*
X03025Y035587D01*
Y034861D02*
Y035587D01*
Y032D02*
Y034861D01*
Y032D02*
X03155Y0307D01*
X0323D01*
X03164Y03578D02*
X0465D01*
X04713Y03515D01*
Y032D02*
Y03515D01*
Y032D02*
X04843Y0307D01*
X049D01*
X04775Y03195D02*
X049Y0307D01*
X0501D01*
X04775Y03195D02*
Y034861D01*
X01455Y0257D02*
X014623D01*
X014843Y02548D01*
Y025407D02*
Y02548D01*
Y025407D02*
X015205Y025045D01*
X016045D01*
X01605Y02504D01*
X01834D01*
X022Y0287D01*
X02335D01*
X0323Y0257D02*
X032377D01*
X033037Y02504D01*
X03627D01*
X03993Y0287D01*
X04115D01*
X0501Y0257D02*
X051D01*
X0516Y0263D01*
Y032D01*
X05295Y03335D01*
X06075D02*
X0614Y034D01*
X0559Y02875D02*
Y0333D01*
X05595Y0287D02*
X0585D01*
X0614Y034D02*
Y034861D01*
X0559Y02875D02*
X05595Y0287D01*
X017Y0267D02*
X01755D01*
X01674Y02696D02*
X017Y0267D01*
X01674Y02696D02*
Y033D01*
X01897D01*
X02035Y03438D01*
Y03537D01*
X02065Y03567D01*
X028954D01*
Y0267D02*
Y03567D01*
X03267Y0242D02*
X0347D01*
X02635Y0267D02*
X028954D01*
X03017D01*
X03267Y0242D01*
X0347D02*
X0352Y0237D01*
X04198Y0257D02*
X04265Y02503D01*
X04115Y0257D02*
X04198D01*
X04265Y02503D02*
X047D01*
X01315Y04055D02*
Y04075D01*
Y04055D02*
X01406Y03964D01*
X01843D01*
X0194Y03867D01*
Y037861D02*
Y03867D01*
X01415Y04075D02*
Y0415D01*
X01446Y04181D01*
X01611D01*
X0164Y037861D02*
Y0385D01*
X01604Y03886D02*
X0164Y0385D01*
X01334Y03886D02*
X01604D01*
X01041Y04179D02*
X01334Y03886D01*
X01041Y04179D02*
Y04749D01*
X011Y04808D01*
X01657D01*
X01715Y0475D01*
Y04675D02*
Y0475D01*
X0154Y03729D02*
Y037861D01*
Y03729D02*
X016Y03669D01*
X0195D01*
X02006Y03725D01*
Y03984D01*
X01615Y04375D02*
X02006Y03984D01*
X01615Y04375D02*
Y04675D01*
X01174Y03721D02*
Y03899D01*
Y03721D02*
X012Y03695D01*
X0141D01*
X0144Y03725D01*
Y037861D01*
X022Y03995D02*
Y04075D01*
Y03995D02*
X0225Y03945D01*
X0275D01*
X0283Y03865D01*
Y037861D02*
Y03865D01*
X0273Y037861D02*
Y03871D01*
X02729Y03872D02*
X0273Y03871D01*
X022Y03872D02*
X02729D01*
X02127Y03945D02*
X022Y03872D01*
X02127Y03945D02*
Y04119D01*
X02169Y04161D01*
X02275D01*
X023Y04136D01*
Y04075D02*
Y04136D01*
X0243Y037273D02*
Y037861D01*
X024578Y037273D02*
X024802Y03705D01*
X02896D01*
Y03979D01*
X025Y04375D02*
X02896Y03979D01*
X025Y04375D02*
Y04675D01*
X0223Y03735D02*
Y037861D01*
X022Y03705D02*
X0223Y03735D01*
X02065Y03705D02*
X022D01*
X02064Y03706D02*
X02065Y03705D01*
X02064Y03706D02*
Y04139D01*
X023Y04375D01*
Y04675D01*
X031Y04075D02*
Y04147D01*
X03125Y04172D01*
X03569D01*
X03725Y04016D01*
Y037861D02*
Y04016D01*
X032Y03983D02*
Y04075D01*
Y03983D02*
X0325Y03933D01*
X03542D01*
X03625Y0385D01*
Y037861D02*
Y0385D01*
X034Y0401D02*
Y04075D01*
Y0401D02*
X03425Y03985D01*
X03596D01*
X03623Y03958D01*
X03325Y037861D02*
Y03865D01*
X03309Y03881D02*
X03325Y03865D01*
X03153Y03881D02*
X03309D01*
X03034Y04D02*
X03153Y03881D01*
X03034Y04D02*
Y04209D01*
X034Y04575D01*
Y04675D01*
X03125Y0373D02*
Y037861D01*
X031Y03705D02*
X03125Y0373D01*
X0299Y03705D02*
X031D01*
X02959Y03736D02*
X0299Y03705D01*
X02959Y03736D02*
Y04207D01*
X032Y04448D01*
Y04675D01*
X0396Y04075D02*
Y04132D01*
X04Y04172D01*
X045D01*
X046Y04072D01*
Y037861D02*
Y04072D01*
X0406Y04D02*
Y04075D01*
Y04D02*
X0413Y0393D01*
X0445D01*
X045Y0388D01*
Y037861D02*
Y0388D01*
X043Y037861D02*
Y03842D01*
X04275Y03867D02*
X043Y03842D01*
X03899Y03867D02*
X04275D01*
X03894Y03872D02*
X03899Y03867D01*
X03894Y03872D02*
Y04269D01*
X04Y04375D01*
X04235D01*
X0436Y045D01*
Y04675D01*
X04845Y04075D02*
Y04141D01*
X04947Y04243D01*
X05332D01*
X05475Y041D01*
Y037861D02*
Y041D01*
X04945Y04075D02*
Y04138D01*
X04975Y04168D01*
X05319D01*
X05375Y04112D01*
Y037861D02*
Y04112D01*
X05175Y037861D02*
Y03832D01*
X0514Y03867D02*
X05175Y03832D01*
X04811Y03867D02*
X0514D01*
X04779Y03899D02*
X04811Y03867D01*
X04779Y03899D02*
Y0415D01*
X05245Y04616D01*
Y04675D01*
X05075Y037D02*
Y037861D01*
X05011Y03636D02*
X05075Y037D01*
X03903Y03636D02*
X05011D01*
X03834Y03705D02*
X03903Y03636D01*
X03834Y03705D02*
Y047D01*
X03895Y04761D01*
X05145D01*
Y04675D02*
Y04761D01*
X04975Y0373D02*
Y037861D01*
X0495Y03705D02*
X04975Y0373D01*
X04725Y03705D02*
X0495D01*
X047Y0373D02*
X04725Y03705D01*
X047Y0373D02*
Y04174D01*
X04845Y04319D01*
Y04675D01*
X05705Y04D02*
Y04075D01*
Y04D02*
X0577Y03935D01*
X06255D01*
X0634Y0385D01*
Y037861D02*
Y0385D01*
X0624Y037861D02*
Y03846D01*
X06219Y03867D02*
X0624Y03846D01*
X057Y03867D02*
X06219D01*
X05639Y03928D02*
X057Y03867D01*
X05639Y03928D02*
Y04129D01*
X057Y0419D01*
X0575D01*
X05805Y04135D01*
Y04075D02*
Y04135D01*
X0594Y037711D02*
Y037861D01*
Y037711D02*
X060311Y0368D01*
X063415D01*
X064054Y037439D01*
Y044561D01*
X062856Y04576D02*
X064054Y044561D01*
X060915Y04576D02*
X062856D01*
X06005Y046625D02*
X060915Y04576D01*
X06005Y046625D02*
Y04675D01*
X0584Y03704D02*
Y037861D01*
X056Y03704D02*
X0584D01*
X05574Y0373D02*
X056Y03704D01*
X05574Y0373D02*
Y04362D01*
X05705Y04493D01*
Y04675D01*
X01455Y0287D02*
X0147D01*
X0162Y0302D01*
Y033511D01*
X0174Y034711D01*
Y034861D01*
X0213Y032D02*
Y034861D01*
Y032D02*
X0226Y0307D01*
X02335D01*
X0323Y0287D02*
X0344D01*
X0585Y02323D02*
Y0257D01*
Y02323D02*
X06103Y0207D01*
X06195D01*
X04615Y02035D02*
X04696D01*
X04615Y02335D02*
X04692D01*
X04696Y02035D02*
X04915D01*
X04696D02*
Y02331D01*
X04692Y02335D02*
X04696Y02331D01*
X037266Y022596D02*
X03872Y02405D01*
X04695D01*
D31*
X028552Y01305D02*
D03*
X049498Y0135D02*
D03*
D32*
X031348Y01305D02*
D03*
X046702Y0135D02*
D03*
D33*
X04615Y02335D02*
D03*
X0615Y0257D02*
D03*
X0283Y02335D02*
D03*
X0531Y0257D02*
D03*
X04415D02*
D03*
X0353D02*
D03*
X01755D02*
D03*
X02635D02*
D03*
D34*
X04615Y02235D02*
D03*
Y02135D02*
D03*
Y02035D02*
D03*
Y01935D02*
D03*
Y01835D02*
D03*
Y01735D02*
D03*
X04915Y02335D02*
D03*
Y02235D02*
D03*
Y02135D02*
D03*
Y02035D02*
D03*
Y01935D02*
D03*
Y01835D02*
D03*
Y01735D02*
D03*
X0585Y0317D02*
D03*
Y0307D02*
D03*
Y0297D02*
D03*
Y0287D02*
D03*
Y0277D02*
D03*
Y0267D02*
D03*
Y0257D02*
D03*
X0615Y0317D02*
D03*
Y0307D02*
D03*
Y0297D02*
D03*
Y0287D02*
D03*
Y0277D02*
D03*
Y0267D02*
D03*
X0313Y01735D02*
D03*
Y01835D02*
D03*
Y01935D02*
D03*
Y02035D02*
D03*
Y02135D02*
D03*
Y02235D02*
D03*
Y02335D02*
D03*
X0283Y01735D02*
D03*
Y01835D02*
D03*
Y01935D02*
D03*
Y02035D02*
D03*
Y02135D02*
D03*
Y02235D02*
D03*
X0501Y0317D02*
D03*
Y0307D02*
D03*
Y0297D02*
D03*
Y0287D02*
D03*
Y0277D02*
D03*
Y0267D02*
D03*
Y0257D02*
D03*
X0531Y0317D02*
D03*
Y0307D02*
D03*
Y0297D02*
D03*
Y0287D02*
D03*
Y0277D02*
D03*
Y0267D02*
D03*
X04115Y0317D02*
D03*
Y0307D02*
D03*
Y0297D02*
D03*
Y0287D02*
D03*
Y0277D02*
D03*
Y0267D02*
D03*
Y0257D02*
D03*
X04415Y0317D02*
D03*
Y0307D02*
D03*
Y0297D02*
D03*
Y0287D02*
D03*
Y0277D02*
D03*
Y0267D02*
D03*
X0323Y0317D02*
D03*
Y0307D02*
D03*
Y0297D02*
D03*
Y0287D02*
D03*
Y0277D02*
D03*
Y0267D02*
D03*
Y0257D02*
D03*
X0353Y0317D02*
D03*
Y0307D02*
D03*
Y0297D02*
D03*
Y0287D02*
D03*
Y0277D02*
D03*
Y0267D02*
D03*
X01455Y0317D02*
D03*
Y0307D02*
D03*
Y0297D02*
D03*
Y0287D02*
D03*
Y0277D02*
D03*
Y0267D02*
D03*
Y0257D02*
D03*
X01755Y0317D02*
D03*
Y0307D02*
D03*
Y0297D02*
D03*
Y0287D02*
D03*
Y0277D02*
D03*
Y0267D02*
D03*
X02335Y0317D02*
D03*
Y0307D02*
D03*
Y0297D02*
D03*
Y0287D02*
D03*
Y0277D02*
D03*
Y0267D02*
D03*
Y0257D02*
D03*
X02635Y0317D02*
D03*
Y0307D02*
D03*
Y0297D02*
D03*
Y0287D02*
D03*
Y0277D02*
D03*
Y0267D02*
D03*
D35*
X05045Y04075D02*
D03*
X05145D02*
D03*
X04945D02*
D03*
X04845D02*
D03*
X05145Y04675D02*
D03*
X04845D02*
D03*
X04945D02*
D03*
X05045D02*
D03*
X05245D02*
D03*
Y04075D02*
D03*
X01515D02*
D03*
X01615D02*
D03*
X01415D02*
D03*
X01315D02*
D03*
X01615Y04675D02*
D03*
X01315D02*
D03*
X01415D02*
D03*
X01515D02*
D03*
X01715D02*
D03*
Y04075D02*
D03*
X024D02*
D03*
X025D02*
D03*
X023D02*
D03*
X022D02*
D03*
X025Y04675D02*
D03*
X022D02*
D03*
X023D02*
D03*
X024D02*
D03*
X026D02*
D03*
Y04075D02*
D03*
X033D02*
D03*
X034D02*
D03*
X032D02*
D03*
X031D02*
D03*
X034Y04675D02*
D03*
X031D02*
D03*
X032D02*
D03*
X033D02*
D03*
X035D02*
D03*
Y04075D02*
D03*
X05905D02*
D03*
X06005D02*
D03*
X05805D02*
D03*
X05705D02*
D03*
X06005Y04675D02*
D03*
X05705D02*
D03*
X05805D02*
D03*
X05905D02*
D03*
X06105D02*
D03*
Y04075D02*
D03*
X0436D02*
D03*
Y04675D02*
D03*
X0416D02*
D03*
X0406D02*
D03*
X0396D02*
D03*
X0426D02*
D03*
X0396Y04075D02*
D03*
X0406D02*
D03*
X0426D02*
D03*
X0416D02*
D03*
D36*
X0111Y0468D02*
D03*
Y0428D02*
D03*
X02215Y0172D02*
D03*
Y0132D02*
D03*
X03985Y0172D02*
D03*
Y0132D02*
D03*
D37*
X06195Y0187D02*
D03*
D38*
X0564Y034861D02*
D03*
X0124D02*
D03*
X0213D02*
D03*
X039D02*
D03*
X04775D02*
D03*
X03025D02*
D03*
D39*
X0574D02*
D03*
X0584D02*
D03*
X0594D02*
D03*
X0604D02*
D03*
X0614D02*
D03*
X0624D02*
D03*
X0634D02*
D03*
X0564Y037861D02*
D03*
X0574D02*
D03*
X0584D02*
D03*
X0594D02*
D03*
X0604D02*
D03*
X0614D02*
D03*
X0624D02*
D03*
X0634D02*
D03*
X0194D02*
D03*
X0184D02*
D03*
X0174D02*
D03*
X0164D02*
D03*
X0154D02*
D03*
X0144D02*
D03*
X0134D02*
D03*
X0124D02*
D03*
X0194Y034861D02*
D03*
X0184D02*
D03*
X0174D02*
D03*
X0164D02*
D03*
X0154D02*
D03*
X0144D02*
D03*
X0134D02*
D03*
X0223D02*
D03*
X0233D02*
D03*
X0243D02*
D03*
X0253D02*
D03*
X0263D02*
D03*
X0273D02*
D03*
X0283D02*
D03*
X0213Y037861D02*
D03*
X0223D02*
D03*
X0233D02*
D03*
X0243D02*
D03*
X0253D02*
D03*
X0263D02*
D03*
X0273D02*
D03*
X0283D02*
D03*
X04Y034861D02*
D03*
X041D02*
D03*
X042D02*
D03*
X043D02*
D03*
X044D02*
D03*
X045D02*
D03*
X046D02*
D03*
X039Y037861D02*
D03*
X04D02*
D03*
X041D02*
D03*
X042D02*
D03*
X043D02*
D03*
X044D02*
D03*
X045D02*
D03*
X046D02*
D03*
X04875Y034861D02*
D03*
X04975D02*
D03*
X05075D02*
D03*
X05175D02*
D03*
X05275D02*
D03*
X05375D02*
D03*
X05475D02*
D03*
X04775Y037861D02*
D03*
X04875D02*
D03*
X04975D02*
D03*
X05075D02*
D03*
X05175D02*
D03*
X05275D02*
D03*
X05375D02*
D03*
X05475D02*
D03*
X03125Y034861D02*
D03*
X03225D02*
D03*
X03325D02*
D03*
X03425D02*
D03*
X03525D02*
D03*
X03625D02*
D03*
X03725D02*
D03*
X03025Y037861D02*
D03*
X03125D02*
D03*
X03225D02*
D03*
X03325D02*
D03*
X03425D02*
D03*
X03525D02*
D03*
X03625D02*
D03*
X03725D02*
D03*
D40*
X0137Y02125D02*
D03*
D41*
Y01929D02*
D03*
D42*
X036411Y018298D02*
D03*
X03267Y01654D02*
D03*
X04876Y02413D02*
D03*
X047156Y016187D02*
D03*
X0419D02*
D03*
X03377Y03182D02*
D03*
X04506Y02316D02*
D03*
X01452Y02385D02*
D03*
X03164Y03578D02*
D03*
X0352Y0237D02*
D03*
Y01865D02*
D03*
X047Y02503D02*
D03*
X01611Y04181D02*
D03*
X03623Y03958D02*
D03*
X0344Y0287D02*
D03*
M02*
